<svg width="44" height="44" viewBox="0 0 44 44" fill="none" xmlns="http://www.w3.org/2000/svg">
<path d="M35.481 35.7572C35.9481 38.3202 37.7851 39.7546 40.5108 39.6908C44.0627 39.6094 44.992 35.2073 42.8867 34.1491C41.6125 33.5089 40.1539 33.2911 40.0054 29.7976C39.7611 24.0315 41.0257 19.9197 41.0976 18.844C41.191 17.4756 41.2868 16.0698 41.0688 14.7256C40.6569 12.1737 39.0737 10.4093 36.5013 9.52274C34.499 8.83195 32.444 8.71315 30.3818 9.21694C28.0873 9.77793 26.655 11.5225 26.6789 13.9359C26.6933 15.324 26.9472 16.7276 27.2538 18.0938C27.7424 20.2717 27.3663 22.2297 25.9676 24.0095C25.4263 24.698 24.8083 25.3074 23.9222 25.589C22.7988 25.9476 21.6348 25.5142 21.2061 24.4649C20.9618 23.8665 20.5953 22.4145 20.957 19.8845C21.8121 13.8765 20.9881 12.8755 21.1031 9.70753C21.1318 8.92215 21.4719 8.00697 21.3211 6.66499C21.0648 4.38143 19.9965 3.06366 17.932 1.86028C16.0015 0.733903 13.8938 0.0453158 11.6136 0.00131665C8.54068 -0.0580822 6.84015 1.89768 7.47006 4.77523C7.7 5.83341 8.06166 6.86739 8.37781 7.91017C8.98857 9.93633 8.29399 11.5335 7.09163 13.3045C2.40438 20.2101 -1.84696 30.9635 0.830787 38.6062C1.91578 41.7081 3.8175 43.8509 7.28085 43.9961C9.15623 44.0753 11.9394 42.9731 12.7226 38.9362C13.1776 36.5866 11.8364 33.7333 10.7011 31.9843C10.4185 31.5509 10.1478 31.1109 9.88195 30.6687C6.51441 25.0236 10.5741 15.8916 12.5597 14.378C14.0471 13.2451 15.865 13.8831 16.2769 15.6496C16.4542 16.4152 16.3919 17.2534 16.3152 18.0476C16.2314 18.8902 15.3835 24.5221 16.162 31.4893C16.6458 35.821 18.502 39.9856 21.7641 41.4089C23.7162 42.2625 25.9101 42.4209 28.0705 41.9281C30.0058 41.4881 31.2009 40.0758 31.28 38.1794C31.3446 36.6438 30.7411 35.2666 30.2117 33.8653C29.7878 32.7477 29.2753 31.6433 29.0262 30.4883C28.5447 28.2334 29.4405 26.3744 31.28 24.9708C32.7506 23.8467 34.5828 24.4275 34.9397 26.1874C35.1984 27.4612 35.1433 33.9027 35.4834 35.7572H35.481Z" fill="#151A11"/>
</svg>
