<svg width="94" height="44" viewBox="0 0 94 44" fill="none" xmlns="http://www.w3.org/2000/svg">
<path d="M11.5986 0.00131226C13.878 0.0453109 15.9841 0.734074 17.918 1.86264C19.9771 3.06594 21.0465 4.38397 21.3018 6.66733C21.4514 8.00929 21.1126 8.92492 21.084 9.7103C20.9696 12.878 21.7921 13.8792 20.9385 19.8871C20.5777 22.4166 20.9423 23.8686 21.1865 24.4671C21.6155 25.5165 22.7803 25.9497 23.9023 25.5912C24.7864 25.3095 25.4023 24.7004 25.9434 24.0121C27.3404 22.2323 27.7147 20.274 27.2285 18.096C26.9227 16.7299 26.6675 15.3259 26.6543 13.9378C26.6303 11.5248 28.0624 9.78004 30.3525 9.21909C32.4119 8.7153 34.4649 8.83495 36.4648 9.52573C39.0321 10.4123 40.6139 12.1762 41.0254 14.7279C41.2432 16.0719 41.1461 17.4778 41.0537 18.846C40.9965 19.671 40.2428 22.2825 40.0029 26.0531C40.0711 30.2439 43.0276 29.9406 43.8945 24.4828V24.472C44.6052 19.7136 47.1993 15.216 51.6611 13.7464C53.4738 13.1482 55.5703 13.6128 57.3809 14.2044H57.3789C62.7362 15.9512 62.1729 25.1277 61.3896 28.8499C59.7658 36.5648 54.2943 40.4671 48.6973 37.5941C48.4399 37.4621 48.1955 37.3152 47.958 37.1546C47.7094 37.0424 47.4413 36.8417 47.1553 36.5228C46.8539 36.2522 46.5724 35.957 46.3105 35.638C45.4151 34.8439 44.0135 34.0106 43.9453 36.2523C44.0509 38.1596 42.8626 40.5771 40.4844 40.6322C37.7628 40.696 36.0049 39.0109 35.4395 35.7572C35.1183 33.9005 35.158 27.4624 34.8984 26.1878C34.5398 24.4279 32.7109 23.8469 31.2412 24.971C29.4043 26.3746 28.5094 28.2338 28.9912 30.4886C29.2376 31.6435 29.7524 32.7481 30.1748 33.8656C30.705 35.2667 31.3049 36.6437 31.2412 38.179C31.162 40.0753 29.9699 41.488 28.0361 41.9281C25.8801 42.4208 23.6888 42.262 21.7373 41.4085C18.4789 39.9852 16.6257 35.8212 16.1416 31.4896C15.3651 24.5235 16.2121 18.8922 16.2959 18.0482C16.3751 17.254 16.437 16.4153 16.2588 15.6497C15.8473 13.8833 14.03 13.2454 12.5449 14.3783C10.5626 15.8918 6.50734 25.0243 9.86914 30.6693C10.1331 31.1114 10.4059 31.5514 10.6875 31.9847C11.8227 33.7336 13.1632 36.5864 12.708 38.9359C11.9248 42.9725 9.14599 44.0754 7.27148 43.9964C3.81288 43.8512 1.91377 41.7077 0.829102 38.6058C-1.84383 30.9633 2.40267 20.2105 7.08008 13.305C8.28135 11.5341 8.97589 9.93663 8.36426 7.91049C8.04966 6.86779 7.68902 5.83383 7.45801 4.77573C6.83098 1.89825 8.52953 -0.0580311 11.5986 0.00131226ZM70.209 15.4203C71.6234 15.4203 72.928 15.6532 74.127 16.1195C75.326 16.5858 76.329 17.3081 77.1387 18.2826C77.3411 18.5268 77.5286 18.7888 77.6914 19.0726C79.244 21.7606 74.4775 23.496 73.8809 20.8744C73.7401 20.2584 73.3265 19.7582 72.8359 19.514C69.3069 17.7519 67.681 23.787 72.2705 24.348C73.0187 24.4405 74.5434 24.8409 75.2803 25.1048C76.0171 25.3688 76.6881 25.7202 77.293 26.1556V26.1585C77.898 26.5941 78.3729 27.1641 78.7227 27.8636C79.0702 28.5653 79.2441 29.4426 79.2441 30.4984C79.2441 31.8799 78.8907 33.0617 78.1846 34.0472C77.4783 35.0328 76.3448 36.0117 75.1172 36.5199C73.5441 37.171 69.6301 37.7211 66.8447 37.224C65.5114 36.9842 63.8916 36.6804 62.4131 34.179C61.0361 31.8494 62.5082 28.8707 64.1143 28.6859C66.4486 28.4175 67.3526 29.1704 67.665 29.8744C68.1839 31.051 67.5466 32.5025 68.041 32.8724C68.8308 33.462 69.8588 33.8979 71.0996 33.7572C73.3701 33.502 75.0378 29.2649 71.0693 27.848C70.3565 27.595 69.566 27.5176 68.7783 27.346C67.9908 27.1745 67.2226 26.9616 66.4746 26.7064C65.7267 26.4534 65.0559 26.1116 64.4619 25.6849C63.8658 25.2603 63.3945 24.7064 63.0469 24.0267C62.6993 23.3469 62.5254 22.4887 62.5254 21.4525C62.5254 20.3548 62.8231 19.3498 63.417 18.4369C64.011 17.5239 64.88 16.7913 66.0283 16.2435C67.1768 15.6935 68.5699 15.4203 70.209 15.4203ZM86.3438 15.7308C87.7737 15.7308 89.0452 15.951 90.1562 16.391C91.2673 16.8309 92.1853 17.5 92.9092 18.3997C93.0542 18.5777 93.1882 18.7645 93.3135 18.9622C94.0901 20.1854 94.0131 23.1183 92.5742 23.2855C90.4826 23.5273 89.6731 22.8479 89.3936 22.2122C88.925 21.1476 89.4967 19.8358 89.0547 19.5013C88.3485 18.969 87.4286 18.5759 86.3154 18.7035C84.2803 18.9367 82.7864 22.7639 86.3418 24.0443C86.9774 24.273 87.6856 24.3413 88.3916 24.4974C89.0978 24.6536 89.7872 24.8455 90.4561 25.0765C91.127 25.3053 91.7274 25.6135 92.2598 25.9984C92.7922 26.3834 93.2149 26.8824 93.5273 27.4984L93.5312 27.5023C93.8437 28.1161 94 28.8935 94 29.8285C93.9999 30.8205 93.7335 31.7292 93.2012 32.554C92.6687 33.3789 91.8877 34.0406 90.8604 34.5355C89.8329 35.0304 88.5858 35.2796 87.1162 35.2796C85.8489 35.2796 84.6782 35.0682 83.6045 34.6458C82.531 34.2235 81.631 33.5726 80.9072 32.6927C80.7247 32.4706 80.5595 32.2329 80.4121 31.9779C79.0217 29.5471 83.2921 27.978 83.8271 30.349C83.9526 30.9034 84.3217 31.3553 84.7617 31.5775C87.9253 33.17 89.3819 27.7169 85.2705 27.2083C84.5995 27.1247 83.2323 26.7614 82.5723 26.5238C81.9102 26.284 81.3097 25.9673 80.7686 25.5736C80.2274 25.1777 79.8007 24.665 79.4883 24.0316C79.1759 23.4002 79.0195 22.6055 79.0195 21.6507C79.0196 20.4014 79.3363 19.3346 79.9697 18.4437C80.6033 17.5528 81.4724 16.8769 82.5723 16.4193C83.6723 15.9617 84.9137 15.7308 86.3438 15.7308ZM54.2461 19.4671C47.2629 19.6784 48.7813 31.3922 52.7129 32.4173C55.441 33.1299 58.1758 29.6522 58.1758 26.0003C58.1736 23.7695 58.1776 19.3483 54.2461 19.4671Z" fill="#151A11"/>
</svg>
