<svg width="68" height="68" viewBox="0 0 68 68" fill="none" xmlns="http://www.w3.org/2000/svg">
<path d="M54.8343 55.2612C55.5561 59.2221 58.3952 61.4389 62.6075 61.3403C68.0969 61.2145 69.5331 54.4112 66.2795 52.7758C64.3103 51.7865 62.056 51.4499 61.8265 46.0508C61.449 37.1395 63.4034 30.7851 63.5144 29.1225C63.6588 27.0077 63.8068 24.8352 63.47 22.7578C62.8333 18.8139 60.3866 16.0871 56.4111 14.717C53.3166 13.6494 50.1407 13.4658 46.9537 14.2444C43.4076 15.1113 41.1941 17.8075 41.2311 21.5372C41.2533 23.6826 41.6457 25.8517 42.1195 27.9631C42.8746 31.329 42.2934 34.355 40.1317 37.1055C39.2952 38.1697 38.3402 39.1115 36.9706 39.5467C35.2346 40.1009 33.4356 39.4311 32.773 37.8093C32.3955 36.8845 31.8291 34.6406 32.3881 30.7307C33.7095 21.4454 32.4362 19.8985 32.6139 15.0026C32.6583 13.7888 33.1839 12.3744 32.9507 10.3004C32.5546 6.77131 30.9038 4.73475 27.713 2.87498C24.7296 1.13421 21.4722 0.0700335 17.9483 0.00203483C13.1992 -0.0897634 10.5711 2.93278 11.5446 7.3799C11.9 9.01526 12.4589 10.6132 12.9475 12.2248C13.8914 15.3561 12.818 17.8245 10.9598 20.5614C3.71586 31.2338 -2.85439 47.8527 1.28394 59.6641C2.96075 64.458 5.89978 67.7695 11.2522 67.9939C14.1505 68.1163 18.4517 66.413 19.6621 60.1741C20.3654 56.543 18.2926 52.1332 16.538 49.4303C16.1013 48.7605 15.683 48.0805 15.2721 47.3971C10.0677 38.6729 16.3419 24.5598 19.4104 22.2206C21.7091 20.4696 24.5186 21.4556 25.1552 24.1858C25.4292 25.369 25.3329 26.6643 25.2145 27.8917C25.0849 29.1939 23.7746 37.8977 24.9776 48.6653C25.7253 55.3598 28.594 61.7959 33.6355 63.9956C36.6523 65.3148 40.0429 65.5596 43.3817 64.798C46.3725 64.118 48.2196 61.9353 48.3418 59.0045C48.4417 56.6314 47.5089 54.503 46.6909 52.3372C46.0357 50.6101 45.2436 48.9033 44.8586 47.1183C44.1146 43.6334 45.499 40.7605 48.3418 38.5913C50.6145 36.8539 53.4462 37.7515 53.9977 40.4715C54.3975 42.44 54.3124 52.395 54.838 55.2612H54.8343Z" fill="black"/>
</svg>
