<svg width="16" height="16" viewBox="0 0 16 16" fill="none" xmlns="http://www.w3.org/2000/svg">
  <style>
    path { fill: black; }
    @media (prefers-color-scheme: dark) {
      path { fill: white; }
    }
  </style>
<g clip-path="url(#clip0_237_528)">
<path d="M12.9022 13.0026C13.072 13.9346 13.74 14.4562 14.7312 14.433C16.0228 14.4034 16.3607 12.8026 15.5952 12.4178C15.1318 12.185 14.6014 12.1058 14.5474 10.8355C14.4586 8.73871 14.9184 7.24354 14.9446 6.85235C14.9785 6.35476 15.0134 5.84357 14.9341 5.35478C14.7843 4.42679 14.2086 3.78521 13.2732 3.46281C12.5451 3.21162 11.7978 3.16842 11.0479 3.35162C10.2136 3.55561 9.69272 4.19 9.70143 5.06758C9.70666 5.57237 9.79898 6.08276 9.91046 6.57955C10.0881 7.37154 9.9514 8.08353 9.44276 8.73071C9.24592 8.98111 9.02122 9.2027 8.69897 9.3051C8.29049 9.4355 7.8672 9.2779 7.7113 8.89631C7.62247 8.67871 7.48921 8.15072 7.62072 7.23074C7.93165 5.04598 7.63205 4.68199 7.67385 3.53001C7.6843 3.24442 7.80798 2.91162 7.75311 2.42363C7.65992 1.59325 7.27147 1.11406 6.52071 0.676466C5.81872 0.266874 5.05228 0.0164785 4.22314 0.000478782C3.1057 -0.0211208 2.48733 0.690066 2.71639 1.73645C2.8 2.12124 2.93151 2.49723 3.04648 2.87642C3.26857 3.61321 3.01599 4.194 2.57878 4.83799C0.874321 7.34914 -0.671621 11.2595 0.302104 14.0386C0.696646 15.1666 1.38818 15.9458 2.64758 15.9986C3.32954 16.0274 4.34159 15.6266 4.62639 14.1586C4.79187 13.3042 4.30413 12.2666 3.8913 11.6307C3.78853 11.4731 3.69011 11.3131 3.59344 11.1523C2.36888 9.09951 3.84514 5.77877 4.56716 5.22838C5.10802 4.81639 5.76908 5.04838 5.91888 5.69077C5.98333 5.96917 5.96069 6.27396 5.93282 6.56275C5.90233 6.86915 5.59402 8.91711 5.87708 11.4507C6.05301 13.0258 6.728 14.5402 7.91424 15.0578C8.62406 15.3682 9.42186 15.4258 10.2075 15.2466C10.9112 15.0866 11.3458 14.573 11.3745 13.8834C11.398 13.325 11.1786 12.8242 10.9861 12.3146C10.8319 11.9083 10.6455 11.5067 10.555 11.0867C10.3799 10.2667 10.7056 9.5907 11.3745 9.08031C11.9093 8.67151 12.5756 8.88271 12.7053 9.5227C12.7994 9.98589 12.7785 12.3282 12.9022 13.0026Z" fill="#E0EED5"/>
</g>
<defs>
<clipPath id="clip0_237_528">
<rect width="16" height="16" />
</clipPath>
</defs>
</svg>