<svg width="128" height="60" viewBox="0 0 128 60" fill="none" xmlns="http://www.w3.org/2000/svg">
<path id="Moss-logo" fill-rule="evenodd" clip-rule="evenodd" d="M78.1357 19.3694C75.67 18.5624 72.8149 17.9295 70.3463 18.7454C64.2706 20.7494 60.7385 26.8813 59.7708 33.3702V33.3852C58.5904 40.828 54.5639 41.242 54.471 35.5271C54.695 31.9999 55.2489 29.2165 55.5999 27.4532L55.5999 27.4532L55.5999 27.4531C55.7605 26.646 55.8786 26.0525 55.9031 25.6993L55.9053 25.6657V25.6656C56.0305 23.8103 56.1589 21.9054 55.8641 20.0834C55.3039 16.6035 53.1498 14.1975 49.6536 12.9886C46.9303 12.0466 44.1352 11.8846 41.331 12.5716C38.2123 13.3365 36.2619 15.7155 36.2949 19.0064C36.3129 20.8994 36.6604 22.8134 37.0768 24.6763C37.7389 27.6463 37.2296 30.3162 35.3272 32.7432C34.5902 33.6822 33.7514 34.5131 32.547 34.8971C31.0191 35.3861 29.4343 34.7951 28.8501 33.3642C28.5175 32.5482 28.0202 30.5682 28.5115 27.1183C29.2699 21.7735 29.0566 19.3346 28.86 17.0855C28.7552 15.8869 28.6551 14.7423 28.7093 13.2405C28.7226 12.8748 28.7851 12.4885 28.8536 12.0653C28.9858 11.2494 29.14 10.2967 29.0059 9.09162C28.6583 5.97768 27.2023 4.18072 24.3982 2.53975C21.7648 1.00078 18.8977 0.0617943 15.7939 0.00179543C11.6147 -0.079203 9.30183 2.58775 10.1557 6.51167C10.3876 7.57553 10.7156 8.62146 11.0436 9.66748C11.1605 10.0402 11.2774 10.413 11.39 10.7866C12.2228 13.5495 11.2761 15.7275 9.64036 18.1425C3.27108 27.5593 -2.51101 42.223 1.12901 52.6448C2.60599 56.8747 5.19145 59.7967 9.90101 59.9947C12.4535 60.1027 16.2373 58.5997 17.3039 53.0948C17.924 49.8909 16.0995 45.9999 14.5536 43.615C14.1702 43.024 13.7987 42.424 13.4392 41.821C8.86143 34.1231 14.3829 21.6704 17.0822 19.6064C19.1044 18.0615 21.579 18.9314 22.1393 21.3404C22.3819 22.3844 22.298 23.5273 22.1902 24.6103C22.1794 24.7194 22.1592 24.8874 22.1324 25.1102C21.8772 27.2341 21.0233 34.3413 21.9805 42.94C22.6396 48.8469 25.1621 54.5258 29.5991 56.4667C32.2564 57.6307 35.2403 57.8467 38.1763 57.1747C40.8097 56.5747 42.4335 54.6488 42.5414 52.0628C42.6196 50.1762 41.9634 48.4649 41.3046 46.7468C41.2323 46.558 41.1598 46.3691 41.0883 46.1799C40.9429 45.7947 40.7895 45.4107 40.636 45.0264L40.6358 45.026C40.182 43.89 39.7272 42.7517 39.4765 41.575C38.8204 38.5001 40.0398 35.9651 42.5414 34.0512C44.5426 32.5182 47.0322 33.3102 47.5205 35.7101C47.6893 36.5395 47.7652 38.9749 47.8461 41.5691V41.5691C47.9346 44.4079 48.029 47.4369 48.2575 48.7599C49.0275 53.1968 51.4212 55.4947 55.1271 55.4077C58.3657 55.3327 59.9835 52.0358 59.8397 49.4349C59.9326 46.3779 61.841 47.5149 63.0603 48.5979C63.4168 49.0329 63.8003 49.4349 64.2107 49.8038C64.6002 50.2388 64.9657 50.5118 65.3042 50.6648C65.6278 50.8838 65.9603 51.0848 66.3108 51.2648C73.9324 55.1828 81.3832 49.8609 83.5942 39.34C84.6607 34.2641 85.4277 21.7514 78.1327 19.3694H78.1357ZM71.7784 44.206C66.4247 42.808 64.3575 26.8333 73.8665 26.5453C79.2083 26.3837 79.2142 32.3866 79.2172 35.4349L79.2172 35.4551C79.2172 40.435 75.4933 45.1779 71.7784 44.206ZM127.357 37.4981C126.931 36.6581 126.356 35.9771 125.631 35.4521C124.906 34.9271 124.088 34.5071 123.174 34.1951C122.264 33.8801 121.326 33.6192 120.364 33.4062C120.04 33.3343 119.715 33.2761 119.394 33.2185C118.763 33.1055 118.146 32.9949 117.572 32.7882C112.731 31.0422 114.765 25.8223 117.536 25.5043C119.052 25.3303 120.304 25.8673 121.266 26.5933C121.556 26.8133 121.525 27.3435 121.487 27.9965C121.446 28.6966 121.397 29.5379 121.727 30.2892C122.108 31.1562 123.21 32.0832 126.059 31.7532C128.019 31.5252 128.123 27.5263 127.066 25.8583C126.895 25.5883 126.712 25.3333 126.515 25.0903C125.529 23.8633 124.28 22.9514 122.767 22.3514C121.254 21.7514 119.522 21.4514 117.575 21.4514C115.628 21.4514 113.938 21.7664 112.44 22.3904C110.942 23.0144 109.759 23.9353 108.896 25.1503C108.033 26.3653 107.602 27.8203 107.602 29.5242C107.602 30.8262 107.814 31.9092 108.24 32.7702C108.665 33.6342 109.246 34.3331 109.983 34.8731C110.72 35.4101 111.538 35.8421 112.44 36.1691C113.339 36.4931 115.199 36.9881 116.113 37.1021C121.712 37.7951 119.729 45.2319 115.421 43.06C114.822 42.757 114.318 42.142 114.148 41.386C113.42 38.1521 107.605 40.291 109.498 43.606C109.699 43.954 109.923 44.278 110.172 44.5809C111.158 45.7809 112.383 46.6689 113.845 47.2449C115.307 47.8209 116.901 48.1089 118.626 48.1089C120.628 48.1089 122.326 47.7699 123.726 47.0949C125.125 46.4199 126.188 45.5169 126.913 44.392C127.638 43.267 128.001 42.028 128.001 40.675C128.001 39.4 127.788 38.3411 127.363 37.5041L127.357 37.4981ZM102.514 34.2311C103.518 34.5911 104.431 35.0711 105.255 35.6651V35.6681C106.079 36.2621 106.726 37.0391 107.203 37.9931C107.676 38.9501 107.913 40.147 107.913 41.587C107.913 43.471 107.43 45.0819 106.469 46.4259C105.507 47.7699 103.964 49.1049 102.292 49.7978C100.15 50.6858 94.8206 51.4358 91.0278 50.7578C89.2123 50.4308 87.0073 50.0168 84.994 46.6059C83.1186 43.429 85.1228 39.367 87.3099 39.115C90.4885 38.7491 91.7198 39.775 92.1452 40.735C92.5103 41.5637 92.4553 42.4923 92.4094 43.2662C92.3664 43.9911 92.3315 44.5802 92.6575 44.8239C93.7331 45.6279 95.1322 46.2219 96.8218 46.0299C99.9136 45.6819 102.185 39.904 96.7799 37.9721C96.1331 37.7422 95.4398 37.6189 94.7319 37.493C94.3773 37.4299 94.0191 37.3662 93.6612 37.2881C92.5886 37.0541 91.5431 36.7631 90.5245 36.4151C89.5059 36.0701 88.5921 35.6051 87.7832 35.0231C86.9713 34.4441 86.3302 33.6881 85.8568 32.7612C85.3835 31.8342 85.1468 30.6642 85.1468 29.2512C85.1468 27.7543 85.5513 26.3833 86.3602 25.1383C87.1691 23.8933 88.3524 22.8944 89.9163 22.1474C91.4802 21.3974 93.3766 21.0254 95.6085 21.0254C97.5349 21.0254 99.3114 21.3434 100.944 21.9794C102.577 22.6154 103.943 23.5993 105.046 24.9283C105.321 25.2613 105.576 25.6183 105.798 26.0053C107.913 29.6712 101.421 32.0382 100.609 28.4622C100.417 27.6223 99.8537 26.9413 99.1856 26.6083C94.3802 24.2053 92.1662 32.4342 98.4157 33.1992C99.4343 33.3252 101.51 33.8711 102.514 34.2311Z" fill="#151A11"/>
</svg>
