<svg width="307" height="185" viewBox="0 0 307 185" fill="none" xmlns="http://www.w3.org/2000/svg">
<path d="M229.742 183.532C230.371 184.196 231.179 184.524 232.133 184.524C233.035 184.524 233.81 184.189 234.433 183.532C235.051 182.881 235.365 182.098 235.365 181.204C235.365 180.336 235.049 179.582 234.429 178.962C233.807 178.308 233.034 177.974 232.133 177.974C231.181 177.974 230.374 178.301 229.746 178.962C229.126 179.582 228.81 180.336 228.81 181.204C228.81 182.098 229.124 182.881 229.742 183.532Z" fill="black" stroke="black" stroke-width="0.801121"/>
<path d="M212.676 183.191L212.676 183.191L212.682 183.194C214.243 184.085 216.065 184.524 218.132 184.524C220.161 184.524 221.888 184.077 223.29 183.157C224.693 182.236 225.739 180.862 226.438 179.063C226.64 178.544 226.36 177.984 225.861 177.797C225.342 177.602 224.787 177.868 224.571 178.347C224.004 179.609 223.253 180.568 222.326 181.244C221.303 181.982 220.123 182.354 218.771 182.354C217.326 182.354 216.122 181.966 215.136 181.207C214.165 180.436 213.43 179.404 212.936 178.097C212.436 176.746 212.185 175.288 212.185 173.72C212.185 173.24 212.59 172.844 213.108 172.844H225.111C225.588 172.844 226.044 172.521 226.11 171.991C226.143 171.725 226.159 171.403 226.159 171.029C226.159 168.519 225.467 166.455 224.048 164.877C222.649 163.285 220.705 162.506 218.269 162.506C216.338 162.506 214.559 163.014 212.942 164.027C211.358 165.009 210.094 166.369 209.15 168.098C208.2 169.807 207.73 171.761 207.73 173.949C207.73 175.983 208.154 177.813 209.01 179.429L209.01 179.429L209.014 179.437C209.901 181.019 211.123 182.272 212.676 183.191ZM221.939 169.554L221.938 169.554L221.934 169.562C221.75 169.908 221.353 170.255 220.663 170.571C220.038 170.842 219.07 170.993 217.721 170.993H214.901C214.222 170.993 213.616 170.693 213.239 170.245C212.867 169.804 212.718 169.223 212.928 168.619C213.239 167.727 213.649 166.957 214.154 166.303C215.135 165.072 216.49 164.448 218.269 164.448C219.296 164.448 220.227 164.792 221.072 165.496C221.882 166.17 222.298 167.1 222.298 168.337C222.298 168.71 222.186 169.114 221.939 169.554Z" fill="black" stroke="black" stroke-width="0.801121"/>
<path d="M188.331 167.361L188.331 167.361L195.421 183.005C195.701 183.624 196.318 184.022 196.998 184.022C197.69 184.022 198.316 183.61 198.589 182.973L204.819 168.449C205.269 167.401 205.706 166.654 206.121 166.184L206.122 166.184L206.129 166.175C206.509 165.719 207.065 165.423 207.839 165.312L208.41 165.237C208.882 165.176 209.236 164.773 209.236 164.297C209.236 163.759 208.79 163.329 208.253 163.348L204.999 163.465L201.466 163.347C200.932 163.329 200.489 163.758 200.489 164.293C200.489 164.772 200.848 165.176 201.324 165.232L201.616 165.267C202.288 165.354 202.739 165.51 203.012 165.7C203.265 165.875 203.366 166.077 203.366 166.329C203.366 166.642 203.255 167.083 202.99 167.67L202.99 167.67L202.987 167.677L200.027 174.604C199.251 176.419 196.688 176.447 195.872 174.65L192.625 167.492C192.389 166.93 192.293 166.536 192.293 166.284C192.293 165.992 192.388 165.813 192.55 165.687L192.56 165.679L192.57 165.671C192.752 165.509 193.124 165.355 193.771 165.266L194.019 165.235C194.494 165.176 194.851 164.772 194.851 164.293C194.851 163.758 194.409 163.329 193.874 163.345L189.792 163.465L185.661 163.344C185.128 163.329 184.688 163.757 184.688 164.29C184.688 164.772 185.05 165.177 185.529 165.23L185.57 164.865L185.529 165.23L185.865 165.267C186.597 165.352 187.088 165.584 187.398 165.917C187.76 166.307 188.072 166.786 188.331 167.361Z" fill="black" stroke="black" stroke-width="0.801121"/>
<path d="M178.137 165.789L178.146 165.795L178.155 165.801C178.39 165.95 178.595 166.218 178.744 166.661C178.892 167.108 178.974 167.707 178.974 168.474V178.101C178.974 179.463 178.882 180.4 178.718 180.949C178.566 181.426 178.31 181.697 177.962 181.83C177.541 181.969 176.903 182.101 176.034 182.221L175.788 182.252C175.312 182.311 174.955 182.715 174.955 183.195C174.955 183.729 175.395 184.158 175.929 184.145L180.973 184.022L186.017 184.145C186.551 184.158 186.991 183.729 186.991 183.195C186.991 182.715 186.634 182.311 186.158 182.252L185.912 182.221C185.048 182.102 184.394 181.97 183.939 181.83C183.627 181.7 183.382 181.433 183.228 180.949C183.064 180.4 182.972 179.463 182.972 178.101V166.346C182.972 164.434 181.259 163.027 179.398 163.198C179.244 163.212 179.09 163.226 178.937 163.238C177.952 163.289 176.932 163.319 175.878 163.326C175.37 163.33 174.955 163.742 174.955 164.253V164.458C174.955 164.856 175.278 165.179 175.676 165.179C176.787 165.179 177.591 165.399 178.137 165.789ZM178.245 157.278C178.787 157.928 179.529 158.243 180.425 158.243C181.39 158.243 182.17 157.941 182.663 157.262C183.147 156.639 183.383 155.898 183.383 155.06C183.383 154.198 183.15 153.452 182.66 152.853C182.166 152.178 181.388 151.876 180.425 151.876C179.531 151.876 178.79 152.19 178.249 152.837C177.72 153.437 177.467 154.188 177.467 155.06C177.467 155.907 177.724 156.654 178.245 157.278Z" fill="black" stroke="black" stroke-width="0.801121"/>
<path d="M162.01 166.204L162.014 166.212L162.018 166.219C162.294 166.67 162.461 167.445 162.461 168.61V178.101C162.461 179.462 162.369 180.4 162.205 180.948C162.054 181.426 161.797 181.697 161.449 181.829C161.028 181.969 160.391 182.101 159.522 182.22L159.276 182.251C158.8 182.311 158.443 182.715 158.443 183.195C158.443 183.729 158.883 184.158 159.417 184.145L164.46 184.022L169.504 184.145C170.038 184.158 170.478 183.729 170.478 183.195C170.478 182.715 170.121 182.311 169.645 182.251L169.399 182.22C168.535 182.101 167.882 181.97 167.427 181.83C167.114 181.7 166.869 181.432 166.715 180.948C166.551 180.4 166.459 179.462 166.459 178.101V171.137C166.459 170.997 166.472 170.861 166.498 170.729C166.64 170.015 166.818 169.353 167.031 168.742C167.27 168.054 167.523 167.429 167.79 166.866C168.107 166.206 168.47 165.709 168.873 165.358C169.32 164.998 169.687 164.859 169.986 164.859C170.07 164.859 170.131 164.867 170.173 164.877C170.199 164.883 170.215 164.889 170.224 164.893C170.224 164.898 170.225 164.905 170.225 164.915C170.225 165.001 170.196 165.164 170.108 165.427L170.102 165.446L170.097 165.466C170.03 165.771 169.996 166.089 169.996 166.42C169.996 166.945 170.225 167.398 170.63 167.766C171.064 168.161 171.663 168.327 172.361 168.327C173.123 168.327 173.769 168.08 174.252 167.56C174.727 167.049 174.953 166.399 174.953 165.645C174.953 164.965 174.702 164.294 174.244 163.639C173.704 162.833 172.676 162.506 171.356 162.506C170.123 162.506 168.983 162.959 167.947 163.833C167.271 164.402 166.68 165.225 166.164 166.282L166.188 166.035C166.35 164.337 164.881 162.964 163.212 163.123C162.946 163.148 162.681 163.171 162.419 163.192C161.435 163.27 160.417 163.314 159.364 163.325C158.857 163.33 158.443 163.741 158.443 164.253C158.443 164.769 158.858 165.168 159.351 165.189C159.935 165.214 160.448 165.284 160.893 165.394L160.902 165.397L160.911 165.399C161.404 165.497 161.762 165.758 162.01 166.204Z" fill="black" stroke="black" stroke-width="0.801121"/>
<path d="M135.822 153.15L135.831 153.156L135.84 153.162C136.074 153.311 136.28 153.579 136.428 154.023C136.577 154.469 136.659 155.068 136.659 155.835V178.101C136.659 179.463 136.567 180.4 136.402 180.949C136.251 181.426 135.995 181.697 135.647 181.83C135.226 181.969 134.588 182.101 133.719 182.221L133.473 182.251C132.997 182.311 132.64 182.715 132.64 183.195C132.64 183.729 133.08 184.158 133.614 184.145L138.658 184.022L143.701 184.145C144.235 184.158 144.675 183.729 144.675 183.195C144.675 182.715 144.318 182.311 143.842 182.251L143.596 182.221C142.733 182.102 142.079 181.97 141.624 181.83C141.311 181.7 141.066 181.433 140.913 180.949C140.749 180.4 140.656 179.463 140.656 178.101V169.501C140.656 169.2 140.711 168.919 140.832 168.679C141.082 168.185 141.42 167.667 141.849 167.126C142.391 166.441 143.08 165.866 143.92 165.403L143.92 165.403L143.929 165.397C144.746 164.919 145.665 164.677 146.695 164.677C148.046 164.677 149.042 165.062 149.74 165.786L149.74 165.786L149.746 165.791C150.438 166.483 150.815 167.522 150.815 168.976V178.101C150.815 179.463 150.723 180.4 150.559 180.949C150.408 181.426 150.151 181.697 149.803 181.83C149.382 181.969 148.745 182.101 147.876 182.221L147.63 182.251C147.154 182.311 146.797 182.715 146.797 183.195C146.797 183.729 147.237 184.158 147.771 184.145L152.814 184.022L157.858 184.145C158.392 184.158 158.832 183.729 158.832 183.195C158.832 182.715 158.475 182.311 157.999 182.251L157.753 182.221C156.89 182.102 156.236 181.97 155.781 181.83C155.468 181.7 155.223 181.433 155.069 180.949C154.905 180.4 154.813 179.463 154.813 178.101V168.976C154.813 166.942 154.173 165.329 152.849 164.202C151.569 163.057 149.836 162.507 147.7 162.507C145.929 162.507 144.361 162.934 143.011 163.8C142.632 164.033 142.037 164.035 141.505 163.809C140.967 163.58 140.656 163.195 140.656 162.809V153.707C140.656 151.796 138.943 150.388 137.083 150.56C136.928 150.574 136.775 150.587 136.622 150.599C135.636 150.651 134.616 150.68 133.562 150.688C133.054 150.691 132.64 151.103 132.64 151.615V151.82C132.64 152.218 132.962 152.54 133.36 152.54C134.471 152.54 135.276 152.76 135.822 153.15Z" fill="black" stroke="black" stroke-width="0.801121"/>
<path d="M124.084 183.084L124.084 183.084L124.094 183.093C125.123 184.055 126.444 184.524 128.021 184.524C128.796 184.524 129.528 184.395 130.216 184.134C130.952 183.866 131.598 183.416 132.155 182.794L132.156 182.793C132.414 182.504 132.668 182.17 132.919 181.794C133.102 181.529 133.266 181.251 133.411 180.961C133.655 180.472 133.42 179.917 132.97 179.692C132.478 179.447 131.902 179.653 131.645 180.108C131.335 180.655 131.003 181.127 130.648 181.526C130.246 181.951 129.718 182.172 129.026 182.172C128.189 182.172 127.614 181.883 127.229 181.338C126.827 180.767 126.595 179.861 126.595 178.557V167.54C126.595 166.286 127.611 165.27 128.865 165.27H131.469C132.005 165.27 132.44 164.835 132.44 164.299C132.44 163.763 132.005 163.328 131.469 163.328H128.865C127.611 163.328 126.595 162.312 126.595 161.058V158.839C126.595 158.269 126.133 157.807 125.563 157.807C125.04 157.807 124.614 158.195 124.531 158.692C124.303 160.067 123.904 161.128 123.356 161.9L123.356 161.9L123.354 161.902C122.793 162.703 121.967 163.154 120.822 163.238L120.822 163.238L120.136 163.289C119.618 163.327 119.218 163.758 119.218 164.278C119.218 164.826 119.662 165.27 120.21 165.27H121.308C122.02 165.27 122.597 165.847 122.597 166.559V178.375C122.597 180.459 123.062 182.063 124.084 183.084Z" fill="black" stroke="black" stroke-width="0.801121"/>
<path d="M90.8489 183.053L90.8518 183.055C92.5294 184.035 94.3806 184.524 96.3969 184.524C98.4425 184.524 100.295 184.036 101.945 183.053C103.586 182.076 104.883 180.764 105.831 179.123C106.812 177.447 107.301 175.598 107.301 173.584C107.301 171.511 106.813 169.632 105.832 167.954C104.884 166.283 103.587 164.956 101.945 163.977C100.295 162.995 98.4425 162.506 96.3969 162.506C94.3806 162.506 92.5294 162.995 90.8518 163.976L90.8518 163.976L90.8489 163.977C89.2069 164.955 87.8953 166.282 86.9179 167.952L86.9178 167.952L86.915 167.957C85.9648 169.634 85.493 171.513 85.493 173.584C85.493 175.596 85.9658 177.444 86.915 179.119L86.9149 179.119L86.9196 179.127C87.8975 180.766 89.2087 182.076 90.8489 183.053ZM100.111 165.631L100.111 165.631L100.116 165.635C101.052 166.4 101.744 167.456 102.18 168.823C102.622 170.206 102.846 171.791 102.846 173.584C102.846 175.313 102.623 176.868 102.181 178.251C101.745 179.587 101.054 180.645 100.114 181.443C99.1982 182.19 97.9722 182.582 96.3969 182.582C94.8217 182.582 93.5957 182.19 92.6802 181.443C91.7402 180.645 91.0491 179.587 90.6131 178.251C90.1712 176.868 89.9475 175.313 89.9475 173.584C89.9475 171.791 90.1718 170.206 90.6135 168.823C91.0503 167.456 91.7417 166.4 92.6774 165.635L92.6775 165.635L92.6829 165.631C93.5987 164.855 94.8235 164.448 96.3969 164.448C97.9704 164.448 99.1952 164.855 100.111 165.631Z" fill="black" stroke="black" stroke-width="0.801121"/>
<path d="M76.0166 183.084L76.0164 183.084L76.0262 183.093C77.0556 184.055 78.3765 184.524 79.953 184.524C80.728 184.524 81.4606 184.395 82.1477 184.134C82.8837 183.866 83.5306 183.416 84.0874 182.794L84.0883 182.793C84.3456 182.504 84.5997 182.17 84.851 181.794C85.0343 181.529 85.1984 181.251 85.343 180.961C85.5869 180.472 85.3524 179.917 84.9019 179.692C84.4106 179.447 83.8343 179.653 83.5769 180.108C83.2674 180.655 82.9347 181.127 82.5803 181.526C82.1784 181.951 81.6506 182.172 80.9577 182.172C80.1212 182.172 79.5461 181.883 79.1615 181.338C78.7589 180.767 78.5269 179.861 78.5269 178.557V167.54C78.5269 166.286 79.5431 165.27 80.7967 165.27H83.4014C83.9376 165.27 84.3723 164.835 84.3723 164.299C84.3723 163.763 83.9376 163.328 83.4014 163.328H80.7967C79.5431 163.328 78.5269 162.312 78.5269 161.058V158.839C78.5269 158.269 78.0649 157.807 77.495 157.807C76.9717 157.807 76.546 158.195 76.4633 158.692C76.2349 160.067 75.8364 161.128 75.2881 161.9L75.2881 161.9L75.2866 161.902C74.7254 162.703 73.899 163.154 72.7541 163.238L72.7538 163.238L72.0685 163.289C71.5505 163.327 71.1497 163.758 71.1497 164.278C71.1497 164.826 71.5938 165.27 72.1417 165.27H73.24C73.9519 165.27 74.5291 165.847 74.5291 166.559V178.375C74.5291 180.459 74.9944 182.063 76.0166 183.084Z" fill="black" stroke="black" stroke-width="0.801121"/>
<path d="M260.01 133.717L260.01 133.717L260.02 133.722C260.499 133.945 261.142 134.179 261.939 134.425C262.812 134.715 263.845 134.854 265.03 134.854C267.181 134.854 268.886 134.219 270.077 132.897C271.238 131.608 271.824 130.098 271.824 128.385C271.824 126.944 271.438 125.687 270.651 124.637C269.884 123.54 268.519 122.653 266.633 121.943C266.633 121.943 266.633 121.943 266.632 121.942L264.855 121.26C264.855 121.259 264.855 121.259 264.854 121.259C263.636 120.784 262.691 120.258 262.005 119.688C261.392 119.126 261.092 118.444 261.092 117.618C261.092 116.749 261.385 116.051 261.969 115.492C262.59 114.927 263.344 114.642 264.253 114.642C265.569 114.642 266.537 115.123 267.215 116.071L267.215 116.071L267.219 116.076C267.855 116.941 268.293 117.957 268.527 119.133C268.616 119.583 269.007 119.935 269.489 119.935C270.022 119.935 270.454 119.503 270.454 118.97V116.352L270.601 113.964C270.634 113.43 270.223 112.973 269.689 112.949C269.232 112.928 268.874 113.228 268.718 113.581C268.65 113.735 268.589 113.818 268.546 113.858C268.526 113.876 268.513 113.883 268.508 113.885C268.505 113.886 268.503 113.886 268.5 113.886C268.376 113.886 268.181 113.84 267.903 113.7C267.516 113.507 267.042 113.318 266.484 113.132C265.911 112.931 265.225 112.837 264.436 112.837C263.307 112.837 262.239 113.095 261.238 113.612L261.238 113.612L261.234 113.614C260.26 114.133 259.464 114.864 258.849 115.801L258.849 115.801L258.847 115.804C258.25 116.732 257.962 117.845 257.962 119.123C257.962 120.631 258.381 121.901 259.247 122.899L259.247 122.899L259.252 122.905C260.129 123.878 261.392 124.669 263.013 125.292C263.013 125.292 263.013 125.292 263.014 125.292L264.656 125.93L264.656 125.93L264.66 125.931C266.003 126.438 267.021 127.01 267.733 127.637L267.733 127.637L267.739 127.642C268.448 128.241 268.785 128.953 268.785 129.8C268.785 130.825 268.444 131.587 267.786 132.139C267.114 132.703 266.208 133.004 265.03 133.004C263.943 133.004 263.001 132.734 262.189 132.202C261.355 131.656 260.699 130.985 260.214 130.19C259.755 129.385 259.503 128.593 259.447 127.812L259.431 127.534C259.402 127.044 258.996 126.662 258.505 126.662C258.006 126.662 257.596 127.057 257.579 127.556L257.46 130.921L257.314 133.332C257.28 133.885 257.72 134.352 258.274 134.352C258.735 134.352 259.106 134.03 259.219 133.616C259.241 133.538 259.259 133.48 259.274 133.438C259.281 133.42 259.286 133.408 259.289 133.401C259.29 133.401 259.29 133.402 259.291 133.402C259.327 133.412 259.378 133.429 259.447 133.457C259.584 133.512 259.771 133.598 260.01 133.717Z" fill="black" stroke="black" stroke-width="0.801121"/>
<path d="M234.426 144.885L234.411 144.89L234.397 144.895C233.986 145.06 233.355 145.206 232.484 145.326C232.483 145.326 232.483 145.327 232.482 145.327L232.238 145.357C231.762 145.417 231.405 145.821 231.405 146.3C231.405 146.835 231.845 147.264 232.379 147.251L237.423 147.128L242.466 147.251C243 147.264 243.44 146.835 243.44 146.3C243.44 145.821 243.083 145.417 242.607 145.357L242.364 145.327C242.363 145.327 242.362 145.326 242.361 145.326C241.491 145.206 240.841 145.059 240.395 144.892L240.388 144.89L240.381 144.887C240.086 144.789 239.837 144.539 239.679 144.011L239.679 144.011L239.677 144.006C239.514 143.492 239.422 142.573 239.422 141.206V135.081C239.422 134.663 239.691 134.292 240.122 134.073C240.555 133.852 241.08 133.826 241.487 134.034L241.487 134.035L241.495 134.039C242.619 134.584 243.852 134.854 245.186 134.854C247.085 134.854 248.777 134.363 250.249 133.373C251.738 132.391 252.91 131.076 253.762 129.437L253.763 129.434C254.616 127.762 255.04 125.919 255.04 123.914C255.04 121.85 254.617 119.977 253.763 118.303C252.913 116.635 251.758 115.304 250.298 114.321C248.857 113.33 247.21 112.837 245.369 112.837C243.938 112.837 242.624 113.155 241.436 113.797C240.957 114.049 240.501 114.338 240.067 114.662C239.938 114.759 239.741 114.772 239.562 114.685C239.385 114.598 239.312 114.462 239.325 114.332C239.4 113.606 238.763 113.016 238.05 113.127C237.131 113.27 236.238 113.387 235.371 113.478C234.39 113.581 233.375 113.64 232.325 113.655C231.82 113.662 231.405 114.071 231.405 114.584C231.405 115.099 231.821 115.498 232.313 115.519C232.898 115.544 233.411 115.614 233.855 115.725L233.864 115.727L233.874 115.729C234.375 115.829 234.733 116.083 234.977 116.498L234.984 116.51L234.992 116.522C235.256 116.905 235.424 117.594 235.424 118.667V141.206C235.424 142.573 235.331 143.492 235.168 144.006L235.168 144.006L235.167 144.011C235.012 144.528 234.755 144.782 234.426 144.885ZM241.696 115.86L241.696 115.86L241.699 115.859C242.604 115.293 243.641 115.007 244.821 115.007C246.137 115.007 247.176 115.39 247.973 116.132L247.973 116.132L247.978 116.136C248.83 116.902 249.481 117.948 249.92 119.293C250.361 120.645 250.585 122.184 250.585 123.914C250.585 125.613 250.362 127.136 249.92 128.488C249.482 129.801 248.832 130.831 247.981 131.598C247.152 132.315 246.094 132.684 244.775 132.684C243.599 132.684 242.531 132.385 241.56 131.786C240.835 131.338 240.252 130.859 239.805 130.35C239.544 130.053 239.422 129.64 239.422 129.186V118.62C239.422 118.086 239.599 117.586 239.947 117.238C240.471 116.713 241.054 116.254 241.696 115.86Z" fill="black" stroke="black" stroke-width="0.801121"/>
<path d="M223.438 116.119L223.447 116.125L223.456 116.131C223.691 116.28 223.896 116.548 224.044 116.992C224.193 117.438 224.275 118.037 224.275 118.804V128.432C224.275 129.793 224.183 130.731 224.019 131.279C223.867 131.757 223.611 132.028 223.263 132.16C222.842 132.3 222.204 132.432 221.335 132.551L221.089 132.582C220.613 132.642 220.256 133.046 220.256 133.526C220.256 134.06 220.696 134.489 221.23 134.476L226.274 134.353L231.318 134.476C231.851 134.489 232.291 134.06 232.291 133.526C232.291 133.046 231.934 132.642 231.458 132.582L231.212 132.551C230.349 132.432 229.695 132.301 229.24 132.16C228.928 132.031 228.682 131.763 228.529 131.279C228.365 130.731 228.273 129.793 228.273 128.432V116.676C228.273 114.765 226.559 113.357 224.699 113.529C224.545 113.543 224.391 113.556 224.238 113.568C223.252 113.62 222.232 113.65 221.179 113.657C220.671 113.66 220.256 114.072 220.256 114.584V114.789C220.256 115.187 220.579 115.509 220.976 115.509C222.087 115.509 222.892 115.729 223.438 116.119ZM223.546 107.609C224.088 108.258 224.83 108.574 225.726 108.574C226.691 108.574 227.471 108.271 227.964 107.593C228.448 106.969 228.684 106.228 228.684 105.39C228.684 104.529 228.451 103.783 227.961 103.183C227.467 102.508 226.689 102.206 225.726 102.206C224.832 102.206 224.091 102.521 223.549 103.167C223.021 103.768 222.768 104.519 222.768 105.39C222.768 106.238 223.025 106.984 223.546 107.609Z" fill="black" stroke="black" stroke-width="0.801121"/>
<path d="M197.635 103.48L197.644 103.487L197.653 103.492C197.888 103.642 198.093 103.91 198.242 104.353C198.39 104.8 198.472 105.399 198.472 106.166V128.431C198.472 129.793 198.38 130.73 198.216 131.279C198.064 131.757 197.808 132.028 197.46 132.16C197.039 132.299 196.401 132.431 195.532 132.551L195.286 132.582C194.811 132.641 194.453 133.046 194.453 133.525C194.453 134.059 194.893 134.489 195.427 134.476L200.471 134.353L205.515 134.476C206.049 134.489 206.489 134.059 206.489 133.525C206.489 133.046 206.132 132.641 205.656 132.582L205.41 132.551C204.546 132.432 203.892 132.301 203.437 132.16C203.125 132.031 202.88 131.763 202.726 131.279C202.562 130.73 202.47 129.793 202.47 128.431V119.832C202.47 119.531 202.524 119.25 202.646 119.009C202.895 118.515 203.233 117.997 203.662 117.456C204.205 116.771 204.893 116.196 205.733 115.733L205.734 115.733L205.743 115.728C206.56 115.249 207.478 115.007 208.508 115.007C209.86 115.007 210.856 115.392 211.554 116.116L211.554 116.117L211.559 116.122C212.252 116.814 212.629 117.852 212.629 119.306V128.431C212.629 129.793 212.537 130.73 212.373 131.279C212.221 131.757 211.965 132.028 211.617 132.16C211.196 132.299 210.558 132.431 209.689 132.551L209.443 132.582C208.967 132.641 208.61 133.046 208.61 133.525C208.61 134.059 209.05 134.489 209.584 134.476L214.628 134.353L219.672 134.476C220.205 134.489 220.645 134.059 220.645 133.525C220.645 133.046 220.288 132.641 219.813 132.582L219.566 132.551C218.703 132.432 218.049 132.301 217.594 132.16C217.282 132.031 217.036 131.763 216.883 131.279C216.719 130.73 216.627 129.793 216.627 128.431V119.306C216.627 117.272 215.987 115.66 214.663 114.533C213.383 113.387 211.65 112.837 209.513 112.837C207.742 112.837 206.175 113.264 204.824 114.131C204.446 114.363 203.85 114.366 203.318 114.14C202.78 113.911 202.47 113.526 202.47 113.139V104.038C202.47 102.126 200.757 100.719 198.896 100.89C198.742 100.904 198.588 100.918 198.435 100.93C197.45 100.981 196.43 101.011 195.376 101.018C194.868 101.022 194.453 101.434 194.453 101.945V102.15C194.453 102.548 194.776 102.871 195.174 102.871C196.285 102.871 197.089 103.091 197.635 103.48Z" fill="black" stroke="black" stroke-width="0.801121"/>
<path d="M182.583 133.717L182.583 133.717L182.593 133.722C183.073 133.945 183.715 134.179 184.512 134.425C185.385 134.715 186.418 134.854 187.603 134.854C189.755 134.854 191.459 134.219 192.65 132.897C193.811 131.608 194.397 130.098 194.397 128.385C194.397 126.944 194.011 125.687 193.225 124.637C192.457 123.54 191.093 122.653 189.207 121.943C189.206 121.943 189.206 121.943 189.205 121.942L187.429 121.26C187.428 121.259 187.428 121.259 187.428 121.259C186.209 120.784 185.264 120.258 184.578 119.688C183.965 119.126 183.665 118.444 183.665 117.618C183.665 116.749 183.959 116.051 184.542 115.492C185.164 114.927 185.917 114.642 186.827 114.642C188.142 114.642 189.111 115.123 189.789 116.071L189.789 116.071L189.792 116.076C190.428 116.941 190.866 117.957 191.1 119.133C191.189 119.583 191.58 119.935 192.062 119.935C192.595 119.935 193.027 119.503 193.027 118.97V116.352L193.174 113.964C193.207 113.43 192.796 112.973 192.262 112.949C191.805 112.928 191.448 113.228 191.291 113.581C191.224 113.735 191.162 113.818 191.119 113.858C191.099 113.876 191.086 113.883 191.082 113.885C191.078 113.886 191.076 113.886 191.074 113.886C190.949 113.886 190.755 113.84 190.476 113.7C190.089 113.507 189.615 113.318 189.057 113.132C188.484 112.931 187.798 112.837 187.009 112.837C185.88 112.837 184.812 113.095 183.812 113.612L183.812 113.612L183.807 113.614C182.833 114.133 182.037 114.864 181.423 115.801L181.423 115.801L181.421 115.804C180.823 116.732 180.535 117.845 180.535 119.123C180.535 120.631 180.954 121.901 181.82 122.899L181.82 122.899L181.825 122.905C182.702 123.878 183.966 124.669 185.586 125.292C185.586 125.292 185.587 125.292 185.587 125.292L187.229 125.93L187.229 125.93L187.233 125.931C188.576 126.438 189.594 127.01 190.307 127.637L190.307 127.637L190.313 127.642C191.021 128.241 191.358 128.953 191.358 129.8C191.358 130.825 191.017 131.587 190.359 132.139C189.687 132.703 188.782 133.004 187.603 133.004C186.516 133.004 185.574 132.734 184.763 132.202C183.928 131.656 183.272 130.985 182.788 130.19C182.328 129.385 182.076 128.593 182.02 127.812L182.004 127.534C181.975 127.044 181.569 126.662 181.078 126.662C180.579 126.662 180.17 127.057 180.152 127.556L180.033 130.921L179.887 133.332C179.853 133.885 180.293 134.352 180.847 134.352C181.308 134.352 181.679 134.03 181.792 133.616C181.814 133.538 181.832 133.48 181.847 133.438C181.854 133.42 181.859 133.408 181.862 133.401C181.863 133.401 181.864 133.402 181.864 133.402C181.9 133.412 181.951 133.429 182.02 133.457C182.157 133.512 182.344 133.598 182.583 133.717Z" fill="black" stroke="black" stroke-width="0.801121"/>
<path d="M156.192 116.119L156.201 116.125L156.21 116.131C156.444 116.28 156.65 116.548 156.798 116.992C156.947 117.438 157.029 118.037 157.029 118.804V128.431C157.029 129.793 156.937 130.73 156.773 131.279C156.621 131.756 156.365 132.027 156.017 132.16C155.596 132.299 154.958 132.431 154.089 132.551L153.843 132.582C153.367 132.641 153.01 133.046 153.01 133.525C153.01 134.059 153.45 134.489 153.984 134.476L159.028 134.353L164.071 134.476C164.605 134.489 165.045 134.059 165.045 133.525C165.045 133.046 164.688 132.641 164.212 132.582L163.966 132.551C163.103 132.432 162.449 132.3 161.994 132.16C161.682 132.03 161.436 131.763 161.283 131.279C161.119 130.73 161.027 129.793 161.027 128.431V119.831C161.027 119.53 161.081 119.249 161.202 119.009C161.452 118.515 161.79 117.997 162.219 117.456C162.761 116.771 163.45 116.196 164.29 115.733L164.29 115.733L164.299 115.728C165.116 115.249 166.035 115.007 167.065 115.007C168.417 115.007 169.412 115.392 170.11 116.116L170.11 116.116L170.116 116.122C170.808 116.814 171.186 117.852 171.186 119.306V128.431C171.186 129.793 171.093 130.73 170.929 131.279C170.778 131.756 170.521 132.027 170.174 132.16C169.753 132.299 169.115 132.431 168.246 132.551L168 132.582C167.524 132.641 167.167 133.046 167.167 133.525C167.167 134.059 167.607 134.489 168.141 134.476L173.184 134.353L178.228 134.476C178.762 134.489 179.202 134.059 179.202 133.525C179.202 133.046 178.845 132.641 178.369 132.582L178.123 132.551C177.26 132.432 176.606 132.3 176.151 132.16C175.838 132.03 175.593 131.763 175.44 131.279C175.275 130.73 175.183 129.793 175.183 128.431V119.306C175.183 117.272 174.544 115.659 173.219 114.533C171.939 113.387 170.206 112.837 168.07 112.837C166.299 112.837 164.731 113.264 163.381 114.131C162.971 114.384 162.588 114.651 162.233 114.931C162.052 115.074 161.747 115.107 161.457 114.995C161.167 114.883 161.027 114.684 161.027 114.496C161.027 113.731 160.34 113.16 159.595 113.27C158.702 113.402 157.834 113.501 156.992 113.568C156.006 113.62 154.986 113.649 153.933 113.656C153.425 113.66 153.01 114.072 153.01 114.584V114.789C153.01 115.186 153.333 115.509 153.73 115.509C154.841 115.509 155.646 115.729 156.192 116.119Z" fill="black" stroke="black" stroke-width="0.801121"/>
<path d="M135.403 133.384L135.406 133.385C137.083 134.366 138.934 134.854 140.951 134.854C142.996 134.854 144.849 134.366 146.499 133.384C148.14 132.406 149.437 131.095 150.385 129.454C151.366 127.778 151.855 125.928 151.855 123.914C151.855 121.842 151.367 119.962 150.385 118.285C149.438 116.614 148.141 115.286 146.499 114.308C144.849 113.325 142.996 112.837 140.951 112.837C138.934 112.837 137.083 113.326 135.406 114.306L135.406 114.306L135.403 114.308C133.761 115.286 132.449 116.613 131.472 118.282L131.472 118.282L131.469 118.287C130.518 119.964 130.047 121.843 130.047 123.914C130.047 125.926 130.52 127.774 131.469 129.45L131.469 129.45L131.473 129.458C132.451 131.097 133.762 132.407 135.403 133.384ZM144.665 115.961L144.665 115.961L144.67 115.966C145.606 116.731 146.297 117.786 146.734 119.154C147.176 120.537 147.4 122.122 147.4 123.914C147.4 125.644 147.176 127.198 146.735 128.582C146.298 129.917 145.607 130.976 144.667 131.773C143.752 132.521 142.526 132.913 140.951 132.913C139.375 132.913 138.149 132.521 137.234 131.773C136.294 130.976 135.603 129.917 135.167 128.582C134.725 127.198 134.501 125.644 134.501 123.914C134.501 122.122 134.725 120.537 135.167 119.154C135.604 117.786 136.295 116.731 137.231 115.966L137.231 115.966L137.237 115.961C138.152 115.185 139.377 114.779 140.951 114.779C142.524 114.779 143.749 115.185 144.665 115.961Z" fill="black" stroke="black" stroke-width="0.801121"/>
<path d="M120.847 116.119L120.855 116.125L120.865 116.131C121.099 116.28 121.305 116.548 121.453 116.992C121.602 117.438 121.684 118.037 121.684 118.804V128.432C121.684 129.793 121.591 130.731 121.427 131.279C121.276 131.757 121.019 132.028 120.672 132.16C120.251 132.3 119.613 132.432 118.744 132.551L118.498 132.582C118.022 132.642 117.665 133.046 117.665 133.526C117.665 134.06 118.105 134.489 118.639 134.476L123.682 134.353L128.726 134.476C129.26 134.489 129.7 134.06 129.7 133.526C129.7 133.046 129.343 132.642 128.867 132.582L128.621 132.551C127.758 132.432 127.104 132.301 126.649 132.16C126.336 132.031 126.091 131.763 125.938 131.279C125.774 130.731 125.681 129.793 125.681 128.432V116.676C125.681 114.765 123.968 113.357 122.108 113.529C121.953 113.543 121.8 113.556 121.647 113.568C120.661 113.62 119.641 113.65 118.587 113.657C118.079 113.66 117.665 114.072 117.665 114.584V114.789C117.665 115.187 117.987 115.509 118.385 115.509C119.496 115.509 120.301 115.729 120.847 116.119ZM120.955 107.609C121.496 108.258 122.239 108.574 123.134 108.574C124.1 108.574 124.879 108.271 125.373 107.593C125.856 106.969 126.092 106.228 126.092 105.39C126.092 104.529 125.86 103.783 125.37 103.183C124.876 102.508 124.098 102.206 123.134 102.206C122.241 102.206 121.5 102.521 120.958 103.167C120.43 103.768 120.177 104.519 120.177 105.39C120.177 106.238 120.434 106.984 120.955 107.609Z" fill="black" stroke="black" stroke-width="0.801121"/>
<path d="M108.516 133.414L108.516 133.414L108.526 133.424C109.555 134.386 110.876 134.855 112.453 134.855C113.227 134.855 113.96 134.726 114.647 134.465C115.383 134.197 116.03 133.746 116.587 133.124L116.588 133.123C116.845 132.834 117.099 132.501 117.35 132.124C117.534 131.859 117.698 131.582 117.842 131.291C118.086 130.802 117.852 130.247 117.401 130.022C116.91 129.777 116.334 129.983 116.076 130.438C115.767 130.986 115.434 131.457 115.08 131.857C114.678 132.281 114.15 132.502 113.457 132.502C112.621 132.502 112.046 132.214 111.661 131.668C111.258 131.097 111.026 130.191 111.026 128.888V117.87C111.026 116.617 112.043 115.6 113.296 115.6H115.901C116.437 115.6 116.872 115.166 116.872 114.629C116.872 114.093 116.437 113.659 115.901 113.659H113.296C112.043 113.659 111.026 112.642 111.026 111.389V109.17C111.026 108.6 110.564 108.138 109.995 108.138C109.471 108.138 109.045 108.526 108.963 109.023L109.358 109.089L108.963 109.023C108.734 110.397 108.336 111.458 107.788 112.23L107.788 112.23L107.786 112.232C107.225 113.033 106.399 113.485 105.254 113.568L105.253 113.568L104.568 113.619C104.05 113.657 103.649 114.089 103.649 114.608C103.649 115.156 104.093 115.6 104.641 115.6H105.739C106.451 115.6 107.029 116.177 107.029 116.889V128.705C107.029 130.79 107.494 132.393 108.516 133.414Z" fill="black" stroke="black" stroke-width="0.801121"/>
<path d="M85.1111 133.671L85.111 133.671L85.1223 133.679C86.1788 134.471 87.4857 134.854 89.0158 134.854C90.6342 134.854 92.1326 134.473 93.5036 133.709C93.9093 133.482 94.2943 133.227 94.6583 132.942C94.9097 132.745 95.3717 132.683 95.894 132.812C96.4111 132.94 96.8456 133.221 97.0318 133.523L97.0366 133.531L97.0417 133.539C97.664 134.453 98.751 134.854 100.159 134.854C101.312 134.854 102.268 134.583 102.972 133.987C103.574 133.498 104.014 132.866 104.294 132.101C104.455 131.661 104.206 131.214 103.81 131.06C103.338 130.877 102.877 131.149 102.68 131.508C102.575 131.701 102.433 131.889 102.25 132.072C101.987 132.334 101.692 132.456 101.346 132.456C101.068 132.456 100.872 132.385 100.728 132.27C100.582 132.154 100.453 131.962 100.363 131.657C100.193 130.974 100.102 129.981 100.102 128.659V120.447C100.102 117.847 99.5316 115.878 98.2953 114.642C97.0621 113.41 95.1558 112.837 92.6692 112.837C91.5079 112.837 90.3047 112.994 89.0603 113.304C87.7955 113.589 86.7056 114.083 85.8009 114.793C84.876 115.512 84.4139 116.498 84.4139 117.709C84.4139 118.379 84.6288 118.975 85.0584 119.475L85.0632 119.481L85.0682 119.486C85.5109 119.966 86.075 120.208 86.7325 120.208C87.3846 120.208 87.9613 120.035 88.4379 119.669L88.4379 119.669L88.4411 119.667C88.9713 119.25 89.2337 118.674 89.2337 117.983C89.2337 117.594 89.1766 117.214 89.062 116.846C89.0317 116.749 89.0037 116.654 88.9746 116.554C88.9615 116.51 88.9482 116.464 88.9343 116.417L88.5503 116.531L88.9343 116.417C88.9226 116.378 88.9117 116.342 88.9016 116.309C88.8639 116.186 88.8382 116.102 88.8295 116.013C88.8248 115.965 88.8227 115.923 88.8227 115.884C88.8227 115.697 88.8821 115.557 89.0021 115.437C89.1325 115.307 89.356 115.181 89.7135 115.084C90.4711 114.881 91.2428 114.779 92.0298 114.779C93.7254 114.779 94.7311 115.183 95.2244 115.849L95.2243 115.849L95.2301 115.856C95.7902 116.576 96.1046 117.717 96.1046 119.351C96.1046 120.067 95.6662 120.711 94.9992 120.98C94.475 121.19 93.9065 121.422 93.2936 121.673C92.0911 122.166 90.89 122.75 89.6902 123.426C88.085 124.29 86.6749 125.265 85.4625 126.352C84.2062 127.447 83.5462 128.736 83.5462 130.211C83.5462 131.656 84.0623 132.826 85.1111 133.671ZM92.8046 131.771L92.8046 131.771L92.7991 131.774C92.0647 132.169 91.2926 132.365 90.4771 132.365C89.5729 132.365 88.9421 132.141 88.5227 131.752C88.1244 131.324 87.9094 130.748 87.9094 129.982C87.9094 129.123 88.1575 128.335 88.66 127.61L88.6601 127.61L88.664 127.604C89.1853 126.823 89.8699 126.093 90.7233 125.416C91.6179 124.731 92.5724 124.121 93.5871 123.584L93.5871 123.584L93.5908 123.582C94.7362 122.961 96.1046 123.811 96.1046 125.176V127.871C96.1046 128.166 96.053 128.441 95.9361 128.677C95.6635 129.226 95.2998 129.753 94.842 130.257C94.2659 130.861 93.5877 131.365 92.8046 131.771Z" fill="black" stroke="black" stroke-width="0.801121"/>
<path d="M73.8809 103.48L73.8897 103.487L73.8987 103.492C74.1335 103.642 74.3391 103.91 74.4872 104.353C74.636 104.8 74.7177 105.399 74.7177 106.166V128.431C74.7177 129.793 74.6256 130.73 74.4615 131.279C74.3099 131.757 74.0536 132.028 73.7057 132.16C73.2847 132.299 72.6471 132.431 71.7781 132.551L71.5319 132.582C71.0561 132.641 70.699 133.046 70.699 133.525C70.699 134.059 71.1389 134.489 71.6729 134.476L76.7166 134.353L81.7604 134.476C82.2943 134.489 82.7342 134.059 82.7342 133.525C82.7342 133.046 82.3772 132.641 81.9014 132.582L81.6552 132.551C80.7918 132.432 80.138 132.301 79.6831 132.16C79.3706 132.031 79.1254 131.763 78.9718 131.279C78.8077 130.73 78.7156 129.793 78.7156 128.431V104.038C78.7156 102.126 77.0023 100.719 75.142 100.89C74.9875 100.904 74.8338 100.918 74.681 100.93C73.6952 100.981 72.6754 101.011 71.6216 101.018C71.1135 101.022 70.699 101.434 70.699 101.945V102.15C70.699 102.548 71.0215 102.871 71.4193 102.871C72.5303 102.871 73.3348 103.091 73.8809 103.48Z" fill="black" stroke="black" stroke-width="0.801121"/>
<path d="M56.6207 133.521L56.6207 133.521L56.626 133.524C58.1878 134.416 60.0092 134.854 62.0762 134.854C64.105 134.854 65.8322 134.407 67.234 133.487C68.6375 132.566 69.6833 131.192 70.3823 129.394C70.5842 128.874 70.3041 128.314 69.805 128.127C69.2863 127.933 68.731 128.199 68.5156 128.678C67.9486 129.939 67.1977 130.898 66.2708 131.574C65.2473 132.313 64.0672 132.684 62.7156 132.684C61.2707 132.684 60.0666 132.297 59.0806 131.538C58.1096 130.766 57.3745 129.735 56.8801 128.428C56.3806 127.077 56.1291 125.619 56.1291 124.051C56.1291 123.57 56.5346 123.174 57.0528 123.174H69.0549C69.5328 123.174 69.988 122.852 70.0544 122.321C70.0877 122.056 70.1032 121.733 70.1032 121.359C70.1032 118.85 69.4108 116.786 67.9927 115.207C66.5937 113.615 64.6488 112.837 62.2133 112.837C60.2823 112.837 58.5038 113.344 56.8867 114.358C55.3026 115.339 54.0385 116.699 53.0944 118.428C52.1442 120.137 51.6746 122.092 51.6746 124.279C51.6746 126.313 52.098 128.143 52.9543 129.759L52.9542 129.759L52.9588 129.768C53.8456 131.35 55.0677 132.603 56.6207 133.521ZM65.8829 119.885L65.8828 119.885L65.8786 119.893C65.6939 120.239 65.2976 120.585 64.6074 120.902C63.9828 121.172 63.0145 121.323 61.6653 121.323H58.8449C58.1665 121.323 57.5607 121.023 57.1834 120.576C56.8109 120.134 56.6623 119.554 56.8727 118.95C57.1836 118.058 57.5933 117.287 58.0987 116.633C59.0796 115.402 60.4344 114.779 62.2133 114.779C63.2406 114.779 64.171 115.123 65.0166 115.827C65.8263 116.501 66.2424 117.431 66.2424 118.667C66.2424 119.041 66.1306 119.445 65.8829 119.885Z" fill="black" stroke="black" stroke-width="0.801121"/>
<path d="M44.3365 114.163C43.661 114.733 43.0697 115.555 42.5537 116.613L42.5774 116.366C42.7399 114.668 41.2709 113.295 39.6018 113.454C39.3352 113.479 39.0709 113.502 38.8091 113.523C37.8248 113.6 36.8063 113.645 35.7535 113.656C35.2469 113.661 34.8323 114.071 34.8323 114.584C34.8323 115.099 35.2478 115.498 35.7403 115.519C36.325 115.544 36.8381 115.614 37.2822 115.725L37.2914 115.727L37.3008 115.729C37.7933 115.828 38.1512 116.089 38.3992 116.535L38.4032 116.542L38.4076 116.549C38.6834 117 38.851 117.775 38.851 118.941V128.431C38.851 129.793 38.7589 130.73 38.5948 131.279C38.4432 131.756 38.187 132.027 37.839 132.16C37.418 132.299 36.7804 132.431 35.9114 132.551L35.6652 132.582C35.1894 132.641 34.8323 133.046 34.8323 133.525C34.8323 134.059 35.2722 134.489 35.8062 134.476L40.8499 134.353L45.8937 134.476C46.4276 134.489 46.8675 134.059 46.8675 133.525C46.8675 133.046 46.5105 132.641 46.0347 132.582L45.7885 132.551C44.9252 132.432 44.2713 132.3 43.8164 132.16C43.5039 132.03 43.2586 131.763 43.1051 131.279C42.941 130.73 42.8488 129.793 42.8488 128.431V121.468C42.8488 121.328 42.8612 121.191 42.8875 121.059C43.0296 120.346 43.2074 119.684 43.4202 119.073C43.6597 118.385 43.913 117.76 44.1799 117.197C44.4962 116.536 44.86 116.039 45.2631 115.689C45.7091 115.328 46.0771 115.189 46.3756 115.189C46.4597 115.189 46.5205 115.197 46.5626 115.207C46.5884 115.213 46.6044 115.22 46.6133 115.224C46.6139 115.229 46.6144 115.236 46.6144 115.245C46.6144 115.331 46.5856 115.494 46.498 115.757L46.4915 115.777L46.487 115.797C46.4192 116.102 46.3861 116.42 46.3861 116.751C46.3861 117.276 46.6145 117.729 47.0197 118.097C47.4539 118.491 48.0524 118.657 48.7503 118.657C49.5129 118.657 50.1587 118.41 50.6421 117.89C51.1171 117.379 51.3429 116.729 51.3429 115.975C51.3429 115.296 51.0919 114.625 50.6336 113.969C50.0934 113.164 49.0659 112.837 47.7456 112.837C46.5123 112.837 45.3729 113.29 44.3365 114.163Z" fill="black" stroke="black" stroke-width="0.801121"/>
<path d="M229.898 64.4335C229.223 65.0029 228.631 65.8254 228.115 66.8832L228.139 66.6363C228.301 64.9383 226.832 63.5651 225.163 63.7239C224.897 63.7493 224.632 63.7723 224.371 63.7929C223.386 63.8706 222.368 63.9149 221.315 63.9259C220.808 63.9312 220.394 64.3417 220.394 64.8538C220.394 65.3694 220.809 65.7685 221.302 65.7897C221.887 65.8148 222.4 65.8844 222.844 65.9953L222.853 65.9976L222.862 65.9995C223.355 66.0979 223.713 66.3592 223.961 66.8051L223.965 66.8124L223.969 66.8195C224.245 67.2704 224.413 68.0454 224.413 69.2112V78.7014C224.413 80.0632 224.32 81.0005 224.156 81.5492C224.005 82.0268 223.748 82.2977 223.401 82.4302C222.98 82.5695 222.342 82.7015 221.473 82.8213L221.227 82.852C220.751 82.9115 220.394 83.3159 220.394 83.7954C220.394 84.3295 220.834 84.7588 221.368 84.7458L226.411 84.6229L231.455 84.7458C231.989 84.7588 232.429 84.3295 232.429 83.7954C232.429 83.3159 232.072 82.9115 231.596 82.852L231.35 82.8213C230.487 82.7023 229.833 82.5707 229.378 82.4303C229.065 82.3007 228.82 82.0331 228.667 81.5492C228.503 81.0005 228.41 80.0632 228.41 78.7014V71.7379C228.41 71.5981 228.423 71.4615 228.449 71.3298L228.056 71.2515L228.449 71.3298C228.591 70.6163 228.769 69.9542 228.982 69.3429C229.221 68.6551 229.475 68.0301 229.741 67.4673C230.058 66.8066 230.422 66.3097 230.825 65.9593C231.271 65.5983 231.639 65.4597 231.937 65.4597C232.021 65.4597 232.082 65.4673 232.124 65.4774C232.15 65.4835 232.166 65.4899 232.175 65.4942C232.175 65.4992 232.176 65.5062 232.176 65.5154C232.176 65.6015 232.147 65.7648 232.06 66.0274L232.053 66.047L232.048 66.0672C231.981 66.3718 231.948 66.6901 231.948 67.0211C231.948 67.5462 232.176 67.999 232.581 68.367C233.015 68.7614 233.614 68.9273 234.312 68.9273C235.074 68.9273 235.72 68.6808 236.204 68.1607C236.679 67.6496 236.904 66.9994 236.904 66.2455C236.904 65.5659 236.653 64.8952 236.195 64.2398C235.655 63.4341 234.627 63.1073 233.307 63.1073C232.074 63.1073 230.934 63.5598 229.898 64.4335Z" fill="black" stroke="black" stroke-width="0.801121"/>
<path d="M202.786 83.6539L202.789 83.6555C204.467 84.6359 206.318 85.1247 208.334 85.1247C210.38 85.1247 212.233 84.6365 213.882 83.6539C215.523 82.6764 216.821 81.3651 217.768 79.7241C218.749 78.0482 219.238 76.1988 219.238 74.1844C219.238 72.1122 218.751 70.2324 217.769 68.5549C216.822 66.8838 215.525 65.5564 213.882 64.5782C212.233 63.5955 210.38 63.1073 208.334 63.1073C206.318 63.1073 204.467 63.5961 202.789 64.5765L202.789 64.5764L202.786 64.5782C201.144 65.5562 199.833 66.8829 198.855 68.5525L198.855 68.5525L198.853 68.5575C197.902 70.2348 197.43 72.1136 197.43 74.1844C197.43 76.1967 197.903 78.0447 198.853 79.7202L198.852 79.7202L198.857 79.728C199.835 81.3668 201.146 82.6769 202.786 83.6539ZM212.048 66.2316L212.048 66.2317L212.054 66.2362C212.99 67.0011 213.681 68.0567 214.118 69.4243C214.56 70.8071 214.784 72.3921 214.784 74.1844C214.784 75.9139 214.56 77.4684 214.118 78.8521C213.682 80.1875 212.991 81.2459 212.051 82.0437C211.136 82.7908 209.91 83.1829 208.334 83.1829C206.759 83.1829 205.533 82.7908 204.618 82.0437C203.678 81.2459 202.987 80.1874 202.551 78.8521C202.109 77.4684 201.885 75.9138 201.885 74.1844C201.885 72.3921 202.109 70.8071 202.551 69.4243C202.988 68.0567 203.679 67.0011 204.615 66.2362L204.615 66.2362L204.62 66.2316C205.536 65.4553 206.761 65.0491 208.334 65.0491C209.908 65.0491 211.133 65.4553 212.048 66.2316Z" fill="black" stroke="black" stroke-width="0.801121"/>
<path d="M189.269 52.7762L189.269 52.7762L189.266 52.7798C187.941 54.1361 187.325 56.2856 187.325 59.1279V62.3656C187.325 63.2289 186.625 63.9288 185.762 63.9288H184.369C183.832 63.9288 183.398 64.3634 183.398 64.8997C183.398 65.4359 183.832 65.8705 184.369 65.8705H185.762C186.625 65.8705 187.325 66.5704 187.325 67.4337V78.7016C187.325 80.0634 187.233 81.0007 187.069 81.5494C186.917 82.027 186.661 82.2978 186.313 82.4304C185.892 82.5697 185.255 82.7016 184.385 82.8215L184.139 82.8522C183.664 82.9117 183.306 83.3161 183.306 83.7956C183.306 84.3297 183.746 84.759 184.28 84.746L189.324 84.6231L194.368 84.746C194.902 84.759 195.342 84.3297 195.342 83.7956C195.342 83.3161 194.985 82.9117 194.509 82.8522L194.263 82.8215C193.399 82.7024 192.745 82.5709 192.29 82.4305C191.978 82.3009 191.733 82.0333 191.579 81.5494C191.415 81.0007 191.323 80.0634 191.323 78.7016V67.8218C191.323 66.7442 192.197 65.8705 193.274 65.8705H195.056C195.592 65.8705 196.027 65.4359 196.027 64.8997C196.027 64.3634 195.592 63.9288 195.056 63.9288H193.274C192.197 63.9288 191.323 63.0551 191.323 61.9775V59.1279C191.323 57.9023 191.413 56.7872 191.59 55.7813C191.792 54.8066 192.158 54.0623 192.67 53.5219C193.181 53.0138 193.947 52.7302 195.032 52.7302C195.364 52.7302 195.663 52.8058 195.937 52.9551L195.95 52.962L195.963 52.9681C196.068 53.016 196.127 53.0728 196.163 53.1317C196.201 53.1926 196.23 53.2836 196.23 53.4246C196.23 53.5063 196.203 53.6514 196.119 53.877L196.116 53.884L196.114 53.891C196.051 54.0798 195.988 54.2831 195.926 54.5008C195.852 54.7601 195.819 55.058 195.819 55.3866C195.819 55.985 196.048 56.5206 196.474 56.9815L196.479 56.9874L196.485 56.9931C196.958 57.4664 197.549 57.7034 198.229 57.7034C198.934 57.7034 199.55 57.471 200.054 57.0034L200.055 57.0027C200.613 56.482 200.867 55.7551 200.867 54.8847C200.867 53.5298 200.278 52.4855 199.121 51.804C198.008 51.1183 196.637 50.7884 195.032 50.7884C192.561 50.7884 190.617 51.4301 189.269 52.7762Z" fill="black" stroke="black" stroke-width="0.801121"/>
<path d="M156.773 83.7709L156.773 83.771L156.779 83.774C158.341 84.6657 160.162 85.1042 162.229 85.1042C164.258 85.1042 165.985 84.6571 167.387 83.7373C168.79 82.8164 169.836 81.4423 170.535 79.6437C170.737 79.1242 170.457 78.5642 169.958 78.3772C169.439 78.1828 168.884 78.4485 168.668 78.9276C168.101 80.189 167.351 81.1483 166.424 81.8244C165.4 82.5626 164.22 82.9343 162.868 82.9343C161.424 82.9343 160.219 82.5466 159.234 81.7875C158.262 81.0163 157.527 79.9845 157.033 78.6776C156.533 77.3267 156.282 75.8689 156.282 74.3009C156.282 73.8202 156.687 73.4239 157.206 73.4239H169.208C169.686 73.4239 170.141 73.1018 170.207 72.5712C170.24 72.3055 170.256 71.9834 170.256 71.6089C170.256 69.0998 169.564 67.0358 168.146 65.4571C166.747 63.8653 164.802 63.0869 162.366 63.0869C160.435 63.0869 158.657 63.594 157.04 64.6075C155.455 65.589 154.191 66.9492 153.247 68.678C152.297 70.3873 151.827 72.3414 151.827 74.529C151.827 76.5632 152.251 78.3932 153.107 80.0092L153.107 80.0093L153.112 80.0175C153.998 81.5996 155.221 82.8527 156.773 83.7709ZM166.036 70.1349L166.036 70.1348L166.031 70.1428C165.847 70.4887 165.45 70.8352 164.76 71.1518C164.136 71.4221 163.167 71.5734 161.818 71.5734H158.998C158.319 71.5734 157.713 71.2733 157.336 70.8258C156.964 70.384 156.815 69.8037 157.026 69.1998C157.336 68.3077 157.746 67.537 158.252 66.8829C159.232 65.6522 160.587 65.0286 162.366 65.0286C163.393 65.0286 164.324 65.3725 165.169 66.0766C165.979 66.7507 166.395 67.6807 166.395 68.917C166.395 69.2905 166.283 69.6948 166.036 70.1349Z" fill="black" stroke="black" stroke-width="0.801121"/>
<path d="M149.236 69.5199L149.236 69.5197C148.734 70.0215 148.114 70.2757 147.4 70.2757C146.531 70.2757 145.81 70.0225 145.317 69.4532C144.878 68.948 144.625 68.4022 144.625 67.8219C144.625 67.6553 144.632 67.4988 144.646 67.3529C144.663 67.1723 144.711 67.0042 144.749 66.8718C144.754 66.8524 144.76 66.8333 144.765 66.8145C144.765 66.8145 144.765 66.8145 144.765 66.8145L149.236 69.5199ZM149.236 69.5199L149.246 69.5098M149.236 69.5199L149.246 69.5098M149.246 69.5098C149.746 68.9737 149.993 68.3109 149.993 67.5482C149.993 66.5383 149.568 65.6847 148.756 65.0074C148.006 64.357 147.086 63.8767 146.006 63.5594C144.938 63.2456 143.895 63.0869 142.879 63.0869C140.774 63.0869 138.875 63.5899 137.195 64.603C135.519 65.5827 134.191 66.9424 133.214 68.6745C132.233 70.4139 131.747 72.3841 131.747 74.5746C131.747 76.5794 132.171 78.3801 133.028 79.9665C133.886 81.5536 135.111 82.8086 136.696 83.7271C138.288 84.6499 140.141 85.1042 142.24 85.1042C144.044 85.1042 145.726 84.6606 147.279 83.774L147.279 83.774L147.284 83.7709C148.748 82.9057 149.782 81.5035 150.406 79.6101C150.577 79.0936 150.279 78.5635 149.787 78.3999C149.254 78.2224 148.706 78.5261 148.525 79.0242C148.024 80.397 147.299 81.356 146.368 81.9447C145.27 82.6074 144.125 82.9343 142.925 82.9343C141.448 82.9343 140.229 82.5455 139.244 81.7875C138.271 81.0146 137.519 79.9798 136.995 78.669C136.467 77.3518 136.201 75.9124 136.201 74.3465C136.201 71.4825 136.828 69.2311 138.043 67.5551L138.043 67.5551L138.045 67.5525C139.252 65.8591 140.837 65.0286 142.834 65.0286C143.248 65.0286 143.747 65.098 144.335 65.2448L144.346 65.2476L144.357 65.2497C144.642 65.304 144.805 65.3839 144.891 65.457C144.96 65.5168 144.99 65.58 144.99 65.6775C144.99 65.8355 144.977 65.9938 144.951 66.1526C144.939 66.2131 144.924 66.2739 144.905 66.3351L145.289 66.4497L149.246 69.5098Z" fill="black" stroke="black" stroke-width="0.801121"/>
<path d="M112.525 83.9206L112.525 83.9208L112.536 83.9292C113.592 84.7209 114.899 85.1042 116.429 85.1042C118.048 85.1042 119.546 84.723 120.917 83.9585C121.323 83.7323 121.708 83.4766 122.072 83.1915C122.323 82.9946 122.785 82.9334 123.308 83.0623C123.825 83.1899 124.259 83.4709 124.445 83.7731L124.45 83.7809L124.455 83.7884C125.078 84.7028 126.165 85.1042 127.572 85.1042C128.726 85.1042 129.681 84.8324 130.385 84.2365C130.987 83.7483 131.427 83.1157 131.707 82.3505C131.868 81.9109 131.62 81.4639 131.223 81.31C130.751 81.1265 130.29 81.3985 130.094 81.7582C129.989 81.9508 129.847 82.1388 129.664 82.3215C129.401 82.5841 129.106 82.7062 128.759 82.7062C128.482 82.7062 128.286 82.6352 128.142 82.5201C127.996 82.4035 127.866 82.2121 127.776 81.9068C127.607 81.2243 127.516 80.2309 127.516 78.9091V70.6964C127.516 68.0968 126.945 66.1274 125.709 64.8922C124.476 63.6602 122.569 63.0869 120.083 63.0869C118.922 63.0869 117.718 63.2435 116.474 63.5539C115.209 63.8389 114.119 64.3324 113.214 65.0424C112.29 65.7615 111.827 66.7479 111.827 67.9588C111.827 68.6293 112.042 69.2245 112.472 69.7253L112.477 69.7309L112.482 69.7363C112.924 70.2155 113.489 70.4582 114.146 70.4582C114.798 70.4582 115.375 70.2852 115.851 69.919L115.851 69.919L115.855 69.9164C116.385 69.5002 116.647 68.924 116.647 68.2326C116.647 67.8435 116.59 67.4642 116.476 67.0963C116.445 66.999 116.417 66.9036 116.388 66.8044C116.375 66.7597 116.362 66.7141 116.348 66.6673C116.336 66.6278 116.325 66.5919 116.315 66.5588C116.278 66.4357 116.252 66.3516 116.243 66.2626C116.238 66.2153 116.236 66.1724 116.236 66.1338C116.236 65.9472 116.296 65.807 116.416 65.6871C116.546 65.5568 116.77 65.4304 117.127 65.3343C117.885 65.1305 118.656 65.0286 119.443 65.0286C121.139 65.0286 122.145 65.4332 122.638 66.0986L122.638 66.0986L122.644 66.1061C123.204 66.8256 123.518 67.9673 123.518 69.6014C123.518 70.3169 123.08 70.9611 122.413 71.2295C121.889 71.4404 121.32 71.6714 120.707 71.9227C119.505 72.4156 118.304 73.0002 117.104 73.6762C115.499 74.5401 114.088 75.5147 112.876 76.6015C111.62 77.6965 110.96 78.9863 110.96 80.4604C110.96 81.9056 111.476 83.0755 112.525 83.9206ZM120.218 82.0211L120.218 82.021L120.213 82.024C119.478 82.419 118.706 82.6149 117.891 82.6149C116.986 82.6149 116.356 82.3912 115.936 82.0019C115.538 81.5743 115.323 80.9981 115.323 80.2323C115.323 79.3726 115.571 78.585 116.074 77.8597L116.074 77.8598L116.078 77.8539C116.599 77.0727 117.283 76.3429 118.137 75.6663C119.031 74.9813 119.986 74.3704 121.001 73.8337L121.001 73.8337L121.004 73.8317C122.15 73.2105 123.518 74.061 123.518 75.4264V78.1207C123.518 78.4162 123.467 78.6914 123.35 78.927C123.077 79.4764 122.713 80.0031 122.256 80.5068C121.679 81.1104 121.001 81.6154 120.218 82.0211Z" fill="black" stroke="black" stroke-width="0.801121"/>
<path d="M88.1573 95.1348L88.1424 95.1394L88.128 95.1452C87.717 95.3094 87.0861 95.4561 86.2152 95.5762C86.2144 95.5763 86.2135 95.5765 86.2126 95.5766L85.9689 95.607C85.4931 95.6664 85.1361 96.0709 85.1361 96.5504C85.1361 97.0845 85.576 97.5138 86.1099 97.5008L91.1537 97.3778L96.1974 97.5008C96.7314 97.5138 97.1713 97.0845 97.1713 96.5504C97.1713 96.0709 96.8142 95.6664 96.3384 95.607L96.0947 95.5766C96.0938 95.5765 96.093 95.5763 96.0921 95.5762C95.2222 95.4562 94.5717 95.3092 94.1255 95.142L94.1186 95.1394L94.1116 95.1371C93.8165 95.0388 93.568 94.7887 93.4097 94.2613L93.4097 94.2613L93.408 94.2557C93.2454 93.7416 93.1526 92.8226 93.1526 91.4564V85.3306C93.1526 84.9129 93.4216 84.5423 93.8529 84.3228C94.2862 84.1023 94.8112 84.0755 95.2176 84.2843L95.2176 84.2844L95.2258 84.2884C96.3501 84.834 97.5827 85.1042 98.917 85.1042C100.816 85.1042 102.508 84.613 103.98 83.6226C105.469 82.6406 106.641 81.3261 107.493 79.687L107.494 79.6842C108.347 78.0115 108.771 76.1691 108.771 74.164C108.771 72.1002 108.348 70.2269 107.494 68.5525C106.644 66.8849 105.489 65.5543 104.029 64.5707C102.588 63.5797 100.941 63.0869 99.0997 63.0869C97.6688 63.0869 96.355 63.4051 95.1665 64.0465C94.6881 64.2989 94.2321 64.5875 93.7984 64.9121C93.6692 65.0089 93.472 65.022 93.2926 64.9345C93.1158 64.8484 93.0427 64.7116 93.056 64.5819C93.1308 63.8558 92.4937 63.266 91.7811 63.3768C90.8617 63.5197 89.9689 63.6367 89.1024 63.7278C88.1213 63.831 87.1058 63.89 86.0558 63.9046C85.5506 63.9116 85.1361 64.3209 85.1361 64.8334C85.1361 65.3489 85.5515 65.7481 86.044 65.7692C86.6287 65.7943 87.1418 65.8639 87.5859 65.9749L87.5951 65.9772L87.6045 65.979C88.106 66.0792 88.4635 66.3326 88.7078 66.7476L88.715 66.7598L88.723 66.7715C88.987 67.155 89.1547 67.8435 89.1547 68.917V91.4564C89.1547 92.8226 89.0619 93.7416 88.8994 94.2557L88.8993 94.2557L88.8977 94.2613C88.7427 94.7775 88.4858 95.0322 88.1573 95.1348ZM95.4272 66.1103L95.4272 66.1104L95.4302 66.1085C96.3353 65.5433 97.3717 65.2568 98.5517 65.2568C99.8684 65.2568 100.907 65.6401 101.704 66.3814L101.704 66.3815L101.709 66.386C102.561 67.1518 103.212 68.1974 103.651 69.5431C104.092 70.8952 104.316 72.4339 104.316 74.164C104.316 75.8624 104.093 77.3857 103.651 78.7382C103.213 80.0506 102.563 81.0813 101.712 81.8482C100.883 82.5646 99.8249 82.9343 98.506 82.9343C97.33 82.9343 96.2615 82.6345 95.2914 82.0359C94.5661 81.5883 93.9833 81.1086 93.5357 80.5998C93.2749 80.3033 93.1526 79.8894 93.1526 79.4362V68.87C93.1526 68.3359 93.3295 67.8361 93.6776 67.4875C94.2017 66.9628 94.7846 66.5038 95.4272 66.1103Z" fill="black" stroke="black" stroke-width="0.801121"/>
<path d="M72.8146 83.967L72.8145 83.9671L72.8243 83.9717C73.304 84.1953 73.9464 84.4293 74.7439 84.6746C75.6168 84.9646 76.6499 85.1042 77.8343 85.1042C79.9859 85.1042 81.6902 84.469 82.8813 83.1467C84.0424 81.8577 84.6282 80.3482 84.6282 78.6354C84.6282 77.1937 84.2425 75.9374 83.4562 74.8872C82.6884 73.7903 81.3241 72.9033 79.438 72.1927C79.4377 72.1925 79.4373 72.1924 79.4369 72.1922L77.6601 71.5095C77.6599 71.5094 77.6596 71.5093 77.6593 71.5091C76.4407 71.034 75.4959 70.5078 74.8096 69.9382C74.1966 69.376 73.8965 68.6943 73.8965 67.8676C73.8965 66.999 74.19 66.3007 74.7739 65.7423C75.395 65.1771 76.1482 64.8918 77.058 64.8918C78.3737 64.8918 79.342 65.3726 80.0201 66.3211L80.0201 66.3211L80.0234 66.3256C80.6599 67.1905 81.0975 68.2071 81.3313 69.3828C81.4207 69.8325 81.8112 70.1844 82.2936 70.1844C82.8263 70.1844 83.2582 69.7525 83.2582 69.2198V66.6023L83.4054 64.2136C83.4382 63.6799 83.0275 63.2228 82.4934 63.1985C82.0368 63.1778 81.6791 63.478 81.5229 63.8313L81.8821 63.9901L81.5229 63.8313C81.455 63.9849 81.3933 64.0676 81.3502 64.1077C81.3303 64.1262 81.3176 64.1326 81.3131 64.1345C81.3096 64.136 81.3079 64.1363 81.305 64.1363C81.1803 64.1363 80.9862 64.0895 80.7077 63.9504C80.3208 63.7571 79.8463 63.5681 79.2885 63.3822C78.7158 63.1809 78.0293 63.0869 77.2406 63.0869C76.1114 63.0869 75.0438 63.3454 74.043 63.8614L74.043 63.8614L74.0383 63.8639C73.0644 64.3829 72.2686 65.1138 71.654 66.051L71.654 66.051L71.6521 66.0539C71.0548 66.9822 70.7664 68.0953 70.7664 69.3732C70.7664 70.8807 71.1857 72.1506 72.0517 73.1489L72.0516 73.149L72.0567 73.1545C72.9338 74.1283 74.1972 74.9187 75.8177 75.5415C75.8179 75.5415 75.8181 75.5416 75.8183 75.5417L77.4609 76.1799L77.4609 76.1799L77.4645 76.1813C78.8078 76.6883 79.8256 77.2603 80.5382 77.8868L80.5381 77.8869L80.5441 77.8919C81.2522 78.4906 81.5894 79.2028 81.5894 80.0498C81.5894 81.0745 81.2486 81.8373 80.5908 82.3893C79.9188 82.9533 79.0132 83.2537 77.8343 83.2537C76.7475 83.2537 75.8055 82.9834 74.994 82.4522C74.1596 81.906 73.5035 81.2352 73.019 80.4394C72.5594 79.6346 72.3079 78.8429 72.2516 78.0618L72.2353 77.7842C72.2065 77.2942 71.8007 76.9117 71.3098 76.9117C70.8106 76.9117 70.401 77.307 70.3834 77.806L70.2645 81.1713L70.1182 83.5821C70.0847 84.1353 70.5243 84.6024 71.0785 84.6024C71.5393 84.6024 71.9106 84.28 72.0238 83.8661C72.0453 83.7879 72.0637 83.7296 72.0789 83.6884C72.0856 83.6702 72.0906 83.6581 72.0938 83.651C72.0945 83.6512 72.0952 83.6514 72.0959 83.6516C72.1315 83.6618 72.1825 83.6793 72.2513 83.7068C72.3887 83.7618 72.5754 83.8475 72.8146 83.967Z" fill="black" stroke="black" stroke-width="0.801121"/>
<path d="M285.337 44.9662L285.323 44.9709L285.308 44.9767C284.897 45.1409 284.266 45.2876 283.395 45.4077C283.395 45.4078 283.394 45.4079 283.393 45.4081L283.149 45.4385C282.673 45.4979 282.316 45.9023 282.316 46.3818C282.316 46.916 282.756 47.3453 283.29 47.3322L288.334 47.2093L293.378 47.3322C293.912 47.3453 294.351 46.916 294.351 46.3818C294.351 45.9023 293.994 45.4979 293.519 45.4385L293.275 45.4081C293.274 45.4079 293.273 45.4078 293.272 45.4077C292.402 45.2877 291.752 45.1407 291.306 44.9735L291.299 44.9709L291.292 44.9686C290.997 44.8703 290.748 44.6202 290.59 44.0928L290.59 44.0927L290.588 44.0872C290.426 43.5731 290.333 42.654 290.333 41.2879V35.1621C290.333 34.7444 290.602 34.3737 291.033 34.1543C291.466 33.9338 291.991 33.907 292.398 34.1158L292.398 34.1159L292.406 34.1199C293.53 34.6655 294.763 34.9357 296.097 34.9357C297.996 34.9357 299.688 34.4445 301.16 33.4541C302.65 32.4721 303.821 31.1576 304.673 29.5185L304.674 29.5157C305.527 27.843 305.951 26.0005 305.951 23.9955C305.951 21.9317 305.528 20.0584 304.674 18.384C303.824 16.7164 302.669 15.3857 301.209 14.4021C299.768 13.4111 298.121 12.9183 296.28 12.9183C294.849 12.9183 293.535 13.2365 292.347 13.878C291.868 14.1304 291.412 14.4189 290.979 14.7436C290.849 14.8404 290.652 14.8535 290.473 14.766C290.296 14.6799 290.223 14.5431 290.236 14.4134C290.311 13.6873 289.674 13.0975 288.961 13.2083C288.042 13.3512 287.149 13.4682 286.283 13.5593C285.301 13.6625 284.286 13.7215 283.236 13.736C282.731 13.743 282.316 14.1524 282.316 14.6649C282.316 15.1804 282.732 15.5796 283.224 15.6007C283.809 15.6258 284.322 15.6954 284.766 15.8063L284.775 15.8087L284.785 15.8105C285.286 15.9107 285.644 16.1641 285.888 16.5791L285.895 16.5913L285.903 16.6029C286.167 16.9865 286.335 17.675 286.335 18.7484V41.2879C286.335 42.654 286.242 43.5731 286.08 44.0872L286.08 44.0872L286.078 44.0928C285.923 44.609 285.666 44.8637 285.337 44.9662ZM292.607 15.9418L292.607 15.9418L292.61 15.94C293.515 15.3748 294.552 15.0883 295.732 15.0883C297.049 15.0883 298.087 15.4716 298.884 16.2129L298.884 16.2129L298.889 16.2175C299.741 16.9833 300.392 18.0289 300.831 19.3746C301.272 20.7266 301.496 22.2653 301.496 23.9955C301.496 25.6939 301.273 27.2172 300.831 28.5696C300.393 29.8821 299.744 30.9128 298.892 31.6797C298.063 32.396 297.005 32.7658 295.686 32.7658C294.51 32.7658 293.442 32.466 292.472 31.8673C291.746 31.4198 291.163 30.9401 290.716 30.4312C290.455 30.1348 290.333 29.7209 290.333 29.2677V18.7015C290.333 18.1674 290.51 17.6675 290.858 17.319C291.382 16.7943 291.965 16.3353 292.607 15.9418Z" fill="black" stroke="black" stroke-width="0.801121"/>
<path d="M263.076 33.3743L263.076 33.3744L274.85 31.5239L275.145 31.7947C275.146 31.7944 275.146 31.7941 275.146 31.7938C275.175 31.7631 275.24 31.7384 275.323 31.7655C275.361 31.7778 275.384 31.7965 275.396 31.8103C275.405 31.8208 275.409 31.83 275.409 31.846V33.37C275.409 34.1832 276.142 34.7812 276.927 34.6653C277.83 34.5321 278.648 34.4553 279.383 34.4337C280.267 34.4078 281.231 34.3929 282.273 34.3892C282.782 34.3874 283.197 33.9745 283.197 33.463C283.197 32.9465 282.781 32.5506 282.293 32.5251C281.72 32.4952 281.23 32.4129 280.819 32.2836C280.38 32.1364 280.032 31.8466 279.773 31.3863C279.541 30.8886 279.406 30.0969 279.406 28.9688V15.8305C279.406 14.7329 278.503 13.8513 277.407 13.8765L272.364 13.7536C271.83 13.7405 271.39 14.1698 271.39 14.704C271.39 15.1835 271.747 15.5879 272.223 15.6473L272.472 15.6784L272.472 15.6785L272.48 15.6794C273.351 15.7693 273.977 15.9016 274.382 16.0635L274.382 16.0636L274.39 16.0667C274.734 16.1955 274.996 16.475 275.152 16.993L275.152 16.993L275.153 16.9986C275.316 17.5127 275.409 18.4318 275.409 19.7979V27.3979C275.409 27.7203 275.345 28.0269 275.208 28.2916C274.887 28.9106 274.482 29.5239 273.991 30.1314L273.991 30.1314L273.985 30.1389C273.409 30.8873 272.703 31.5069 271.864 31.9984C271.081 32.445 270.163 32.6746 269.096 32.6746C267.873 32.6746 266.951 32.3086 266.279 31.6112C265.613 30.9183 265.25 29.8916 265.25 28.4669V15.8305C265.25 14.7329 264.346 13.8513 263.251 13.8765L258.207 13.7535C257.673 13.7405 257.233 14.1698 257.233 14.704C257.233 15.1835 257.59 15.5879 258.066 15.6473L258.315 15.6784L258.315 15.6785L258.323 15.6794C259.194 15.7693 259.82 15.9016 260.225 16.0635L260.225 16.0636L260.233 16.0667C260.577 16.1955 260.839 16.475 260.995 16.993L260.995 16.993L260.997 16.9986C261.159 17.5127 261.252 18.4318 261.252 19.7979V28.6494C261.252 30.6751 261.841 32.2738 263.076 33.3743Z" fill="black" stroke="black" stroke-width="0.801121"/>
<path d="M240.448 33.4649L240.45 33.4666C242.128 34.4469 243.979 34.9357 245.996 34.9357C248.041 34.9357 249.894 34.4475 251.544 33.4649C253.185 32.4875 254.482 31.1762 255.43 29.5352C256.41 27.8592 256.9 26.0098 256.9 23.9955C256.9 21.9233 256.412 20.0435 255.43 18.366C254.483 16.6949 253.186 15.3675 251.544 14.3892C249.894 13.4066 248.041 12.9183 245.996 12.9183C243.979 12.9183 242.128 13.4071 240.45 14.3875L240.45 14.3875L240.448 14.3892C238.805 15.3672 237.494 16.6939 236.517 18.3636L236.516 18.3635L236.514 18.3685C235.563 20.0458 235.092 21.9247 235.092 23.9955C235.092 26.0078 235.564 27.8558 236.514 29.5312L236.514 29.5313L236.518 29.539C237.496 31.1779 238.807 32.4879 240.448 33.4649ZM249.71 16.0426L249.71 16.0427L249.715 16.0472C250.651 16.8122 251.342 17.8677 251.779 19.2353C252.221 20.6181 252.445 22.2032 252.445 23.9955C252.445 25.7249 252.221 27.2795 251.779 28.6632C251.343 29.9985 250.652 31.057 249.712 31.8547C248.797 32.6019 247.571 32.9939 245.996 32.9939C244.42 32.9939 243.194 32.6019 242.279 31.8547C241.339 31.057 240.648 29.9985 240.212 28.6631C239.77 27.2794 239.546 25.7249 239.546 23.9955C239.546 22.2032 239.77 20.6181 240.212 19.2353C240.649 17.8677 241.34 16.8122 242.276 16.0472L242.276 16.0473L242.282 16.0427C243.197 15.2664 244.422 14.8601 245.996 14.8601C247.569 14.8601 248.794 15.2664 249.71 16.0426Z" fill="black" stroke="black" stroke-width="0.801121"/>
<path d="M221.816 16.6162L221.82 16.6234L221.825 16.6305C222.1 17.0814 222.268 17.8564 222.268 19.0222V28.5125C222.268 29.8743 222.176 30.8116 222.012 31.3602C221.86 31.8379 221.604 32.1087 221.256 32.2413C220.835 32.3805 220.197 32.5125 219.328 32.6323L219.082 32.6631C218.606 32.7225 218.249 33.127 218.249 33.6065C218.249 34.1406 218.689 34.5699 219.223 34.5569L224.267 34.434L229.311 34.5569C229.845 34.5699 230.285 34.1406 230.285 33.6065C230.285 33.127 229.927 32.7225 229.452 32.6631L229.206 32.6323C228.342 32.5133 227.688 32.3818 227.233 32.2414C226.921 32.1117 226.676 31.8441 226.522 31.3602C226.358 30.8116 226.266 29.8743 226.266 28.5125V21.5489C226.266 21.4092 226.278 21.2725 226.304 21.1408C226.447 20.4274 226.624 19.7653 226.837 19.1539C227.077 18.4661 227.33 17.8412 227.597 17.2783C227.913 16.6177 228.277 16.1207 228.68 15.7703C229.126 15.4094 229.494 15.2708 229.793 15.2708C229.877 15.2708 229.938 15.2784 229.98 15.2884C230.005 15.2945 230.021 15.3009 230.03 15.3052C230.031 15.3103 230.031 15.3172 230.031 15.3265C230.031 15.4125 230.003 15.5758 229.915 15.8385L229.908 15.8581L229.904 15.8783C229.836 16.1829 229.803 16.5012 229.803 16.8321C229.803 17.3573 230.031 17.81 230.437 18.1781C230.871 18.5724 231.469 18.7384 232.167 18.7384C232.93 18.7384 233.576 18.4918 234.059 17.9717C234.534 17.4606 234.76 16.8105 234.76 16.0565C234.76 15.3769 234.509 14.7062 234.051 14.0508C233.51 13.2452 232.483 12.9183 231.163 12.9183C229.929 12.9183 228.79 13.3709 227.753 14.2446C227.078 14.8139 226.487 15.6365 225.971 16.6943L225.994 16.4474C226.157 14.7493 224.688 13.3761 223.019 13.5349C222.752 13.5603 222.488 13.5833 222.226 13.604C221.242 13.6816 220.223 13.726 219.17 13.7369C218.664 13.7422 218.249 14.1528 218.249 14.6649C218.249 15.1804 218.665 15.5796 219.157 15.6007C219.742 15.6258 220.255 15.6954 220.699 15.8063L220.708 15.8087L220.718 15.8105C221.21 15.9089 221.568 16.1703 221.816 16.6162Z" fill="black" stroke="black" stroke-width="0.801121"/>
<path d="M176.65 14.2446C175.975 14.8139 175.384 15.6365 174.868 16.6943L174.891 16.4474C175.054 14.7493 173.585 13.3761 171.916 13.5349C171.649 13.5603 171.385 13.5833 171.123 13.604C170.139 13.6816 169.12 13.726 168.067 13.7369C167.561 13.7422 167.146 14.1528 167.146 14.6649C167.146 15.1804 167.562 15.5796 168.054 15.6007C168.639 15.6258 169.152 15.6954 169.596 15.8063L169.605 15.8087L169.615 15.8105C170.107 15.9089 170.465 16.1703 170.713 16.6162L170.717 16.6234L170.722 16.6305C170.997 17.0814 171.165 17.8564 171.165 19.0222V28.5125C171.165 29.8743 171.073 30.8116 170.909 31.3602C170.757 31.8379 170.501 32.1087 170.153 32.2413C169.732 32.3805 169.094 32.5125 168.225 32.6324L167.979 32.6631C167.503 32.7225 167.146 33.127 167.146 33.6065C167.146 34.1406 167.586 34.5699 168.12 34.5569L173.164 34.434L178.208 34.5569C178.742 34.5699 179.182 34.1406 179.182 33.6065C179.182 33.127 178.824 32.7225 178.349 32.6631L178.102 32.6324C177.239 32.5133 176.585 32.3818 176.13 32.2414C175.818 32.1117 175.573 31.8442 175.419 31.3602C175.255 30.8116 175.163 29.8743 175.163 28.5125V21.5489C175.163 21.4092 175.175 21.2725 175.201 21.1408C175.344 20.4274 175.521 19.7653 175.734 19.1539C175.974 18.4661 176.227 17.8412 176.494 17.2783C176.81 16.6177 177.174 16.1207 177.577 15.7703C178.023 15.4094 178.391 15.2708 178.69 15.2708C178.774 15.2708 178.835 15.2784 178.877 15.2884C178.902 15.2945 178.918 15.3009 178.927 15.3052C178.928 15.3103 178.928 15.3172 178.928 15.3265C178.928 15.4125 178.9 15.5758 178.812 15.8385L178.805 15.8581L178.801 15.8783C178.733 16.1829 178.7 16.5012 178.7 16.8321C178.7 17.3573 178.928 17.81 179.334 18.1781C179.768 18.5724 180.366 18.7384 181.064 18.7384C181.827 18.7384 182.473 18.4918 182.956 17.9717C183.431 17.4606 183.657 16.8105 183.657 16.0565C183.657 15.3769 183.406 14.7062 182.948 14.0508C182.407 13.2452 181.38 12.9183 180.06 12.9183C178.826 12.9183 177.687 13.3709 176.65 14.2446Z" fill="black" stroke="black" stroke-width="0.801121"/>
<path d="M199.826 28.8547L199.826 28.8547L199.83 28.8522C200.327 28.5417 200.845 28.2989 201.384 28.1228C201.729 28.0104 202.121 28.033 202.541 28.1322C203.33 28.3183 204.136 28.4111 204.961 28.4111C206.599 28.4111 208.092 28.0802 209.432 27.4108L209.432 27.4108L209.439 27.4073C210.771 26.7103 211.828 25.7852 212.6 24.6296C213.406 23.4376 213.81 22.1125 213.81 20.6647C213.81 19.5363 213.551 18.4695 213.034 17.4695C212.766 16.9495 212.448 16.468 212.081 16.0258C211.858 15.7568 211.723 15.435 211.703 15.1443C211.684 14.863 211.77 14.622 211.978 14.4461L211.98 14.4444C212.345 14.1315 212.712 13.9932 213.089 13.9932C213.4 13.9932 213.551 14.0847 213.637 14.1981L213.646 14.2102L213.656 14.2216C213.813 14.4012 213.922 14.6337 213.973 14.9361L213.973 14.9361L213.974 14.9452C214.106 15.6358 214.366 16.2043 214.791 16.6004C215.222 17.0024 215.78 17.187 216.423 17.187C217.011 17.187 217.543 16.982 218.006 16.5905L218.008 16.5888C218.536 16.1367 218.787 15.5166 218.787 14.7789C218.787 13.847 218.364 13.1031 217.564 12.5782C216.818 12.0391 215.928 11.7777 214.916 11.7777C213.945 11.7777 212.979 11.9878 212.022 12.4015C211.839 12.4749 211.661 12.5578 211.488 12.6505C210.31 13.2818 208.902 13.6049 207.688 13.2715C206.828 13.0354 205.918 12.9183 204.961 12.9183C203.321 12.9183 201.826 13.2652 200.486 13.966C199.153 14.6324 198.081 15.5416 197.279 16.6947L197.279 16.6947L197.275 16.701C196.498 17.8661 196.112 19.1916 196.112 20.6647C196.112 22.1414 196.515 23.4691 197.325 24.6347L197.654 24.4061L197.325 24.6347C197.355 24.6783 197.386 24.7216 197.417 24.7645C197.741 25.2125 197.883 25.9504 197.804 26.7174C197.725 27.4852 197.436 28.1697 197.024 28.5308L197.024 28.5308L197.02 28.5349C195.972 29.4838 195.427 30.6221 195.427 31.9344C195.427 33.1451 195.807 34.113 196.627 34.7561C197.385 35.381 198.302 35.7858 199.363 35.9787L199.365 35.979C200.413 36.1637 201.401 36.2873 202.331 36.3492L202.331 36.3493L202.338 36.3496L206.994 36.5777C206.994 36.5777 206.995 36.5777 206.995 36.5777C209.228 36.6984 210.81 37.0591 211.793 37.6198C212.754 38.1801 213.237 39.0448 213.237 40.2841C213.237 41.5 212.858 42.4947 212.111 43.2961L212.106 43.3013L212.102 43.3067C211.362 44.159 210.374 44.8074 209.121 45.2441C207.859 45.6839 206.474 45.9062 204.961 45.9062C203.587 45.9062 202.324 45.7719 201.17 45.5061C200.063 45.244 199.183 44.8128 198.511 44.2257L198.51 44.2249C197.908 43.7019 197.598 42.9966 197.598 42.0635C197.598 41.5973 197.679 41.2464 197.817 40.989C198.03 40.6534 198.229 40.3174 198.413 39.9809C198.643 39.5935 198.739 39.1052 198.739 38.5503C198.739 37.8816 198.524 37.3159 198.047 36.9193L198.039 36.9127L198.031 36.9065C197.587 36.574 197.059 36.4159 196.467 36.4159C195.573 36.4159 194.834 36.8 194.276 37.5317L194.276 37.5316L194.268 37.5417C193.752 38.2632 193.509 39.1562 193.509 40.1928C193.509 41.9557 194.057 43.4293 195.175 44.5784L195.175 44.5784L195.179 44.5825C196.297 45.7002 197.727 46.5213 199.454 47.0545L199.456 47.0551C201.2 47.5843 203.036 47.848 204.961 47.848C206.894 47.848 208.694 47.5208 210.359 46.8622C212.056 46.2023 213.438 45.2384 214.491 43.9653C215.594 42.6992 216.139 41.144 216.139 39.3259C216.139 37.3808 215.652 35.8584 214.603 34.8426C213.623 33.8644 212.314 33.2269 210.704 32.9109C209.127 32.5713 207.37 32.3564 205.436 32.2644L205.435 32.2643L203.431 32.1733C202.59 32.1132 201.81 32.0382 201.091 31.9486C200.406 31.8337 199.876 31.6383 199.482 31.378C199.147 31.1296 198.968 30.7725 198.968 30.2463C198.968 29.6754 199.227 29.2185 199.826 28.8547ZM208.414 24.8742L208.414 24.8741L208.41 24.8804C207.773 25.914 206.664 26.4693 204.961 26.4693C203.292 26.4693 202.176 25.916 201.507 24.8742C200.797 23.7669 200.429 22.3715 200.429 20.6647C200.429 18.9579 200.797 17.5625 201.507 16.4553C202.176 15.4134 203.292 14.8601 204.961 14.8601C206.664 14.8601 207.773 15.4155 208.41 16.449L208.41 16.4491L208.414 16.4553C209.124 17.5625 209.492 18.9579 209.492 20.6647C209.492 22.3715 209.124 23.7669 208.414 24.8742Z" fill="black" stroke="black" stroke-width="0.801121"/>
<path d="M147.451 33.3743L147.451 33.3744L159.226 31.5239L159.521 31.7947C159.521 31.7944 159.521 31.7941 159.522 31.7938C159.551 31.7631 159.615 31.7384 159.698 31.7655C159.736 31.7778 159.76 31.7965 159.771 31.8103C159.78 31.8208 159.784 31.83 159.784 31.846V33.37C159.784 34.1832 160.517 34.7812 161.303 34.6653C162.205 34.5321 163.024 34.4553 163.758 34.4337C164.643 34.4078 165.606 34.3929 166.648 34.3892C167.158 34.3874 167.572 33.9745 167.572 33.463C167.572 32.9465 167.157 32.5506 166.668 32.5251C166.095 32.4952 165.606 32.4129 165.195 32.2836C164.755 32.1364 164.408 31.8466 164.149 31.3863C163.917 30.8886 163.782 30.0969 163.782 28.9688V15.8305C163.782 14.7329 162.879 13.8513 161.783 13.8765L156.739 13.7535C156.205 13.7405 155.765 14.1698 155.765 14.704C155.765 15.1835 156.123 15.5879 156.598 15.6473L156.847 15.6784L156.847 15.6785L156.856 15.6794C157.726 15.7693 158.352 15.9016 158.757 16.0635L158.757 16.0636L158.765 16.0667C159.109 16.1955 159.372 16.475 159.527 16.993L159.527 16.993L159.529 16.9986C159.691 17.5127 159.784 18.4318 159.784 19.7979V27.3979C159.784 27.7203 159.72 28.0269 159.583 28.2916C159.262 28.9106 158.857 29.5239 158.366 30.1314L158.366 30.1314L158.36 30.1389C157.784 30.8873 157.078 31.5069 156.24 31.9984C155.456 32.445 154.538 32.6746 153.472 32.6746C152.249 32.6746 151.326 32.3086 150.655 31.6112C149.988 30.9183 149.625 29.8916 149.625 28.4669V15.8305C149.625 14.7329 148.722 13.8513 147.626 13.8765L142.583 13.7535C142.049 13.7405 141.609 14.1698 141.609 14.704C141.609 15.1835 141.966 15.5879 142.442 15.6473L142.69 15.6784L142.69 15.6785L142.699 15.6794C143.569 15.7693 144.196 15.9016 144.601 16.0635L144.601 16.0636L144.609 16.0667C144.953 16.1955 145.215 16.475 145.37 16.993L145.37 16.993L145.372 16.9986C145.535 17.5127 145.627 18.4318 145.627 19.7979V28.6494C145.627 30.6751 146.216 32.2738 147.451 33.3743Z" fill="black" stroke="black" stroke-width="0.801121"/>
<path d="M124.824 33.4649L124.826 33.4666C126.504 34.4469 128.355 34.9357 130.372 34.9357C132.417 34.9357 134.27 34.4475 135.92 33.4649C137.561 32.4875 138.858 31.1762 139.806 29.5352C140.786 27.8592 141.276 26.0098 141.276 23.9955C141.276 21.9233 140.788 20.0435 139.806 18.366C138.859 16.6949 137.562 15.3675 135.92 14.3892C134.27 13.4066 132.417 12.9183 130.372 12.9183C128.355 12.9183 126.504 13.4071 124.826 14.3875L124.826 14.3875L124.824 14.3892C123.181 15.3672 121.87 16.6939 120.892 18.3636L120.892 18.3635L120.89 18.3685C119.939 20.0458 119.468 21.9247 119.468 23.9955C119.468 26.0078 119.94 27.8558 120.89 29.5312L120.89 29.5313L120.894 29.539C121.872 31.1779 123.183 32.4879 124.824 33.4649ZM134.086 16.0426L134.086 16.0427L134.091 16.0472C135.027 16.8122 135.718 17.8677 136.155 19.2353C136.597 20.6181 136.821 22.2032 136.821 23.9955C136.821 25.7249 136.597 27.2795 136.155 28.6632C135.719 29.9985 135.028 31.057 134.088 31.8547C133.173 32.6019 131.947 32.9939 130.372 32.9939C128.796 32.9939 127.57 32.6019 126.655 31.8547C125.715 31.057 125.024 29.9985 124.588 28.6631C124.146 27.2794 123.922 25.7249 123.922 23.9955C123.922 22.2032 124.146 20.6181 124.588 19.2353C125.025 17.8677 125.716 16.8122 126.652 16.0472L126.652 16.0473L126.658 16.0427C127.573 15.2664 128.798 14.8601 130.372 14.8601C131.945 14.8601 133.17 15.2664 134.086 16.0426Z" fill="black" stroke="black" stroke-width="0.801121"/>
<path d="M95.3476 43.1844L95.3469 43.1851C94.8114 43.6844 94.5345 44.3066 94.5345 45.0293C94.5345 45.765 94.8521 46.4119 95.4327 46.9596C96.0517 47.5751 96.9462 47.8481 98.0404 47.8481C99.3773 47.8481 100.536 47.5461 101.495 46.9201C102.455 46.3435 103.269 45.5765 103.937 44.624C104.621 43.6915 105.212 42.6971 105.709 41.6411L105.71 41.6411L105.711 41.6375L116.032 19.1437L116.032 19.1437L116.035 19.1373C116.451 18.1858 116.893 17.3929 117.358 16.7534C117.792 16.1953 118.501 15.8205 119.557 15.6779L119.766 15.6501C120.237 15.5873 120.589 15.1852 120.589 14.7095C120.589 14.1715 120.143 13.7412 119.605 13.7613L116.534 13.8763L112.729 13.7575C112.194 13.7408 111.751 14.1702 111.751 14.7058C111.751 15.1842 112.107 15.5878 112.582 15.6471L112.833 15.6784L112.834 15.6785C113.554 15.7666 114.04 15.927 114.337 16.1265C114.611 16.3114 114.719 16.5235 114.719 16.7866C114.719 17.1253 114.581 17.654 114.253 18.4009L110.99 25.4165C110.172 27.1734 107.672 27.1647 106.867 25.4021L103.565 18.1715L103.565 18.1709C103.232 17.4451 103.099 16.9664 103.099 16.6953C103.099 16.4489 103.193 16.258 103.416 16.0938C103.659 15.9146 104.063 15.7646 104.673 15.6775L104.837 15.654C105.307 15.5869 105.656 15.1846 105.656 14.71C105.656 14.1722 105.212 13.7408 104.674 13.7568L100.643 13.8764L96.4716 13.7562C95.9361 13.7407 95.4935 14.1707 95.4935 14.7065C95.4935 15.1841 95.8478 15.5876 96.3214 15.6493L96.8926 15.7237L96.8926 15.7238L96.8967 15.7243C97.5872 15.807 98.0402 16.047 98.3214 16.3982C98.6591 16.8199 98.9771 17.365 99.2715 18.0415L99.2714 18.0415L99.2744 18.0479L106.344 33.5365C106.62 34.1403 106.617 34.8346 106.337 35.4364L103.844 40.7959C103.844 40.7965 103.843 40.7971 103.843 40.7977C103.21 42.1233 102.623 42.9236 102.104 43.2866L102.103 43.2865L102.096 43.2923C101.565 43.6832 101.083 43.8531 100.643 43.8531C100.348 43.8531 100.108 43.7805 99.9065 43.6465L99.893 43.6375L99.8788 43.6297C99.6155 43.4835 99.3851 43.3394 99.1864 43.1976C98.966 43.0403 98.7308 42.8836 98.4809 42.7276L98.4648 42.7175L98.4478 42.709C98.1259 42.5483 97.7208 42.4843 97.2641 42.4843C96.5097 42.4843 95.8592 42.7098 95.3476 43.1844Z" fill="black" stroke="black" stroke-width="0.801121"/>
<path d="M71.8394 33.6024L71.8394 33.6025L71.8447 33.6055C73.4066 34.4972 75.2279 34.9357 77.295 34.9357C79.3238 34.9357 81.051 34.4886 82.4528 33.5688C83.8563 32.6478 84.902 31.2737 85.601 29.4752C85.8029 28.9557 85.5229 28.3956 85.0238 28.2086C84.5051 28.0143 83.9497 28.2799 83.7344 28.7591C83.1673 30.0205 82.4165 30.9798 81.4895 31.6558C80.4661 32.3941 79.286 32.7658 77.9343 32.7658C76.4895 32.7658 75.2854 32.378 74.2994 31.6189C73.3284 30.8478 72.5932 29.816 72.0988 28.509C71.5993 27.1582 71.3479 25.7004 71.3479 24.1324C71.3479 23.6517 71.7534 23.2554 72.2716 23.2554H84.2736C84.7516 23.2554 85.2068 22.9333 85.2732 22.4027C85.3064 22.137 85.3219 21.8149 85.3219 21.4404C85.3219 18.9313 84.6296 16.8673 83.2115 15.2885C81.8124 13.6967 79.8676 12.9183 77.432 12.9183C75.5011 12.9183 73.7226 13.4255 72.1055 14.439C70.5213 15.4205 69.2572 16.7807 68.3131 18.5095C67.363 20.2188 66.8934 22.1729 66.8934 24.3605C66.8934 26.3947 67.3167 28.2247 68.173 29.8407L68.1729 29.8407L68.1775 29.849C69.0643 31.4311 70.2865 32.6841 71.8394 33.6024ZM81.1017 19.9664L81.1016 19.9663L81.0973 19.9742C80.9127 20.3202 80.5164 20.6667 79.8262 20.9833C79.2015 21.2536 78.2333 21.4049 76.884 21.4049H74.0636C73.3853 21.4049 72.7794 21.1048 72.4022 20.6573C72.0297 20.2155 71.881 19.6352 72.0915 19.0313C72.4023 18.1392 72.812 17.3685 73.3174 16.7144C74.2983 15.4837 75.6531 14.8601 77.432 14.8601C78.4594 14.8601 79.3897 15.204 80.2354 15.9081C81.0451 16.5822 81.4611 17.5121 81.4611 18.7484C81.4611 19.122 81.3494 19.5263 81.1017 19.9664Z" fill="black" stroke="black" stroke-width="0.801121"/>
<path d="M47.4964 17.7724L47.4967 17.7732L54.5863 33.4171C54.8668 34.0362 55.4837 34.4339 56.1634 34.4339C56.8558 34.4339 57.4816 34.0214 57.7546 33.385L63.9848 18.8608C64.4345 17.8126 64.8711 17.0663 65.2869 16.5955L65.287 16.5956L65.2943 16.5869C65.6745 16.1311 66.2301 15.8344 67.0046 15.7234L67.5751 15.6491C68.0477 15.5875 68.4013 15.1849 68.4013 14.7083C68.4013 14.1711 67.9556 13.7411 67.4187 13.7602L64.1642 13.8763L60.6318 13.7587C60.0972 13.7409 59.6541 14.1695 59.6541 14.7044C59.6541 15.1842 60.0133 15.5881 60.4899 15.6441L60.7817 15.6784C61.4538 15.7663 61.9045 15.9217 62.1779 16.1117C62.4302 16.2871 62.5311 16.4884 62.5311 16.741C62.5311 17.0535 62.42 17.4947 62.1554 18.0821L62.1554 18.0821L62.1523 18.0892L59.192 25.0158C58.4162 26.8309 55.8532 26.8591 55.0377 25.0614L51.7907 17.9036C51.5544 17.3421 51.4588 16.9474 51.4588 16.6953C51.4588 16.404 51.5532 16.2249 51.7151 16.0991L51.7254 16.091L51.7353 16.0823C51.9176 15.9203 52.29 15.7665 52.9368 15.6781L53.1846 15.6472C53.6597 15.5878 54.0162 15.184 54.0162 14.7053C54.0162 14.1701 53.574 13.7407 53.0391 13.7565L48.9575 13.8764L44.8267 13.7562C44.2938 13.7407 43.8533 14.1685 43.8533 14.7016C43.8533 15.1836 44.2158 15.5885 44.6948 15.6416L45.0309 15.6789C45.7623 15.7634 46.2534 15.9956 46.5635 16.3293C46.9256 16.7189 47.2377 17.198 47.4964 17.7724Z" fill="black" stroke="black" stroke-width="0.801121"/>
<path d="M37.3004 16.2004L37.3091 16.2066L37.3181 16.2124C37.5529 16.3616 37.7585 16.6296 37.9066 17.0734C38.0554 17.5195 38.1372 18.1188 38.1372 18.8857V28.5129C38.1372 29.8746 38.045 30.8119 37.8809 31.3606C37.7293 31.8383 37.4731 32.1091 37.1252 32.2416C36.7042 32.3809 36.0665 32.5129 35.1975 32.6327L34.9514 32.6635C34.4756 32.7229 34.1185 33.1273 34.1185 33.6068C34.1185 34.141 34.5584 34.5703 35.0923 34.5573L40.1361 34.4343L45.1798 34.5573C45.7138 34.5703 46.1537 34.141 46.1537 33.6068C46.1537 33.1273 45.7966 32.7229 45.3208 32.6635L45.0747 32.6327C44.2113 32.5137 43.5575 32.3822 43.1025 32.2418C42.79 32.1121 42.5448 31.8445 42.3912 31.3606C42.2271 30.8119 42.135 29.8746 42.135 28.5129V16.7575C42.135 14.8463 40.4218 13.4388 38.5614 13.6101C38.4069 13.6244 38.2532 13.6375 38.1004 13.6496C37.1146 13.7013 36.0948 13.7309 35.041 13.7382C34.5329 13.7417 34.1185 14.1535 34.1185 14.6653V14.8703C34.1185 15.2681 34.4409 15.5905 34.8387 15.5905C35.9497 15.5905 36.7542 15.8106 37.3004 16.2004ZM37.4081 7.69006C37.9499 8.33961 38.6925 8.65533 39.5881 8.65533C40.5534 8.65533 41.3329 8.35239 41.8265 7.67402C42.3099 7.05047 42.546 6.30958 42.546 5.47156C42.546 4.60992 42.3133 3.86419 41.8231 3.26456C41.3294 2.58939 40.5512 2.28779 39.5881 2.28779C38.6945 2.28779 37.9532 2.60211 37.4118 3.24871C36.8836 3.84897 36.6302 4.60033 36.6302 5.47156C36.6302 6.31903 36.8872 7.06553 37.4081 7.69006Z" fill="black" stroke="black" stroke-width="0.801121"/>
<path d="M8.86936 32.8258L8.87137 32.8269C11.2496 34.2338 13.8778 34.9359 16.7474 34.9359C18.291 34.9359 19.6087 34.7823 20.6911 34.465C21.7489 34.1848 22.6517 33.8231 23.3913 33.3739C24.1275 32.9447 24.7608 32.5437 25.2896 32.1708L25.2896 32.1708L25.2955 32.1665C25.7452 31.837 26.1624 31.5544 26.5472 31.3177C26.8768 31.1151 27.245 31.0121 27.6617 31.0121C27.8223 31.0121 28.063 31.0863 28.3987 31.3099L28.4144 31.3203L28.431 31.3293C28.6378 31.4405 28.8693 31.6424 29.1203 31.9628C29.4513 32.3853 30.0761 32.5575 30.5754 32.2322C31.0344 31.9331 31.1829 31.3294 30.9151 30.8515L30.5732 30.2414C30.3686 29.8319 30.1473 29.331 29.9093 28.7371C29.7142 28.1771 29.615 27.571 29.615 26.9158V26.0945C29.615 24.6896 29.874 23.814 30.2892 23.3504C30.733 22.8548 31.3039 22.5782 32.0297 22.5245L32.0297 22.5245L32.0355 22.524L33.5764 22.3872C34.0741 22.3429 34.4557 21.926 34.4557 21.4263C34.4557 20.8838 34.0084 20.448 33.4661 20.4621L27.022 20.6293L20.0307 20.461C19.4881 20.4479 19.0411 20.8842 19.0411 21.4269C19.0411 21.9259 19.4211 22.3429 19.918 22.3891L21.3683 22.5238L21.3692 22.5239C23.0295 22.6747 24.0505 23.0321 24.5546 23.5106L24.5546 23.5107L24.5618 23.5172C25.0801 23.9857 25.3888 24.8074 25.3888 26.0945V27.372C25.3888 28.2313 25.0556 29.0856 24.3423 29.9417C23.6298 30.7666 22.6507 31.4476 21.3878 31.9758C20.1365 32.4991 18.6837 32.766 17.0214 32.766C13.724 32.766 11.199 31.5677 9.39472 29.1835C7.58484 26.7919 6.64452 23.0341 6.64452 17.8361C6.64452 12.9168 7.52201 9.18907 9.22701 6.60448C10.9095 4.05403 13.4394 2.76935 16.8844 2.76935C18.4613 2.76935 19.9813 3.14798 21.449 3.91053L21.449 3.91063L21.4575 3.91481C22.9447 4.64315 24.1705 5.7206 25.1376 7.15532L25.1375 7.15538L25.143 7.16309C26.0366 8.42354 26.5544 9.93012 26.6856 11.6969C26.7233 12.2042 27.1396 12.6246 27.6713 12.6246C28.2162 12.6246 28.6553 12.178 28.6459 11.6332L28.5647 6.88587L28.6459 2.22146C28.6553 1.68121 28.2199 1.23821 27.6796 1.23821C27.1311 1.23821 26.7588 1.67619 26.6555 2.10533C26.6166 2.26678 26.5574 2.4354 26.4761 2.61145L26.4729 2.61829L26.47 2.62525C26.4205 2.74393 26.3593 2.81067 26.2949 2.85131C26.2284 2.8933 26.1281 2.92638 25.9721 2.92638C25.6202 2.92638 25.3036 2.87276 25.0186 2.77005C24.7177 2.64966 24.1767 2.42445 23.3928 2.09313C22.7034 1.7804 21.8206 1.45619 20.749 1.11973L20.629 1.50189L20.749 1.11973C19.6378 0.770792 18.3938 0.59944 17.0214 0.59944C14.8964 0.59944 12.8775 1.02129 10.9683 1.86558C9.06265 2.70832 7.37572 3.8947 5.90934 5.42211C4.43988 6.95274 3.28635 8.77709 2.4467 10.8899C1.60409 13.0101 1.18538 15.3271 1.18538 17.8361C1.18538 21.2957 1.86577 24.3139 3.2424 26.8772L3.24238 26.8772L3.2442 26.8805C4.64593 29.4325 6.52093 31.4179 8.86936 32.8258Z" fill="black" stroke="black" stroke-width="0.801121"/>
</svg>
