<svg width="896" height="184" viewBox="0 0 896 184" fill="none" xmlns="http://www.w3.org/2000/svg">
<path d="M884.221 157.657C885.4 158.899 886.913 159.514 888.699 159.514C890.388 159.514 891.839 158.887 893.005 157.657C894.163 156.436 894.75 154.97 894.75 153.296C894.75 151.673 894.158 150.261 892.998 149.099C891.833 147.874 890.385 147.249 888.699 147.249C886.917 147.249 885.406 147.861 884.228 149.099C883.069 150.261 882.477 151.672 882.477 153.296C882.477 154.97 883.064 156.436 884.221 157.657Z" fill="black" stroke="black" stroke-width="1.5"/>
<path d="M852.269 157.017L852.269 157.017L852.279 157.022C855.203 158.692 858.613 159.513 862.484 159.513C866.282 159.513 869.516 158.676 872.141 156.954C874.769 155.229 876.727 152.656 878.036 149.289C878.414 148.316 877.889 147.268 876.955 146.917C875.984 146.554 874.944 147.051 874.54 147.948C873.479 150.31 872.073 152.106 870.338 153.372C868.421 154.754 866.212 155.45 863.681 155.45C860.975 155.45 858.721 154.724 856.875 153.303C855.057 151.859 853.68 149.927 852.754 147.48C851.819 144.951 851.348 142.221 851.348 139.285C851.348 138.385 852.108 137.643 853.078 137.643H875.55C876.445 137.643 877.297 137.04 877.422 136.046C877.484 135.549 877.513 134.946 877.513 134.245C877.513 129.547 876.217 125.682 873.561 122.726C870.942 119.746 867.3 118.288 862.74 118.288C859.125 118.288 855.795 119.238 852.767 121.135C849.801 122.973 847.434 125.52 845.666 128.757C843.887 131.958 843.008 135.616 843.008 139.712C843.008 143.521 843.8 146.947 845.404 149.973L845.408 149.981L845.412 149.989C847.073 152.951 849.361 155.297 852.269 157.017ZM869.611 131.485L869.607 131.492L869.603 131.5C869.257 132.147 868.515 132.796 867.223 133.389C866.053 133.895 864.24 134.178 861.714 134.178H856.433C855.163 134.178 854.029 133.616 853.322 132.779C852.625 131.951 852.347 130.865 852.741 129.734C853.323 128.064 854.09 126.621 855.036 125.396C856.873 123.092 859.409 121.924 862.74 121.924C864.664 121.924 866.406 122.568 867.989 123.886C869.505 125.148 870.284 126.89 870.284 129.204C870.284 129.904 870.075 130.661 869.611 131.485Z" fill="black" stroke="black" stroke-width="1.5"/>
<path d="M806.684 127.377L806.685 127.378L819.959 156.67C820.485 157.829 821.64 158.574 822.912 158.574C824.209 158.574 825.381 157.801 825.892 156.61L837.557 129.415C838.399 127.452 839.217 126.055 839.995 125.173L840.002 125.165L840.009 125.157C840.721 124.304 841.761 123.748 843.211 123.541C843.213 123.54 843.214 123.54 843.216 123.54L844.279 123.401C845.164 123.286 845.826 122.532 845.826 121.64C845.826 120.634 844.992 119.829 843.987 119.865L837.893 120.082L831.279 119.862C830.278 119.828 829.448 120.631 829.448 121.632C829.448 122.531 830.121 123.287 831.013 123.392L831.56 123.456C832.818 123.621 833.662 123.912 834.174 124.268C834.646 124.596 834.835 124.973 834.835 125.446C834.835 126.031 834.627 126.857 834.132 127.957L834.129 127.964L834.126 127.97L828.583 140.939C827.131 144.338 822.332 144.391 820.805 141.025L814.725 127.623C814.283 126.571 814.104 125.832 814.104 125.36C814.104 124.815 814.28 124.479 814.583 124.244L814.603 124.229L814.621 124.212C814.963 123.909 815.66 123.621 816.871 123.456L817.335 123.398C818.224 123.287 818.892 122.531 818.892 121.634C818.892 120.632 818.064 119.828 817.063 119.858L809.42 120.082L801.686 119.857C800.688 119.828 799.863 120.629 799.863 121.627C799.863 122.53 800.542 123.288 801.439 123.387L802.068 123.457C803.438 123.615 804.357 124.05 804.938 124.675C805.616 125.404 806.2 126.301 806.684 127.377Z" fill="black" stroke="black" stroke-width="1.5"/>
<path d="M787.598 124.434L787.615 124.445L787.632 124.456C788.071 124.735 788.456 125.237 788.733 126.068C789.012 126.903 789.165 128.025 789.165 129.461V147.487C789.165 150.037 788.993 151.792 788.685 152.819C788.401 153.713 787.922 154.221 787.27 154.469C786.482 154.73 785.288 154.977 783.661 155.201L783.2 155.259C782.309 155.37 781.641 156.127 781.641 157.025C781.641 158.025 782.464 158.829 783.464 158.804L792.908 158.574L802.352 158.804C803.351 158.829 804.175 158.025 804.175 157.025C804.175 156.127 803.506 155.37 802.616 155.259L802.155 155.201C800.538 154.978 799.314 154.732 798.462 154.469C797.877 154.226 797.418 153.725 797.13 152.819C796.823 151.792 796.65 150.037 796.65 147.487V125.477C796.65 121.898 793.443 119.263 789.959 119.584C789.67 119.61 789.382 119.635 789.096 119.657C787.25 119.754 785.341 119.81 783.368 119.823C782.417 119.83 781.641 120.601 781.641 121.559V121.943C781.641 122.688 782.244 123.292 782.989 123.292C785.069 123.292 786.576 123.704 787.598 124.434ZM787.8 108.499C788.814 109.715 790.205 110.306 791.882 110.306C793.689 110.306 795.149 109.739 796.073 108.469C796.978 107.301 797.42 105.914 797.42 104.345C797.42 102.732 796.984 101.335 796.067 100.213C795.142 98.9486 793.685 98.3839 791.882 98.3839C790.209 98.3839 788.821 98.9724 787.807 100.183C786.818 101.307 786.343 102.714 786.343 104.345C786.343 105.932 786.825 107.33 787.8 108.499Z" fill="black" stroke="black" stroke-width="1.5"/>
<path d="M757.401 125.212L757.409 125.226L757.417 125.239C757.933 126.083 758.247 127.534 758.247 129.717V147.486C758.247 150.036 758.075 151.791 757.767 152.818C757.483 153.713 757.004 154.22 756.352 154.468C755.564 154.729 754.37 154.976 752.743 155.2L752.282 155.258C751.391 155.369 750.723 156.126 750.723 157.024C750.723 158.024 751.546 158.828 752.546 158.804L761.99 158.574L771.434 158.804C772.433 158.828 773.257 158.024 773.257 157.024C773.257 156.126 772.588 155.369 771.698 155.258L771.237 155.2C769.62 154.977 768.396 154.731 767.544 154.468C766.959 154.226 766.5 153.724 766.212 152.818C765.905 151.791 765.733 150.036 765.733 147.486V134.448C765.733 134.186 765.756 133.93 765.805 133.684C766.071 132.348 766.404 131.108 766.802 129.964C767.251 128.676 767.725 127.506 768.225 126.452C768.817 125.215 769.498 124.284 770.253 123.628C771.088 122.952 771.777 122.693 772.336 122.693C772.493 122.693 772.607 122.707 772.686 122.726C772.734 122.737 772.764 122.749 772.781 122.757C772.782 122.767 772.783 122.78 772.783 122.797C772.783 122.958 772.729 123.264 772.565 123.756L772.553 123.793L772.544 123.83C772.418 124.401 772.356 124.997 772.356 125.616C772.356 126.6 772.783 127.447 773.542 128.136C774.355 128.875 775.476 129.186 776.782 129.186C778.21 129.186 779.419 128.724 780.324 127.75C781.214 126.793 781.637 125.576 781.637 124.164C781.637 122.892 781.167 121.636 780.308 120.409C779.297 118.9 777.373 118.288 774.901 118.288C772.592 118.288 770.458 119.136 768.518 120.771C767.253 121.838 766.146 123.378 765.18 125.358L765.224 124.896C765.529 121.717 762.778 119.145 759.653 119.443C759.154 119.49 758.659 119.533 758.169 119.572C756.326 119.717 754.419 119.8 752.447 119.821C751.499 119.831 750.723 120.6 750.723 121.558C750.723 122.524 751.501 123.271 752.423 123.311C753.517 123.358 754.478 123.488 755.31 123.696L755.327 123.7L755.344 123.703C756.267 123.888 756.937 124.377 757.401 125.212Z" fill="black" stroke="black" stroke-width="1.5"/>
<path d="M708.368 100.769L708.384 100.781L708.401 100.792C708.841 101.071 709.226 101.573 709.503 102.404C709.782 103.239 709.935 104.361 709.935 105.797V147.487C709.935 150.036 709.762 151.791 709.455 152.819C709.171 153.713 708.691 154.22 708.04 154.468C707.251 154.729 706.058 154.976 704.431 155.201L703.97 155.258C703.079 155.37 702.41 156.127 702.41 157.025C702.41 158.025 703.234 158.829 704.234 158.804L713.677 158.574L723.121 158.804C724.121 158.829 724.945 158.025 724.945 157.025C724.945 156.127 724.276 155.37 723.385 155.258L722.924 155.201C721.308 154.978 720.083 154.732 719.232 154.469C718.647 154.226 718.187 153.725 717.9 152.819C717.593 151.792 717.42 150.037 717.42 147.487V131.385C717.42 130.821 717.521 130.295 717.749 129.845C718.217 128.92 718.849 127.951 719.652 126.937C720.668 125.654 721.957 124.578 723.531 123.711L723.539 123.706L723.548 123.701C725.077 122.805 726.798 122.352 728.726 122.352C731.257 122.352 733.122 123.073 734.428 124.429L734.433 124.434L734.438 124.439C735.735 125.734 736.441 127.679 736.441 130.401V147.487C736.441 150.037 736.269 151.791 735.962 152.819C735.678 153.713 735.198 154.22 734.547 154.468C733.758 154.729 732.564 154.976 730.937 155.201L730.476 155.258C729.586 155.37 728.917 156.127 728.917 157.025C728.917 158.025 729.741 158.829 730.74 158.804L740.184 158.574L749.628 158.804C750.628 158.829 751.451 158.025 751.451 157.025C751.451 156.127 750.783 155.37 749.892 155.258L749.431 155.201C747.814 154.978 746.59 154.732 745.738 154.469C745.153 154.226 744.694 153.725 744.407 152.819C744.099 151.791 743.927 150.037 743.927 147.487V130.401C743.927 126.592 742.729 123.573 740.25 121.464C737.853 119.318 734.608 118.289 730.607 118.289C727.292 118.289 724.357 119.088 721.828 120.71C721.119 121.146 720.005 121.151 719.008 120.727C718.001 120.299 717.42 119.577 717.42 118.854V101.812C717.42 98.2338 714.212 95.5984 710.729 95.9192C710.44 95.9458 710.152 95.9705 709.866 95.9931C708.02 96.09 706.111 96.1453 704.137 96.159C703.186 96.1656 702.41 96.9366 702.41 97.8948V98.2787C702.41 99.0235 703.014 99.6273 703.759 99.6273C705.839 99.6273 707.345 100.039 708.368 100.769Z" fill="black" stroke="black" stroke-width="1.5"/>
<path d="M686.39 156.817L686.399 156.826L686.408 156.834C688.335 158.636 690.809 159.514 693.76 159.514C695.211 159.514 696.583 159.272 697.87 158.783C699.248 158.281 700.459 157.438 701.502 156.274L701.503 156.272C701.985 155.73 702.461 155.106 702.931 154.401C703.275 153.905 703.582 153.385 703.852 152.842C704.309 151.926 703.87 150.887 703.027 150.466C702.107 150.006 701.028 150.393 700.546 151.245C699.966 152.269 699.343 153.153 698.68 153.9C697.927 154.695 696.939 155.109 695.642 155.109C694.075 155.109 692.999 154.568 692.278 153.547C691.525 152.478 691.09 150.782 691.09 148.341V127.712C691.09 125.365 692.993 123.462 695.34 123.462H700.217C701.221 123.462 702.035 122.648 702.035 121.644C702.035 120.64 701.221 119.826 700.217 119.826H695.34C692.993 119.826 691.09 117.924 691.09 115.576V111.422C691.09 110.354 690.225 109.489 689.158 109.489C688.178 109.489 687.381 110.216 687.226 111.147C686.799 113.72 686.053 115.707 685.026 117.152L685.026 117.152L685.023 117.156C683.972 118.656 682.425 119.501 680.281 119.658L680.281 119.658L678.998 119.753C678.028 119.824 677.277 120.632 677.277 121.605C677.277 122.631 678.109 123.462 679.135 123.462H681.191C682.524 123.462 683.605 124.543 683.605 125.876V147.999C683.605 151.903 684.476 154.904 686.39 156.817Z" fill="black" stroke="black" stroke-width="1.5"/>
<path d="M624.161 156.759L624.167 156.762C627.308 158.598 630.774 159.513 634.549 159.513C638.379 159.513 641.848 158.599 644.937 156.759C648.01 154.929 650.438 152.474 652.213 149.401C654.05 146.263 654.965 142.8 654.965 139.029C654.965 135.149 654.052 131.629 652.215 128.488C650.441 125.359 648.012 122.874 644.937 121.042C641.848 119.202 638.379 118.288 634.549 118.288C630.774 118.288 627.308 119.203 624.167 121.039L624.167 121.039L624.161 121.042C621.087 122.874 618.631 125.358 616.801 128.484L616.801 128.484L616.795 128.493C615.016 131.634 614.133 135.151 614.133 139.029C614.133 142.797 615.018 146.257 616.795 149.394L616.8 149.401L616.804 149.408C618.635 152.477 621.09 154.93 624.161 156.759ZM641.503 124.138L641.503 124.138L641.513 124.147C643.265 125.579 644.56 127.555 645.378 130.116C646.205 132.705 646.625 135.673 646.625 139.029C646.625 142.267 646.206 145.178 645.379 147.769C644.562 150.269 643.268 152.251 641.508 153.744C639.794 155.143 637.499 155.877 634.549 155.877C631.6 155.877 629.304 155.143 627.59 153.744C625.83 152.251 624.536 150.269 623.72 147.769C622.892 145.178 622.473 142.267 622.473 139.029C622.473 135.673 622.893 132.705 623.72 130.116C624.538 127.555 625.833 125.579 627.585 124.147L627.585 124.147L627.595 124.138C629.31 122.685 631.603 121.924 634.549 121.924C637.495 121.924 639.789 122.685 641.503 124.138Z" fill="black" stroke="black" stroke-width="1.5"/>
<path d="M596.39 156.817L596.399 156.826L596.408 156.834C598.335 158.636 600.809 159.514 603.76 159.514C605.211 159.514 606.583 159.272 607.87 158.783C609.248 158.281 610.459 157.438 611.502 156.274L611.503 156.272C611.985 155.73 612.461 155.106 612.931 154.401C613.275 153.905 613.582 153.385 613.852 152.842C614.309 151.926 613.87 150.887 613.027 150.466C612.107 150.006 611.028 150.393 610.546 151.245C609.966 152.269 609.343 153.153 608.68 153.9C607.927 154.695 606.939 155.109 605.642 155.109C604.075 155.109 602.999 154.568 602.278 153.547C601.525 152.478 601.09 150.782 601.09 148.341V127.712C601.09 125.365 602.993 123.462 605.34 123.462H610.217C611.221 123.462 612.035 122.648 612.035 121.644C612.035 120.64 611.221 119.826 610.217 119.826H605.34C602.993 119.826 601.09 117.924 601.09 115.576V111.422C601.09 110.354 600.225 109.489 599.158 109.489C598.178 109.489 597.381 110.216 597.226 111.147C596.799 113.72 596.053 115.707 595.026 117.152L595.026 117.152L595.023 117.156C593.972 118.656 592.425 119.501 590.281 119.658L590.281 119.658L588.998 119.753C588.028 119.824 587.277 120.632 587.277 121.605C587.277 122.631 588.109 123.462 589.135 123.462H591.191C592.524 123.462 593.605 124.543 593.605 125.876V147.999C593.605 151.903 594.476 154.904 596.39 156.817Z" fill="black" stroke="black" stroke-width="1.5"/>
<path d="M543.211 157.384L543.22 157.388L543.23 157.393C544.128 157.811 545.331 158.249 546.824 158.709C548.458 159.252 550.393 159.513 552.61 159.513C556.639 159.513 559.83 158.324 562.06 155.848C564.234 153.434 565.331 150.608 565.331 147.401C565.331 144.702 564.609 142.349 563.136 140.383C561.699 138.329 559.144 136.668 555.613 135.338C555.612 135.337 555.612 135.337 555.611 135.337L552.284 134.059C552.283 134.058 552.283 134.058 552.282 134.058C550.001 133.168 548.232 132.183 546.947 131.116C545.799 130.064 545.237 128.787 545.237 127.24C545.237 125.613 545.787 124.306 546.88 123.26C548.043 122.202 549.453 121.668 551.157 121.668C553.62 121.668 555.433 122.568 556.703 124.344L556.703 124.344L556.709 124.352C557.901 125.972 558.72 127.875 559.158 130.077C559.325 130.919 560.056 131.578 560.96 131.578C561.957 131.578 562.766 130.769 562.766 129.771V124.871L563.041 120.398C563.103 119.399 562.334 118.543 561.334 118.497C560.479 118.458 559.809 119.021 559.517 119.682C559.389 119.97 559.274 120.125 559.193 120.2C559.156 120.234 559.132 120.246 559.124 120.25C559.117 120.253 559.114 120.253 559.109 120.253C558.875 120.253 558.512 120.166 557.99 119.905C557.266 119.543 556.377 119.189 555.333 118.841C554.261 118.464 552.975 118.288 551.499 118.288C549.384 118.288 547.385 118.772 545.511 119.739L545.511 119.738L545.503 119.743C543.679 120.715 542.189 122.083 541.038 123.838L541.038 123.838L541.035 123.844C539.916 125.582 539.376 127.666 539.376 130.059C539.376 132.881 540.162 135.259 541.783 137.128L541.783 137.128L541.792 137.139C543.434 138.962 545.8 140.442 548.834 141.608C548.834 141.608 548.835 141.608 548.835 141.608L551.911 142.803L551.911 142.803L551.918 142.806C554.433 143.755 556.339 144.826 557.673 145.999L557.678 146.004L557.684 146.009C559.01 147.13 559.641 148.463 559.641 150.049C559.641 151.968 559.003 153.396 557.771 154.43C556.513 155.486 554.817 156.048 552.61 156.048C550.575 156.048 548.811 155.542 547.292 154.548C545.73 153.525 544.501 152.269 543.594 150.779C542.734 149.272 542.263 147.789 542.157 146.327L542.127 145.807C542.073 144.89 541.313 144.173 540.394 144.173C539.459 144.173 538.692 144.914 538.659 145.848L538.437 152.149L538.163 156.663C538.1 157.699 538.923 158.573 539.961 158.573C540.823 158.573 541.519 157.97 541.731 157.195C541.771 157.048 541.805 156.939 541.834 156.862C541.846 156.828 541.856 156.805 541.862 156.792C541.863 156.792 541.864 156.793 541.866 156.793C541.932 156.812 542.028 156.845 542.157 156.897C542.414 156.999 542.764 157.16 543.211 157.384Z" fill="black" stroke="black" stroke-width="1.5"/>
<path d="M495.309 178.294L495.281 178.303L495.254 178.314C494.485 178.621 493.303 178.896 491.673 179.121L491.212 179.178C490.321 179.289 489.652 180.047 489.652 180.945C489.652 181.945 490.476 182.748 491.476 182.724L500.92 182.494L510.363 182.724C511.363 182.748 512.187 181.945 512.187 180.945C512.187 180.047 511.518 179.289 510.627 179.178L510.166 179.121C508.538 178.896 507.319 178.621 506.484 178.308L506.471 178.303L506.458 178.298C505.905 178.114 505.44 177.646 505.144 176.659L505.144 176.658L505.14 176.648C504.836 175.685 504.662 173.965 504.662 171.407V159.937C504.662 159.155 505.166 158.461 505.974 158.05C506.785 157.637 507.768 157.587 508.529 157.978L508.536 157.982L508.544 157.986C510.649 159.007 512.957 159.513 515.456 159.513C519.011 159.513 522.18 158.593 524.935 156.739C527.724 154.9 529.917 152.439 531.512 149.37L531.515 149.365C533.112 146.233 533.905 142.783 533.905 139.029C533.905 135.165 533.113 131.657 531.515 128.522C529.923 125.4 527.761 122.908 525.027 121.067C522.329 119.211 519.244 118.288 515.798 118.288C513.118 118.288 510.658 118.884 508.433 120.085C507.537 120.558 506.683 121.098 505.872 121.706C505.63 121.887 505.26 121.912 504.924 121.748C504.593 121.586 504.456 121.33 504.482 121.088C504.622 119.728 503.429 118.624 502.094 118.831C500.373 119.099 498.701 119.318 497.079 119.488C495.242 119.682 493.34 119.792 491.374 119.819C490.429 119.832 489.652 120.599 489.652 121.558C489.652 122.524 490.43 123.271 491.352 123.311C492.447 123.358 493.408 123.488 494.239 123.696L494.257 123.7L494.274 123.703C495.213 123.891 495.883 124.366 496.34 125.143L496.353 125.165L496.368 125.187C496.863 125.905 497.177 127.194 497.177 129.204V171.407C497.177 173.965 497.003 175.685 496.699 176.648L496.699 176.648L496.696 176.659C496.405 177.625 495.924 178.102 495.309 178.294ZM508.921 123.949L508.921 123.949L508.927 123.946C510.621 122.888 512.562 122.351 514.771 122.351C517.237 122.351 519.181 123.069 520.674 124.457L520.674 124.457L520.683 124.465C522.278 125.899 523.497 127.857 524.319 130.377C525.145 132.908 525.565 135.789 525.565 139.029C525.565 142.209 525.146 145.061 524.32 147.593C523.5 150.051 522.283 151.981 520.688 153.417C519.136 154.758 517.155 155.45 514.686 155.45C512.484 155.45 510.483 154.889 508.667 153.768C507.309 152.93 506.218 152.032 505.38 151.079C504.891 150.524 504.662 149.749 504.662 148.9V129.116C504.662 128.116 504.994 127.181 505.645 126.528C506.627 125.546 507.718 124.686 508.921 123.949Z" fill="black" stroke="black" stroke-width="1.5"/>
<path d="M474.735 124.434L474.751 124.445L474.768 124.456C475.208 124.735 475.593 125.237 475.87 126.068C476.149 126.903 476.302 128.025 476.302 129.461V147.487C476.302 150.037 476.129 151.792 475.822 152.819C475.538 153.713 475.058 154.221 474.407 154.469C473.619 154.73 472.425 154.977 470.798 155.201L470.337 155.259C469.446 155.37 468.777 156.127 468.777 157.025C468.777 158.025 469.601 158.829 470.601 158.804L480.045 158.574L489.488 158.804C490.488 158.829 491.312 158.025 491.312 157.025C491.312 156.127 490.643 155.37 489.752 155.259L489.291 155.201C487.675 154.978 486.451 154.732 485.599 154.469C485.014 154.226 484.555 153.725 484.267 152.819C483.96 151.792 483.787 150.037 483.787 147.487V125.477C483.787 121.898 480.579 119.263 477.096 119.584C476.807 119.61 476.519 119.635 476.233 119.657C474.387 119.754 472.478 119.81 470.505 119.823C469.553 119.83 468.777 120.601 468.777 121.559V121.943C468.777 122.688 469.381 123.292 470.126 123.292C472.206 123.292 473.712 123.704 474.735 124.434ZM474.937 108.499C475.951 109.715 477.342 110.306 479.018 110.306C480.826 110.306 482.285 109.739 483.21 108.469C484.115 107.301 484.557 105.914 484.557 104.345C484.557 102.732 484.121 101.335 483.203 100.213C482.279 98.9485 480.822 98.3839 479.018 98.3839C477.345 98.3839 475.957 98.9724 474.944 100.183C473.955 101.307 473.48 102.714 473.48 104.345C473.48 105.932 473.961 107.33 474.937 108.499Z" fill="black" stroke="black" stroke-width="1.5"/>
<path d="M426.423 100.769L426.439 100.781L426.456 100.792C426.895 101.071 427.28 101.573 427.558 102.404C427.836 103.239 427.989 104.361 427.989 105.797V147.487C427.989 150.037 427.817 151.791 427.51 152.819C427.226 153.713 426.746 154.22 426.094 154.468C425.306 154.729 424.112 154.976 422.485 155.201L422.024 155.258C421.133 155.37 420.465 156.127 420.465 157.025C420.465 158.025 421.288 158.829 422.288 158.804L431.732 158.574L441.176 158.804C442.176 158.829 442.999 158.025 442.999 157.025C442.999 156.127 442.331 155.37 441.44 155.258L440.979 155.201C439.362 154.978 438.138 154.732 437.286 154.469C436.701 154.226 436.242 153.725 435.955 152.819C435.647 151.792 435.475 150.037 435.475 147.487V131.385C435.475 130.821 435.576 130.295 435.804 129.845C436.272 128.92 436.904 127.951 437.707 126.937C438.723 125.654 440.012 124.578 441.585 123.711L441.594 123.706L441.602 123.701C443.132 122.805 444.852 122.352 446.781 122.352C449.312 122.352 451.176 123.073 452.483 124.429L452.488 124.434L452.493 124.439C453.79 125.734 454.496 127.679 454.496 130.401V147.487C454.496 150.036 454.324 151.791 454.016 152.819C453.732 153.713 453.253 154.22 452.601 154.468C451.813 154.729 450.619 154.976 448.992 155.201L448.531 155.258C447.64 155.37 446.972 156.127 446.972 157.025C446.972 158.025 447.795 158.829 448.795 158.804L458.239 158.574L467.683 158.804C468.682 158.829 469.506 158.025 469.506 157.025C469.506 156.127 468.837 155.37 467.947 155.258L467.486 155.201C465.869 154.978 464.645 154.732 463.793 154.469C463.208 154.226 462.749 153.725 462.461 152.819C462.154 151.791 461.982 150.036 461.982 147.487V130.401C461.982 126.592 460.784 123.573 458.304 121.464C455.908 119.318 452.663 118.289 448.662 118.289C445.347 118.289 442.411 119.088 439.883 120.71C439.174 121.146 438.059 121.151 437.063 120.727C436.055 120.299 435.475 119.577 435.475 118.854V101.812C435.475 98.2338 432.267 95.5984 428.784 95.9192C428.494 95.9458 428.207 95.9705 427.921 95.9931C426.075 96.09 424.165 96.1453 422.192 96.159C421.241 96.1656 420.465 96.9366 420.465 97.8948V98.2787C420.465 99.0235 421.069 99.6273 421.813 99.6273C423.894 99.6273 425.4 100.039 426.423 100.769Z" fill="black" stroke="black" stroke-width="1.5"/>
<path d="M398.239 157.384L398.248 157.388L398.257 157.393C399.155 157.811 400.358 158.249 401.851 158.709C403.486 159.252 405.42 159.513 407.638 159.513C411.666 159.513 414.857 158.324 417.087 155.848C419.261 153.434 420.358 150.608 420.358 147.401C420.358 144.702 419.636 142.349 418.164 140.383C416.726 138.329 414.172 136.668 410.64 135.338C410.64 135.337 410.639 135.337 410.638 135.337L407.311 134.059C407.311 134.058 407.31 134.058 407.31 134.058C405.028 133.168 403.259 132.183 401.974 131.116C400.826 130.064 400.264 128.787 400.264 127.24C400.264 125.613 400.814 124.306 401.907 123.26C403.07 122.202 404.481 121.668 406.184 121.668C408.647 121.668 410.461 122.568 411.73 124.344L411.73 124.344L411.736 124.352C412.928 125.972 413.748 127.875 414.185 130.077C414.353 130.919 415.084 131.578 415.987 131.578C416.984 131.578 417.793 130.769 417.793 129.771V124.871L418.069 120.398C418.13 119.399 417.361 118.543 416.361 118.497C415.506 118.458 414.836 119.021 414.544 119.682C414.417 119.97 414.301 120.125 414.221 120.2C414.183 120.234 414.16 120.246 414.151 120.25C414.145 120.253 414.141 120.253 414.136 120.253C413.903 120.253 413.539 120.166 413.018 119.905C412.293 119.543 411.405 119.189 410.36 118.841C409.288 118.464 408.003 118.288 406.526 118.288C404.412 118.288 402.413 118.772 400.539 119.739L400.539 119.738L400.53 119.743C398.706 120.715 397.216 122.083 396.066 123.838L396.066 123.838L396.062 123.844C394.944 125.582 394.404 127.666 394.404 130.059C394.404 132.881 395.189 135.259 396.81 137.128L396.81 137.128L396.82 137.139C398.462 138.962 400.827 140.442 403.861 141.608C403.862 141.608 403.862 141.608 403.863 141.608L406.938 142.803L406.938 142.803L406.945 142.806C409.46 143.755 411.366 144.826 412.7 145.999L412.706 146.004L412.711 146.009C414.037 147.13 414.669 148.463 414.669 150.049C414.669 151.968 414.03 153.396 412.799 154.43C411.54 155.486 409.845 156.048 407.638 156.048C405.603 156.048 403.839 155.542 402.319 154.548C400.757 153.525 399.529 152.269 398.621 150.779C397.761 149.272 397.29 147.789 397.185 146.327L397.154 145.807C397.1 144.89 396.34 144.173 395.421 144.173C394.486 144.173 393.72 144.914 393.687 145.848L393.464 152.149L393.19 156.663C393.127 157.699 393.95 158.573 394.988 158.573C395.851 158.573 396.546 157.97 396.758 157.195C396.798 157.048 396.833 156.939 396.861 156.862C396.874 156.828 396.883 156.805 396.889 156.792C396.89 156.792 396.892 156.793 396.893 156.793C396.96 156.812 397.055 156.845 397.184 156.897C397.441 156.999 397.791 157.16 398.239 157.384Z" fill="black" stroke="black" stroke-width="1.5"/>
<path d="M348.825 124.433L348.841 124.444L348.858 124.455C349.298 124.735 349.683 125.236 349.96 126.067C350.239 126.903 350.392 128.025 350.392 129.461V147.486C350.392 150.036 350.219 151.791 349.912 152.818C349.628 153.713 349.148 154.22 348.497 154.468C347.709 154.729 346.515 154.976 344.888 155.2L344.427 155.258L344.52 156.002L344.427 155.258C343.536 155.369 342.867 156.126 342.867 157.024C342.867 158.024 343.691 158.828 344.691 158.804L354.134 158.574L363.578 158.804C364.578 158.828 365.402 158.024 365.402 157.024C365.402 156.126 364.733 155.369 363.842 155.258L363.381 155.2C361.765 154.977 360.541 154.731 359.689 154.468C359.104 154.226 358.644 153.724 358.357 152.818C358.05 151.791 357.877 150.036 357.877 147.486V131.384C357.877 130.821 357.978 130.295 358.206 129.845C358.674 128.92 359.306 127.95 360.109 126.936C361.125 125.654 362.414 124.577 363.988 123.71L363.996 123.706L364.005 123.701C365.535 122.805 367.255 122.351 369.183 122.351C371.714 122.351 373.579 123.073 374.885 124.428L374.89 124.433L374.895 124.438C376.192 125.734 376.898 127.678 376.898 130.4V147.486C376.898 150.036 376.726 151.791 376.419 152.819C376.135 153.713 375.655 154.22 375.004 154.468C374.215 154.729 373.021 154.976 371.394 155.2L370.933 155.258C370.043 155.369 369.374 156.126 369.374 157.024C369.374 158.024 370.198 158.828 371.197 158.804L380.641 158.574L390.085 158.804C391.085 158.828 391.908 158.024 391.908 157.024C391.908 156.126 391.24 155.369 390.349 155.258L389.888 155.2C388.271 154.977 387.047 154.731 386.195 154.468C385.61 154.226 385.151 153.724 384.864 152.818C384.556 151.791 384.384 150.036 384.384 147.486V130.4C384.384 126.592 383.186 123.573 380.707 121.463C378.31 119.318 375.065 118.288 371.065 118.288C367.749 118.288 364.813 119.088 362.285 120.71C361.517 121.186 360.801 121.685 360.136 122.21C359.797 122.478 359.226 122.539 358.683 122.329C358.14 122.119 357.877 121.746 357.877 121.395C357.877 119.962 356.591 118.893 355.196 119.099C353.524 119.346 351.9 119.532 350.323 119.657C348.477 119.754 346.568 119.809 344.594 119.823C343.643 119.829 342.867 120.6 342.867 121.558V121.942C342.867 122.687 343.471 123.291 344.216 123.291C346.296 123.291 347.802 123.703 348.825 124.433Z" fill="black" stroke="black" stroke-width="1.5"/>
<path d="M309.899 156.759L309.905 156.762C313.046 158.598 316.512 159.513 320.287 159.513C324.117 159.513 327.587 158.599 330.675 156.759C333.748 154.929 336.177 152.474 337.951 149.401C339.788 146.263 340.704 142.8 340.704 139.029C340.704 135.149 339.791 131.629 337.953 128.488C336.179 125.359 333.751 122.874 330.675 121.042C327.587 119.202 324.117 118.288 320.287 118.288C316.512 118.288 313.046 119.203 309.905 121.039L309.905 121.039L309.899 121.042C306.825 122.874 304.369 125.358 302.539 128.484L302.539 128.484L302.534 128.493C300.754 131.634 299.871 135.151 299.871 139.029C299.871 142.797 300.756 146.257 302.534 149.394L302.538 149.401L302.542 149.408C304.373 152.477 306.828 154.93 309.899 156.759ZM327.241 124.138L327.241 124.138L327.252 124.147C329.004 125.579 330.298 127.555 331.116 130.116C331.943 132.705 332.363 135.673 332.363 139.029C332.363 142.267 331.944 145.178 331.117 147.769C330.301 150.269 329.006 152.251 327.247 153.744C325.532 155.143 323.237 155.877 320.287 155.877C317.338 155.877 315.042 155.143 313.328 153.744C311.568 152.251 310.274 150.269 309.458 147.769C308.631 145.178 308.212 142.267 308.212 139.029C308.212 135.673 308.632 132.705 309.459 130.116C310.277 127.555 311.571 125.579 313.323 124.147L313.323 124.147L313.333 124.138C315.048 122.685 317.341 121.924 320.287 121.924C323.233 121.924 325.527 122.685 327.241 124.138Z" fill="black" stroke="black" stroke-width="1.5"/>
<path d="M282.645 124.434L282.662 124.445L282.678 124.456C283.118 124.735 283.503 125.237 283.78 126.068C284.059 126.903 284.212 128.025 284.212 129.461V147.487C284.212 150.037 284.04 151.792 283.732 152.819C283.448 153.713 282.969 154.221 282.317 154.469C281.529 154.73 280.335 154.977 278.708 155.201L278.247 155.259C277.356 155.37 276.688 156.127 276.688 157.025C276.688 158.025 277.511 158.829 278.511 158.804L287.955 158.574L297.398 158.804C298.398 158.829 299.222 158.025 299.222 157.025C299.222 156.127 298.553 155.37 297.662 155.259L297.202 155.201C295.585 154.978 294.361 154.732 293.509 154.469C292.924 154.226 292.465 153.725 292.177 152.819C291.87 151.792 291.697 150.037 291.697 147.487V125.477C291.697 121.898 288.49 119.263 285.006 119.584C284.717 119.61 284.429 119.635 284.143 119.657C282.297 119.754 280.388 119.81 278.415 119.823C277.464 119.83 276.688 120.601 276.688 121.559V121.943C276.688 122.688 277.291 123.292 278.036 123.292C280.116 123.292 281.623 123.704 282.645 124.434ZM282.847 108.499C283.861 109.715 285.252 110.306 286.929 110.306C288.736 110.306 290.196 109.739 291.12 108.469C292.025 107.301 292.467 105.914 292.467 104.345C292.467 102.732 292.031 101.335 291.114 100.213C290.189 98.9485 288.732 98.3839 286.929 98.3839C285.256 98.3839 283.868 98.9724 282.854 100.183C281.865 101.307 281.39 102.714 281.39 104.345C281.39 105.932 281.872 107.33 282.847 108.499Z" fill="black" stroke="black" stroke-width="1.5"/>
<path d="M259.558 156.817L259.567 156.826L259.576 156.834C261.503 158.636 263.977 159.514 266.928 159.514C268.379 159.514 269.751 159.272 271.038 158.783C272.416 158.281 273.627 157.438 274.67 156.274L274.671 156.272C275.153 155.73 275.629 155.106 276.099 154.401C276.443 153.905 276.75 153.385 277.02 152.842C277.477 151.926 277.038 150.887 276.195 150.466L275.859 151.137L276.195 150.466C275.275 150.006 274.196 150.393 273.714 151.245C273.134 152.269 272.511 153.153 271.848 153.9C271.095 154.695 270.107 155.109 268.809 155.109C267.243 155.109 266.166 154.568 265.446 153.547C264.693 152.478 264.258 150.782 264.258 148.341V127.712C264.258 125.365 266.161 123.462 268.508 123.462H273.385C274.389 123.462 275.203 122.648 275.203 121.644C275.203 120.64 274.389 119.826 273.385 119.826H268.508C266.161 119.826 264.258 117.924 264.258 115.576V111.422C264.258 110.354 263.393 109.489 262.326 109.489C261.346 109.489 260.549 110.216 260.394 111.147C259.967 113.72 259.22 115.707 258.194 117.152L258.194 117.152L258.191 117.156C257.14 118.656 255.593 119.501 253.449 119.658L253.449 119.658L252.166 119.753C251.196 119.824 250.445 120.632 250.445 121.605C250.445 122.631 251.277 123.462 252.303 123.462H254.359C255.692 123.462 256.773 124.543 256.773 125.876V147.999C256.773 151.903 257.644 154.904 259.558 156.817Z" fill="black" stroke="black" stroke-width="1.5"/>
<path d="M215.735 157.297L215.745 157.305L215.756 157.313C217.734 158.795 220.181 159.513 223.046 159.513C226.076 159.513 228.882 158.799 231.449 157.368C232.208 156.944 232.929 156.465 233.611 155.932C234.081 155.563 234.946 155.448 235.924 155.69C236.893 155.929 237.706 156.455 238.055 157.021L238.064 157.035L238.073 157.049C239.239 158.761 241.274 159.513 243.909 159.513C246.069 159.513 247.858 159.004 249.176 157.888C250.304 156.974 251.128 155.79 251.652 154.357C251.953 153.534 251.488 152.697 250.746 152.409C249.862 152.065 248.999 152.575 248.631 153.248C248.434 153.609 248.168 153.961 247.825 154.303C247.333 154.794 246.781 155.023 246.132 155.023C245.612 155.023 245.246 154.89 244.976 154.675C244.703 154.456 244.46 154.098 244.291 153.526C243.974 152.248 243.804 150.388 243.804 147.914V132.536C243.804 127.669 242.735 123.981 240.421 121.669C238.112 119.362 234.542 118.288 229.886 118.288C227.712 118.288 225.459 118.581 223.129 119.163C220.761 119.696 218.72 120.62 217.026 121.95C215.295 123.296 214.429 125.143 214.429 127.41C214.429 128.666 214.832 129.78 215.636 130.718L215.645 130.728L215.654 130.739C216.483 131.636 217.54 132.09 218.771 132.09C219.992 132.09 221.071 131.766 221.964 131.081L221.964 131.081L221.97 131.076C222.962 130.297 223.454 129.218 223.454 127.923C223.454 127.194 223.347 126.484 223.132 125.795C223.076 125.613 223.023 125.435 222.969 125.249C222.944 125.165 222.919 125.08 222.893 124.992C222.871 124.918 222.851 124.851 222.832 124.789C222.761 124.559 222.713 124.401 222.697 124.235C222.688 124.146 222.684 124.066 222.684 123.993C222.684 123.644 222.796 123.381 223.02 123.157C223.264 122.913 223.683 122.676 224.352 122.496C225.771 122.115 227.216 121.924 228.689 121.924C231.864 121.924 233.747 122.681 234.671 123.927L234.676 123.934L234.681 123.941C235.73 125.289 236.319 127.426 236.319 130.486C236.319 131.826 235.498 133.032 234.249 133.534C233.268 133.929 232.203 134.362 231.055 134.832C228.804 135.755 226.555 136.85 224.309 138.116C221.303 139.733 218.663 141.558 216.393 143.593C214.04 145.643 212.805 148.058 212.805 150.818C212.805 153.524 213.771 155.715 215.735 157.297ZM230.14 153.74L230.14 153.74L230.129 153.746C228.755 154.485 227.309 154.852 225.782 154.852C224.089 154.852 222.908 154.433 222.123 153.704C221.377 152.904 220.974 151.825 220.974 150.391C220.974 148.781 221.439 147.307 222.38 145.949L222.38 145.949L222.387 145.938C223.363 144.475 224.645 143.109 226.243 141.842C227.918 140.559 229.705 139.415 231.605 138.41L231.605 138.41L231.612 138.407C233.756 137.244 236.319 138.836 236.319 141.392V146.437C236.319 146.991 236.222 147.506 236.003 147.947C235.493 148.976 234.812 149.962 233.955 150.905C232.876 152.035 231.606 152.981 230.14 153.74Z" fill="black" stroke="black" stroke-width="1.5"/>
<path d="M194.708 100.769L194.724 100.781L194.741 100.792C195.181 101.071 195.566 101.573 195.843 102.404C196.121 103.239 196.275 104.361 196.275 105.797V147.487C196.275 150.036 196.102 151.791 195.795 152.819C195.511 153.713 195.031 154.22 194.38 154.468C193.591 154.729 192.397 154.976 190.77 155.201L190.309 155.258C189.419 155.37 188.75 156.127 188.75 157.025C188.75 158.025 189.574 158.829 190.573 158.804L200.017 158.574L209.461 158.804C210.461 158.829 211.284 158.025 211.284 157.025C211.284 156.127 210.616 155.37 209.725 155.258L209.264 155.201C207.647 154.978 206.423 154.732 205.571 154.469C204.986 154.226 204.527 153.725 204.24 152.819C203.932 151.792 203.76 150.037 203.76 147.487V101.812C203.76 98.2338 200.552 95.5984 197.069 95.9192C196.78 95.9458 196.492 95.9705 196.206 95.9931C194.36 96.09 192.45 96.1453 190.477 96.159C189.526 96.1656 188.75 96.9366 188.75 97.8948V98.2787C188.75 99.0235 189.354 99.6273 190.099 99.6273C192.179 99.6273 193.685 100.039 194.708 100.769Z" fill="black" stroke="black" stroke-width="1.5"/>
<path d="M162.39 157.017L162.39 157.017L162.4 157.022C165.324 158.692 168.734 159.513 172.605 159.513C176.403 159.513 179.637 158.676 182.262 156.954C184.89 155.229 186.848 152.656 188.157 149.289C188.535 148.316 188.01 147.268 187.076 146.917C186.105 146.554 185.065 147.051 184.662 147.948C183.6 150.31 182.194 152.106 180.459 153.372C178.542 154.754 176.333 155.45 173.802 155.45C171.096 155.45 168.842 154.724 166.996 153.303C165.178 151.859 163.801 149.927 162.875 147.48C161.94 144.951 161.469 142.221 161.469 139.285C161.469 138.385 162.229 137.643 163.199 137.643H185.671C186.566 137.643 187.418 137.04 187.543 136.046C187.605 135.549 187.634 134.946 187.634 134.245C187.634 129.547 186.338 125.682 183.683 122.726C181.063 119.746 177.422 118.288 172.861 118.288C169.246 118.288 165.916 119.238 162.888 121.135C159.922 122.973 157.555 125.52 155.787 128.757C154.008 131.958 153.129 135.616 153.129 139.712C153.129 143.521 153.922 146.947 155.525 149.973L155.529 149.981L155.533 149.989C157.194 152.951 159.482 155.297 162.39 157.017ZM179.732 131.485L179.728 131.492L179.724 131.5C179.378 132.147 178.636 132.796 177.344 133.389C176.174 133.895 174.361 134.178 171.835 134.178H166.554C165.284 134.178 164.15 133.616 163.443 132.779C162.746 131.951 162.468 130.865 162.862 129.734C163.444 128.064 164.211 126.621 165.157 125.396C166.994 123.092 169.53 121.924 172.861 121.924C174.785 121.924 176.527 122.568 178.11 123.886C179.626 125.148 180.405 126.89 180.405 129.204C180.405 129.904 180.196 130.661 179.732 131.485Z" fill="black" stroke="black" stroke-width="1.5"/>
<path d="M128.272 125.212L128.28 125.226L128.288 125.239C128.804 126.083 129.118 127.534 129.118 129.717V147.486C129.118 150.036 128.946 151.791 128.638 152.818C128.355 153.713 127.875 154.22 127.223 154.468C126.435 154.729 125.241 154.976 123.614 155.2L123.153 155.258C122.262 155.369 121.594 156.126 121.594 157.024C121.594 158.024 122.417 158.828 123.417 158.804L132.861 158.574L142.305 158.804C143.305 158.828 144.128 158.024 144.128 157.024C144.128 156.126 143.46 155.369 142.569 155.258L142.108 155.2C140.491 154.977 139.267 154.731 138.415 154.468C137.83 154.226 137.371 153.724 137.083 152.818C136.776 151.791 136.604 150.036 136.604 147.486V134.448C136.604 134.186 136.627 133.93 136.676 133.684C136.942 132.348 137.275 131.108 137.674 129.964C138.122 128.676 138.596 127.506 139.096 126.452C139.688 125.215 140.369 124.284 141.124 123.628C141.959 122.952 142.648 122.693 143.207 122.693C143.364 122.693 143.478 122.707 143.557 122.726C143.606 122.737 143.635 122.749 143.652 122.757C143.653 122.767 143.654 122.78 143.654 122.797C143.654 122.958 143.6 123.264 143.436 123.756L143.424 123.793L143.416 123.83C143.289 124.401 143.227 124.997 143.227 125.616C143.227 126.6 143.654 127.447 144.413 128.136C145.226 128.875 146.347 129.186 147.653 129.186C149.081 129.186 150.291 128.724 151.196 127.75C152.085 126.793 152.508 125.576 152.508 124.164C152.508 122.892 152.038 121.636 151.18 120.409C150.168 118.9 148.244 118.288 145.772 118.288C143.463 118.288 141.33 119.136 139.389 120.771C138.124 121.838 137.017 123.378 136.051 125.358L136.095 124.896C136.4 121.717 133.649 119.145 130.524 119.443C130.025 119.49 129.53 119.533 129.04 119.572C127.197 119.717 125.29 119.8 123.318 119.821C122.37 119.831 121.594 120.6 121.594 121.558C121.594 122.524 122.372 123.271 123.294 123.311C124.389 123.358 125.349 123.488 126.181 123.696L126.198 123.7L126.216 123.703C127.138 123.888 127.808 124.377 128.272 125.212Z" fill="black" stroke="black" stroke-width="1.5"/>
<path d="M77.3699 125.212L77.3774 125.226L77.3855 125.239C77.9019 126.083 78.2159 127.534 78.2159 129.717V147.486C78.2159 150.036 78.0434 151.791 77.7361 152.818C77.4522 153.713 76.9725 154.22 76.321 154.468C75.5327 154.729 74.3389 154.976 72.7118 155.2L72.2509 155.258C71.36 155.369 70.6914 156.126 70.6914 157.024C70.6914 158.024 71.515 158.828 72.5148 158.804L81.9586 158.574L91.4024 158.804C92.4022 158.828 93.2258 158.024 93.2258 157.024C93.2258 156.126 92.5572 155.369 91.6664 155.258L91.2054 155.2C89.5889 154.977 88.3647 154.731 87.5128 154.468C86.9277 154.226 86.4686 153.724 86.1811 152.818C85.8738 151.791 85.7013 150.036 85.7013 147.486V134.448C85.7013 134.186 85.7244 133.93 85.7736 133.684C86.0397 132.348 86.3727 131.108 86.7712 129.964C87.2195 128.676 87.6939 127.506 88.1935 126.452C88.7857 125.215 89.467 124.284 90.2216 123.628C91.0568 122.952 91.7458 122.693 92.3048 122.693C92.4621 122.693 92.5761 122.707 92.6549 122.726C92.7032 122.737 92.7331 122.749 92.7498 122.757C92.7509 122.767 92.7519 122.78 92.7519 122.797C92.7519 122.958 92.698 123.264 92.5339 123.756L92.5217 123.793L92.5133 123.83C92.3864 124.401 92.3243 124.997 92.3243 125.616C92.3243 126.6 92.752 127.447 93.5107 128.136C94.3236 128.875 95.4444 129.186 96.7511 129.186C98.1789 129.186 99.3882 128.724 100.293 127.75C101.183 126.793 101.605 125.576 101.605 124.164C101.605 122.892 101.136 121.636 100.277 120.409C99.2658 118.9 97.3421 118.288 94.87 118.288C92.5607 118.288 90.4272 119.136 88.4867 120.771C87.222 121.838 86.1148 123.378 85.1488 125.358L85.193 124.896C85.4974 121.717 82.7467 119.145 79.6217 119.443C79.1224 119.49 78.6276 119.533 78.1374 119.572C76.2944 119.717 74.3874 119.8 72.4161 119.821C71.4675 119.831 70.6914 120.6 70.6914 121.558C70.6914 122.524 71.4693 123.271 72.3914 123.311C73.4862 123.358 74.4468 123.488 75.2784 123.696L75.2957 123.7L75.3132 123.703C76.2354 123.888 76.9056 124.377 77.3699 125.212Z" fill="black" stroke="black" stroke-width="1.5"/>
<path d="M37.7236 156.759L37.729 156.762C40.8701 158.598 44.3363 159.513 48.1116 159.513C51.9416 159.513 55.4107 158.599 58.4996 156.759C61.5722 154.929 64.0009 152.474 65.7756 149.401C67.6122 146.263 68.5279 142.8 68.5279 139.029C68.5279 135.149 67.6148 131.629 65.7773 128.488C64.0035 125.359 61.5749 122.874 58.4996 121.042C55.4107 119.202 51.9416 118.288 48.1116 118.288C44.3363 118.288 40.8701 119.203 37.729 121.039L37.729 121.039L37.7237 121.042C34.6491 122.874 32.1934 125.358 30.3632 128.484L30.3632 128.484L30.3579 128.493C28.5787 131.634 27.6953 135.151 27.6953 139.029C27.6953 142.797 28.5807 146.257 30.3579 149.394L30.3621 149.401L30.3664 149.408C32.1974 152.477 34.6525 154.93 37.7236 156.759ZM55.0656 124.138L55.0656 124.138L55.0759 124.147C56.828 125.579 58.1225 127.555 58.9405 130.116C59.7675 132.705 60.1875 135.673 60.1875 139.029C60.1875 142.267 59.7685 145.178 58.9412 147.769C58.1247 150.269 56.8307 152.251 55.0708 153.744C53.3566 155.143 51.061 155.877 48.1116 155.877C45.1622 155.877 42.8666 155.143 41.1525 153.744C39.3926 152.251 38.0985 150.269 37.2821 147.769C36.4548 145.178 36.0358 142.267 36.0358 139.029C36.0358 135.673 36.4557 132.705 37.2828 130.116C38.1008 127.555 39.3952 125.579 41.1473 124.147L41.1474 124.147L41.1576 124.138C42.8722 122.685 45.1656 121.924 48.1116 121.924C51.0577 121.924 53.3511 122.685 55.0656 124.138Z" fill="black" stroke="black" stroke-width="1.5"/>
<path d="M12.4146 98.9446L12.4146 98.9446L12.4081 98.9512C9.92833 101.491 8.7745 105.515 8.7745 110.837V116.9C8.7745 118.516 7.46415 119.826 5.84776 119.826H3.23888C2.2349 119.826 1.42101 120.64 1.42101 121.644C1.42101 122.648 2.2349 123.462 3.23888 123.462H5.84776C7.46415 123.462 8.7745 124.772 8.7745 126.389V147.487C8.7745 150.036 8.602 151.791 8.29472 152.819C8.01083 153.713 7.53105 154.22 6.87958 154.468C6.0913 154.729 4.89742 154.976 3.27035 155.201L2.80946 155.258C1.91858 155.369 1.25 156.127 1.25 157.025C1.25 158.025 2.07364 158.828 3.07342 158.804L12.5172 158.574L21.961 158.804C22.9608 158.828 23.7844 158.025 23.7844 157.025C23.7844 156.127 23.1158 155.369 22.2249 155.258L21.764 155.201C20.1475 154.978 18.9233 154.732 18.0715 154.469C17.4863 154.226 17.0272 153.725 16.7397 152.819C16.4324 151.791 16.2599 150.036 16.2599 147.487V127.116C16.2599 125.098 17.8956 123.462 19.9134 123.462H23.2491C24.2531 123.462 25.067 122.648 25.067 121.644C25.067 120.64 24.2531 119.826 23.2491 119.826H19.9134C17.8956 119.826 16.2599 118.191 16.2599 116.173V110.837C16.2599 108.542 16.4277 106.455 16.7596 104.571C17.1372 102.746 17.8238 101.353 18.7829 100.341C19.7393 99.3894 21.1724 98.8583 23.2054 98.8583C23.826 98.8583 24.386 99.0001 24.8987 99.2795L24.9226 99.2925L24.9474 99.3038C25.1449 99.3935 25.2557 99.4999 25.3232 99.6103C25.3928 99.7241 25.4481 99.8946 25.4481 100.159C25.4481 100.312 25.398 100.583 25.2394 101.006L25.2345 101.019L25.2301 101.032C25.1122 101.385 24.995 101.766 24.8785 102.174C24.7397 102.659 24.6786 103.217 24.6786 103.832C24.6786 104.953 25.1064 105.956 25.9038 106.819L25.9139 106.83L25.9245 106.84C26.8115 107.726 27.9165 108.17 29.1908 108.17C30.5102 108.17 31.6643 107.735 32.6081 106.859L32.6095 106.858C33.655 105.883 34.1306 104.522 34.1306 102.892C34.1306 100.356 33.0269 98.4002 30.8604 97.1241C28.7765 95.8403 26.2104 95.2226 23.2054 95.2226C18.5773 95.2226 14.9373 96.4242 12.4146 98.9446Z" fill="black" stroke="black" stroke-width="1.5"/>
<path d="M807.819 63.044L807.819 63.0441L807.829 63.0498C810.753 64.7194 814.164 65.5405 818.034 65.5405C821.833 65.5405 825.067 64.7033 827.691 62.9811C830.319 61.2567 832.277 58.6839 833.586 55.3163C833.964 54.3436 833.44 53.295 832.505 52.9449C831.534 52.581 830.494 53.0783 830.091 53.9755C829.029 56.3371 827.624 58.1332 825.888 59.399C823.972 60.7815 821.762 61.4776 819.231 61.4776C816.526 61.4776 814.271 60.7516 812.425 59.3302C810.607 57.8864 809.231 55.9545 808.305 53.5074C807.37 50.978 806.899 48.2484 806.899 45.3125C806.899 44.4125 807.658 43.6705 808.628 43.6705H831.101C831.996 43.6705 832.848 43.0675 832.972 42.0739C833.034 41.5764 833.064 40.9733 833.064 40.2722C833.064 35.5741 831.767 31.7096 829.112 28.7536C826.492 25.7731 822.851 24.3157 818.291 24.3157C814.675 24.3157 811.345 25.2652 808.317 27.1629C805.351 29.0007 802.984 31.5475 801.217 34.7845C799.438 37.985 798.558 41.6437 798.558 45.7397C798.558 49.5484 799.351 52.9749 800.954 56.0007L800.958 56.0085L800.963 56.0162C802.623 58.9785 804.911 61.3247 807.819 63.044ZM825.162 37.5122L825.157 37.5195L825.153 37.5269C824.808 38.1746 824.066 38.8235 822.773 39.4163C821.604 39.9225 819.791 40.2056 817.265 40.2056H811.984C810.714 40.2056 809.579 39.6437 808.873 38.8059C808.175 37.9787 807.897 36.8921 808.291 35.7613C808.873 34.0911 809.64 32.648 810.587 31.4233C812.423 29.1189 814.96 27.9514 818.291 27.9514C820.214 27.9514 821.956 28.5952 823.54 29.9135C825.056 31.1758 825.835 32.917 825.835 35.2318C825.835 35.9313 825.625 36.6882 825.162 37.5122Z" fill="black" stroke="black" stroke-width="1.5"/>
<path d="M793.707 36.3604L793.716 36.3512L793.725 36.3418C794.663 35.338 795.124 34.097 795.124 32.6689C795.124 30.7781 794.328 29.1797 792.808 27.9116C791.404 26.6938 789.681 25.7946 787.659 25.2004L787.448 25.92L787.659 25.2004C785.66 24.6128 783.707 24.3157 781.804 24.3157C777.862 24.3157 774.307 25.2575 771.161 27.1545C768.024 28.9888 765.538 31.5347 763.708 34.7779C761.871 38.0346 760.961 41.7236 760.961 45.8251C760.961 49.5787 761.754 52.9503 763.36 55.9207C764.966 58.8924 767.26 61.2422 770.227 62.962C773.209 64.6897 776.677 65.5405 780.607 65.5405C783.986 65.5405 787.135 64.7098 790.043 63.0498L790.043 63.0499L790.053 63.044C792.793 61.424 794.729 58.7985 795.898 55.2534C796.217 54.2863 795.659 53.2938 794.739 52.9874C793.741 52.655 792.715 53.2238 792.375 54.1564C791.438 56.7268 790.08 58.5223 788.336 59.6247C786.282 60.8655 784.137 61.4776 781.89 61.4776C779.124 61.4776 776.842 60.7495 774.999 59.3302C773.176 57.8831 771.769 55.9455 770.787 53.4913C769.799 51.025 769.301 48.3299 769.301 45.398C769.301 40.0354 770.475 35.82 772.75 32.6819L772.75 32.6819L772.753 32.677C775.012 29.5063 777.981 27.9514 781.719 27.9514C782.495 27.9514 783.429 28.0812 784.53 28.3562L784.551 28.3614L784.572 28.3653C785.106 28.467 785.411 28.6165 785.571 28.7535C785.701 28.8654 785.757 28.9837 785.757 29.1663C785.757 29.4621 785.733 29.7585 785.684 30.0559C785.661 30.1691 785.632 30.283 785.598 30.3976L786.317 30.6123L785.598 30.3976C785.581 30.4543 785.564 30.512 785.546 30.5703C785.476 30.8045 785.402 31.05 785.335 31.2952C785.326 31.3305 785.316 31.3663 785.305 31.4026C785.234 31.6504 785.144 31.9651 785.112 32.3034C785.086 32.5764 785.073 32.8695 785.073 33.1815C785.073 34.268 785.548 35.29 786.368 36.2358C787.293 37.3018 788.642 37.7758 790.27 37.7758C791.606 37.7758 792.767 37.2999 793.707 36.3604Z" fill="black" stroke="black" stroke-width="1.5"/>
<path d="M724.969 63.3242L724.979 63.3325L724.99 63.3404C726.968 64.8228 729.415 65.5405 732.28 65.5405C735.31 65.5405 738.116 64.8267 740.683 63.3952C741.442 62.9716 742.163 62.4929 742.845 61.9591C743.316 61.5905 744.181 61.4758 745.159 61.7172C746.127 61.9562 746.94 62.4822 747.289 63.0481L747.298 63.0626L747.308 63.0767C748.473 64.7888 750.508 65.5405 753.143 65.5405C755.304 65.5405 757.092 65.0315 758.41 63.9157C759.538 63.0016 760.362 61.8172 760.886 60.3845C761.187 59.5614 760.722 58.7244 759.98 58.4362L759.708 59.1353L759.98 58.4362C759.096 58.0927 758.233 58.602 757.865 59.2754C757.668 59.6361 757.402 59.9881 757.06 60.3302C756.567 60.8219 756.015 61.0505 755.367 61.0505C754.846 61.0505 754.48 60.9176 754.21 60.702C753.937 60.4837 753.694 60.1253 753.525 59.5537C753.208 58.2757 753.038 56.4158 753.038 53.9409V38.5636C753.038 33.6961 751.969 30.0087 749.655 27.696C747.346 25.3891 743.776 24.3157 739.12 24.3157C736.946 24.3157 734.693 24.6089 732.363 25.1902C729.995 25.7237 727.954 26.6479 726.26 27.9772C724.529 29.3236 723.664 31.1705 723.664 33.4378C723.664 34.6931 724.066 35.8076 724.87 36.7453L724.879 36.7558L724.889 36.7659C725.718 37.6631 726.774 38.1176 728.005 38.1176C729.226 38.1176 730.306 37.7937 731.198 37.1079L731.198 37.108L731.204 37.1032C732.197 36.3239 732.688 35.245 732.688 33.9504C732.688 33.2218 732.581 32.5118 732.366 31.8228L731.65 32.0458L732.366 31.8228C732.31 31.6407 732.257 31.462 732.203 31.2762C732.178 31.1925 732.153 31.1073 732.127 31.0197L731.408 31.2328L732.127 31.0197C732.106 30.9456 732.085 30.8784 732.066 30.8165C731.996 30.5859 731.948 30.4284 731.931 30.2619C731.922 30.1733 731.918 30.093 731.918 30.0206C731.918 29.6712 732.03 29.4087 732.254 29.1843C732.499 28.9403 732.917 28.7037 733.586 28.5237C735.005 28.1421 736.45 27.9514 737.923 27.9514C741.098 27.9514 742.981 28.7089 743.905 29.9547L743.91 29.9618L743.915 29.9687C744.964 31.316 745.553 33.4536 745.553 36.5133C745.553 37.853 744.732 39.0592 743.483 39.5617C742.502 39.9566 741.437 40.3892 740.29 40.8596C738.038 41.7825 735.789 42.8772 733.543 44.143C730.537 45.7605 727.897 47.5853 725.627 49.6201C723.275 51.6704 722.039 54.0855 722.039 56.8455C722.039 59.5515 723.005 61.7419 724.969 63.3242ZM739.374 59.7676L739.374 59.7676L739.364 59.7731C737.989 60.5128 736.543 60.8796 735.016 60.8796C733.323 60.8796 732.142 60.4606 731.357 59.7318C730.611 58.9312 730.208 57.8522 730.208 56.4184C730.208 54.8088 730.673 53.3341 731.614 51.9761L731.614 51.9761L731.621 51.9652C732.597 50.5024 733.879 49.136 735.477 47.8691C737.152 46.5865 738.939 45.4427 740.839 44.4378L740.839 44.4378L740.846 44.4341C742.991 43.2709 745.553 44.8634 745.553 47.4199V52.4646C745.553 53.0179 745.456 53.5332 745.237 53.9743C744.727 55.003 744.046 55.9892 743.189 56.9324C742.11 58.0626 740.84 59.008 739.374 59.7676Z" fill="black" stroke="black" stroke-width="1.5"/>
<path d="M679.344 84.3214L679.316 84.3301L679.289 84.3409C678.52 84.6484 677.338 84.9231 675.708 85.148L675.247 85.2056C674.356 85.3168 673.687 86.0741 673.687 86.9719C673.687 87.972 674.511 88.7758 675.511 88.7515L684.955 88.5213L694.398 88.7515C695.398 88.7758 696.222 87.972 696.222 86.9719C696.222 86.0741 695.553 85.3168 694.662 85.2056L694.201 85.148C692.572 84.9233 691.354 84.648 690.519 84.335L690.506 84.3302L690.493 84.3258C689.94 84.1418 689.475 83.6735 689.179 82.6859L689.179 82.6859L689.175 82.6756C688.871 81.7129 688.697 79.9921 688.697 77.4341V65.9643C688.697 65.1823 689.201 64.4883 690.009 64.0773C690.82 63.6646 691.803 63.6143 692.564 64.0053L692.571 64.0092L692.579 64.0129C694.684 65.0345 696.992 65.5405 699.49 65.5405C703.046 65.5405 706.215 64.6207 708.97 62.7662C711.759 60.9277 713.952 58.4665 715.547 55.3974L715.55 55.3922C717.147 52.2603 717.94 48.8105 717.94 45.0562C717.94 41.192 717.148 37.6846 715.55 34.5494C713.958 31.4271 711.796 28.9356 709.062 27.0941C706.364 25.2384 703.279 24.3157 699.833 24.3157C697.153 24.3157 694.693 24.9115 692.468 26.1126C691.572 26.5851 690.718 27.1254 689.907 27.7333C689.665 27.9145 689.295 27.939 688.959 27.7752C688.628 27.6139 688.491 27.3579 688.516 27.1149C688.657 25.7554 687.464 24.6511 686.129 24.8586C684.408 25.1261 682.736 25.3452 681.114 25.5158C679.277 25.709 677.375 25.8194 675.409 25.8467C674.464 25.8598 673.687 26.6263 673.687 27.5859C673.687 28.5511 674.465 29.2985 675.387 29.3381C676.482 29.3851 677.443 29.5154 678.274 29.7231L678.292 29.7274L678.309 29.7309C679.248 29.9185 679.918 30.3929 680.375 31.17L680.388 31.1928L680.403 31.2146C680.898 31.9328 681.212 33.2219 681.212 35.2318V77.4341C681.212 79.9921 681.038 81.7129 680.734 82.6756L680.734 82.6755L680.73 82.6859C680.44 83.6525 679.959 84.1293 679.344 84.3214ZM692.956 29.9768L692.956 29.9768L692.962 29.9733C694.656 28.9151 696.597 28.3786 698.806 28.3786C701.272 28.3786 703.216 29.0964 704.709 30.4843L704.708 30.4844L704.718 30.4929C706.313 31.9267 707.532 33.8846 708.354 36.4042C709.18 38.9358 709.6 41.8168 709.6 45.0562C709.6 48.2363 709.181 51.0884 708.355 53.6205C707.535 56.0781 706.318 58.0082 704.723 59.4441C703.171 60.7853 701.19 61.4776 698.721 61.4776C696.519 61.4776 694.518 60.9163 692.702 59.7953C691.344 58.9573 690.253 58.0591 689.415 57.1064C688.926 56.5514 688.697 55.7764 688.697 54.9277V35.1439C688.697 34.1439 689.029 33.208 689.68 32.5553C690.662 31.5729 691.753 30.7135 692.956 29.9768Z" fill="black" stroke="black" stroke-width="1.5"/>
<path d="M650.617 63.4111L650.627 63.4157L650.636 63.4199C651.534 63.8387 652.737 64.2767 654.23 64.736C655.864 65.279 657.799 65.5405 660.016 65.5405C664.045 65.5405 667.236 64.351 669.466 61.8753C671.64 59.4618 672.737 56.6355 672.737 53.4283C672.737 50.7291 672.015 48.3767 670.542 46.4104C669.105 44.3566 666.55 42.6958 663.019 41.3652C663.018 41.3649 663.018 41.3646 663.017 41.3643L659.69 40.086C659.69 40.0858 659.689 40.0856 659.689 40.0854C657.407 39.1956 655.638 38.2104 654.353 37.1439C653.205 36.0913 652.643 34.8148 652.643 33.2669C652.643 31.6406 653.193 30.3332 654.286 29.2876C655.449 28.2294 656.859 27.6951 658.563 27.6951C661.026 27.6951 662.839 28.5955 664.109 30.3714L664.109 30.3714L664.115 30.3797C665.307 31.9993 666.126 33.9026 666.564 36.1041C666.731 36.9461 667.463 37.605 668.366 37.605C669.363 37.605 670.172 36.7963 670.172 35.7988V30.898L670.447 26.4253C670.509 25.4261 669.74 24.5701 668.74 24.5247C667.885 24.4859 667.215 25.0481 666.923 25.7096C666.796 25.9972 666.68 26.1519 666.599 26.227C666.562 26.2617 666.538 26.2737 666.53 26.2773C666.523 26.2801 666.52 26.2806 666.515 26.2806C666.281 26.2806 665.918 26.193 665.396 25.9325C664.672 25.5706 663.783 25.2168 662.739 24.8687C661.667 24.4917 660.381 24.3157 658.905 24.3157C656.79 24.3157 654.791 24.7997 652.918 25.766L652.918 25.7659L652.909 25.7707C651.085 26.7423 649.595 28.1108 648.444 29.8656L648.444 29.8656L648.441 29.8711C647.322 31.6093 646.782 33.6934 646.782 36.0861C646.782 38.9086 647.568 41.2864 649.189 43.1556L649.189 43.1557L649.198 43.1662C650.841 44.9892 653.206 46.4691 656.24 47.6352C656.24 47.6354 656.241 47.6356 656.241 47.6358L659.317 48.8308L659.317 48.8308L659.324 48.8334C661.839 49.7827 663.745 50.8536 665.079 52.0267L665.084 52.0315L665.09 52.0362C666.416 53.1572 667.047 54.4907 667.047 56.0767C667.047 57.9952 666.409 59.4235 665.177 60.4571C663.919 61.5131 662.223 62.0756 660.016 62.0756C657.981 62.0756 656.217 61.5695 654.698 60.5749C653.136 59.5523 651.907 58.2961 651 56.8062C650.14 55.2992 649.669 53.8168 649.563 52.3543L649.533 51.8347C649.479 50.9172 648.719 50.2009 647.8 50.2009C646.865 50.2009 646.098 50.9412 646.065 51.8754L645.843 58.1765L645.569 62.6905C645.506 63.7262 646.329 64.6008 647.367 64.6008C648.23 64.6008 648.925 63.9972 649.137 63.2222C649.177 63.0757 649.211 62.9666 649.24 62.8895C649.252 62.8554 649.262 62.8328 649.268 62.8195C649.269 62.8199 649.27 62.8203 649.272 62.8207C649.338 62.8397 649.434 62.8726 649.563 62.9241C649.82 63.0269 650.17 63.1874 650.617 63.4111Z" fill="black" stroke="black" stroke-width="1.5"/>
<path d="M584.387 84.3214L584.359 84.3301L584.332 84.3409C583.563 84.6484 582.381 84.9231 580.751 85.148L580.29 85.2056C579.399 85.3168 578.73 86.0741 578.73 86.9719C578.73 87.972 579.554 88.7758 580.554 88.7515L589.997 88.5213L599.441 88.7515C600.441 88.7758 601.265 87.972 601.265 86.9719C601.265 86.0741 600.596 85.3168 599.705 85.2056L599.244 85.148C597.615 84.9233 596.397 84.648 595.562 84.335L595.549 84.3302L595.536 84.3258C594.983 84.1418 594.518 83.6735 594.222 82.6859L594.222 82.6859L594.218 82.6756C593.914 81.7129 593.74 79.9921 593.74 77.4341V65.9644C593.74 65.1823 594.244 64.4883 595.052 64.0773C595.863 63.6646 596.846 63.6143 597.607 64.0053L597.614 64.0092L597.622 64.0129C599.727 65.0345 602.035 65.5405 604.533 65.5405C608.089 65.5405 611.258 64.6207 614.013 62.7662C616.802 60.9277 618.995 58.4665 620.59 55.3974L620.593 55.3922C622.19 52.2603 622.983 48.8105 622.983 45.0562C622.983 41.192 622.191 37.6846 620.593 34.5494C619.001 31.4271 616.839 28.9356 614.105 27.0941C611.407 25.2384 608.322 24.3157 604.875 24.3157C602.196 24.3157 599.736 24.9115 597.511 26.1126C596.615 26.5851 595.761 27.1254 594.949 27.7333C594.707 27.9145 594.338 27.939 594.002 27.7752C593.671 27.6139 593.534 27.3579 593.559 27.1149C593.7 25.7554 592.507 24.6511 591.172 24.8586C589.451 25.1261 587.779 25.3452 586.157 25.5158C584.32 25.709 582.418 25.8194 580.452 25.8467C579.507 25.8598 578.73 26.6263 578.73 27.5859C578.73 28.5511 579.508 29.2985 580.43 29.3381C581.525 29.3851 582.486 29.5154 583.317 29.7231L583.335 29.7274L583.352 29.7309C584.291 29.9185 584.96 30.3929 585.418 31.17L585.431 31.1928L585.446 31.2146C585.941 31.9328 586.255 33.2219 586.255 35.2318V77.4341C586.255 79.9921 586.081 81.7129 585.777 82.6756L585.777 82.6755L585.773 82.6859C585.483 83.6525 585.002 84.1293 584.387 84.3214ZM597.999 29.9768L597.999 29.9768L598.005 29.9733C599.699 28.9151 601.64 28.3786 603.849 28.3786C606.315 28.3786 608.259 29.0964 609.752 30.4843L609.751 30.4844L609.761 30.4929C611.355 31.9267 612.575 33.8846 613.397 36.4042C614.223 38.9357 614.643 41.8168 614.643 45.0562C614.643 48.2363 614.224 51.0884 613.398 53.6205C612.578 56.0781 611.361 58.0082 609.766 59.4441C608.214 60.7853 606.233 61.4776 603.764 61.4776C601.562 61.4776 599.561 60.9163 597.745 59.7953C596.387 58.9573 595.296 58.0591 594.457 57.1064C593.969 56.5514 593.74 55.7764 593.74 54.9277V35.1439C593.74 34.1439 594.071 33.208 594.723 32.5553C595.705 31.5729 596.796 30.7135 597.999 29.9768Z" fill="black" stroke="black" stroke-width="1.5"/>
<path d="M542.705 62.6168L542.713 62.6239L542.721 62.6307C545.059 64.5981 548.184 65.5406 552.011 65.5406C554.896 65.5406 557.463 65.0108 559.692 63.9274L559.699 63.9238L559.707 63.9201C561.89 62.8 563.759 61.3799 565.305 59.6575C565.36 59.6 565.48 59.5539 565.636 59.6045C565.707 59.6276 565.751 59.6626 565.773 59.6885C565.789 59.7082 565.797 59.7254 565.797 59.7554V62.6087C565.797 64.1315 567.169 65.251 568.64 65.034C570.33 64.7847 571.862 64.641 573.238 64.6005C574.894 64.5519 576.697 64.5241 578.649 64.5171C579.603 64.5138 580.379 63.7406 580.379 62.783C580.379 61.8159 579.601 61.0745 578.686 61.0268C577.614 60.9708 576.697 60.8167 575.927 60.5746C575.104 60.299 574.454 59.7565 573.969 58.8945C573.534 57.9627 573.282 56.4804 573.282 54.3682V29.7683C573.282 27.7132 571.591 26.0625 569.539 26.1095L560.096 25.8794C559.096 25.8551 558.272 26.6589 558.272 27.659C558.272 28.5568 558.941 29.314 559.832 29.4253L560.297 29.4834L560.305 29.4844L560.313 29.4853C561.943 29.6537 563.116 29.9014 563.874 30.2045L563.882 30.2076L563.889 30.2104C564.533 30.4516 565.024 30.975 565.315 31.945L565.315 31.945L565.319 31.9553C565.623 32.918 565.797 34.6388 565.797 37.1968V51.4268C565.797 52.0305 565.677 52.6044 565.42 53.1002C564.82 54.2591 564.061 55.4075 563.142 56.545L563.136 56.5519L563.131 56.5589C562.052 57.9602 560.73 59.1203 559.16 60.0407C557.694 60.8769 555.974 61.3068 553.977 61.3068C551.688 61.3068 549.96 60.6215 548.703 59.3156C547.455 58.0184 546.775 56.096 546.775 53.4284V29.7682C546.775 27.7131 545.084 26.0625 543.032 26.1095L533.589 25.8794C532.589 25.8551 531.765 26.6589 531.765 27.659C531.765 28.5568 532.434 29.314 533.325 29.4253L533.791 29.4834L533.798 29.4844L533.806 29.4853C535.436 29.6537 536.609 29.9014 537.367 30.2045L537.375 30.2076L537.383 30.2104C538.026 30.4516 538.517 30.975 538.809 31.945L538.808 31.945L538.812 31.9553C539.116 32.918 539.29 34.6388 539.29 37.1968V53.7701C539.29 57.5629 540.392 60.5563 542.705 62.6168Z" fill="black" stroke="black" stroke-width="1.5"/>
<path d="M500.337 62.7866L500.342 62.7897C503.483 64.6253 506.949 65.5405 510.725 65.5405C514.555 65.5405 518.024 64.6263 521.113 62.7865C524.185 60.9564 526.614 58.5012 528.389 55.4286C530.225 52.2906 531.141 48.8278 531.141 45.0562C531.141 41.1764 530.228 37.6567 528.39 34.5159C526.617 31.3868 524.188 28.9014 521.113 27.0696C518.024 25.2298 514.555 24.3157 510.725 24.3157C506.949 24.3157 503.483 25.2309 500.342 27.0665L500.342 27.0664L500.337 27.0696C497.262 28.9009 494.807 31.3849 492.976 34.5112L492.976 34.5111L492.971 34.5204C491.192 37.661 490.308 41.1789 490.308 45.0562C490.308 48.824 491.194 52.2842 492.971 55.4212L492.975 55.4286L492.98 55.4358C494.81 58.5044 497.266 60.9573 500.337 62.7866ZM517.679 30.1655L517.679 30.1656L517.689 30.1741C519.441 31.6064 520.736 33.5827 521.554 36.1435C522.381 38.7325 522.801 41.7004 522.801 45.0562C522.801 48.2944 522.382 51.2051 521.554 53.7959C520.738 56.2962 519.444 58.2781 517.684 59.7717C515.97 61.1706 513.674 61.9048 510.725 61.9048C507.775 61.9048 505.48 61.1707 503.766 59.7717C502.006 58.2781 500.712 56.2962 499.895 53.7959C499.068 51.2051 498.649 48.2944 498.649 45.0562C498.649 41.7004 499.069 38.7325 499.896 36.1435C500.714 33.5827 502.008 31.6064 503.76 30.1741L503.76 30.1742L503.771 30.1655C505.485 28.7121 507.779 27.9514 510.725 27.9514C513.671 27.9514 515.964 28.7121 517.679 30.1655Z" fill="black" stroke="black" stroke-width="1.5"/>
<path d="M465.452 31.2394L465.459 31.253L465.467 31.2662C465.984 32.1105 466.298 33.5616 466.298 35.7444V53.5138C466.298 56.0635 466.125 57.8184 465.818 58.8458C465.534 59.7401 465.054 60.2473 464.403 60.4955C463.615 60.7562 462.421 61.0033 460.794 61.2277L460.333 61.2853C459.442 61.3965 458.773 62.1538 458.773 63.0516C458.773 64.0517 459.597 64.8555 460.597 64.8311L470.04 64.601L479.484 64.8311C480.484 64.8555 481.308 64.0517 481.308 63.0516C481.308 62.1538 480.639 61.3965 479.748 61.2853L479.287 61.2277C477.671 61.0048 476.447 60.7586 475.595 60.4957C475.01 60.2529 474.55 59.7519 474.263 58.8458C473.956 57.8185 473.783 56.0635 473.783 53.5138V40.4753C473.783 40.2137 473.806 39.9579 473.855 39.7112C474.122 38.3754 474.455 37.1357 474.853 35.991C475.301 34.7032 475.776 33.533 476.275 32.479C476.868 31.2422 477.549 30.3117 478.303 29.6556C479.139 28.9798 479.828 28.7203 480.387 28.7203C480.544 28.7203 480.658 28.7346 480.737 28.7533C480.785 28.7648 480.815 28.7767 480.832 28.7848C480.833 28.7942 480.834 28.8073 480.834 28.8246C480.834 28.9857 480.78 29.2914 480.616 29.7832L480.604 29.82L480.595 29.8578C480.468 30.4281 480.406 31.024 480.406 31.6438C480.406 32.627 480.834 33.4747 481.592 34.1638C482.405 34.9022 483.526 35.2129 484.833 35.2129C486.261 35.2129 487.47 34.7513 488.375 33.7775C489.264 32.8205 489.687 31.6032 489.687 30.1915C489.687 28.919 489.217 27.6632 488.359 26.4361C487.348 24.9276 485.424 24.3157 482.952 24.3157C480.643 24.3157 478.509 25.163 476.569 26.7988C475.304 27.8649 474.197 29.405 473.231 31.3856L473.275 30.9233C473.579 27.744 470.829 25.1728 467.704 25.4702C467.204 25.5177 466.709 25.5608 466.219 25.5994C464.376 25.7448 462.469 25.8279 460.498 25.8484C459.549 25.8582 458.773 26.627 458.773 27.5859C458.773 28.5511 459.551 29.2985 460.473 29.3381C461.568 29.3851 462.529 29.5154 463.36 29.7231L463.378 29.7274L463.395 29.7309C464.317 29.9152 464.987 30.4045 465.452 31.2394Z" fill="black" stroke="black" stroke-width="1.5"/>
<path d="M424.277 54.1545L424.277 54.1546L424.284 54.1499C425.216 53.5684 426.186 53.1138 427.195 52.7841C427.84 52.5737 428.575 52.6161 429.361 52.8016C430.838 53.1501 432.348 53.324 433.891 53.324C436.959 53.324 439.755 52.7043 442.264 51.4509L442.264 51.451L442.277 51.4445C444.771 50.1394 446.751 48.4071 448.195 46.2433C449.704 44.0115 450.46 41.5305 450.46 38.8198C450.46 36.7071 449.975 34.7095 449.008 32.8372C448.505 31.8635 447.91 30.962 447.223 30.1339C446.806 29.6303 446.554 29.0278 446.516 28.4834C446.48 27.9568 446.641 27.5055 447.03 27.1761L447.034 27.173C447.718 26.5872 448.405 26.3282 449.111 26.3282C449.694 26.3282 449.977 26.4994 450.136 26.7119L450.153 26.7345L450.172 26.7558C450.466 27.0921 450.671 27.5275 450.766 28.0936L450.767 28.1022L450.769 28.1107C451.015 29.4038 451.503 30.4681 452.298 31.2098C453.105 31.9626 454.15 32.3083 455.353 32.3083C456.455 32.3083 457.45 31.9243 458.317 31.1913L458.321 31.1882C459.309 30.3417 459.78 29.1806 459.78 27.7994C459.78 26.0545 458.988 24.6616 457.489 23.6788C456.092 22.6693 454.427 22.1799 452.532 22.1799C450.713 22.1799 448.906 22.5733 447.113 23.348C446.771 23.4853 446.437 23.6407 446.114 23.8141C443.907 24.9963 441.272 25.6011 438.998 24.977C437.387 24.5347 435.684 24.3156 433.891 24.3156C430.821 24.3156 428.022 24.9651 425.512 26.2773C423.017 27.525 421.01 29.2274 419.509 31.3865L419.505 31.3924L419.501 31.3983C418.046 33.5798 417.323 36.0616 417.323 38.8198C417.323 41.5847 418.078 44.0707 419.595 46.2531C419.651 46.3347 419.709 46.4157 419.767 46.4961C420.373 47.335 420.64 48.7167 420.492 50.1528C420.344 51.5903 419.802 52.8719 419.032 53.5481L419.032 53.5481L419.023 53.5558C417.061 55.3325 416.04 57.4637 416.04 59.9209C416.04 62.1878 416.752 64 418.287 65.2042C419.707 66.3742 421.423 67.1322 423.411 67.4933L423.415 67.4939C425.376 67.8397 427.227 68.0712 428.968 68.1871L428.968 68.1872L428.981 68.1879L437.699 68.6148C437.699 68.6149 437.7 68.6149 437.701 68.6149C441.881 68.8409 444.844 69.5161 446.684 70.5658C448.483 71.6151 449.387 73.2341 449.387 75.5546C449.387 77.8314 448.678 79.6938 447.28 81.1942L447.271 81.204L447.262 81.2141C445.878 82.8099 444.028 84.024 441.682 84.8417C439.319 85.6652 436.725 86.0813 433.891 86.0813C431.318 86.0813 428.954 85.8299 426.794 85.332C424.721 84.8412 423.073 84.034 421.816 82.9349L421.814 82.9334C420.687 81.9542 420.105 80.6335 420.105 78.8864C420.105 78.0135 420.258 77.3565 420.516 76.8744C420.915 76.2461 421.287 75.617 421.631 74.987C422.062 74.2615 422.243 73.3474 422.243 72.3083C422.243 71.0562 421.839 69.9971 420.947 69.2544L420.932 69.2421L420.917 69.2306C420.086 68.608 419.096 68.3119 417.987 68.3119C416.314 68.3119 414.93 69.0311 413.885 70.4012L413.878 70.4104L413.871 70.4198C412.906 71.7708 412.449 73.4427 412.449 75.3837C412.449 78.6846 413.477 81.4437 415.569 83.5952L415.568 83.5953L415.576 83.603C417.671 85.6956 420.348 87.2331 423.58 88.2314L423.584 88.2325C426.851 89.2233 430.288 89.7171 433.891 89.7171C437.511 89.7171 440.882 89.1045 443.997 87.8716C447.177 86.6361 449.764 84.8312 451.735 82.4472C453.801 80.0766 454.821 77.1647 454.821 73.7606C454.821 70.1186 453.91 67.2681 451.946 65.3661C450.111 63.5345 447.66 62.3409 444.645 61.7492C441.692 61.1133 438.404 60.711 434.782 60.5387L434.78 60.5386L431.028 60.3682C429.453 60.2556 427.992 60.1153 426.646 59.9475C425.364 59.7324 424.371 59.3665 423.633 58.8791C423.006 58.4139 422.671 57.7455 422.671 56.7601C422.671 55.6912 423.157 54.8357 424.277 54.1545ZM440.357 46.7015L440.357 46.7014L440.35 46.7132C439.158 48.6483 437.08 49.6882 433.891 49.6882C430.767 49.6882 428.677 48.6522 427.426 46.7015C426.096 44.6283 425.407 42.0155 425.407 38.8198C425.407 35.6241 426.096 33.0113 427.426 30.9381C428.677 28.9874 430.767 27.9514 433.891 27.9514C437.08 27.9514 439.158 28.9913 440.35 30.9264L440.35 30.9265L440.357 30.9381C441.687 33.0113 442.376 35.6241 442.376 38.8198C442.376 42.0155 441.687 44.6283 440.357 46.7015Z" fill="black" stroke="black" stroke-width="1.5"/>
<path d="M369.768 31.2394L369.776 31.253L369.784 31.2662C370.3 32.1105 370.614 33.5616 370.614 35.7444V53.5138C370.614 56.0635 370.442 57.8184 370.134 58.8458C369.851 59.7401 369.371 60.2473 368.719 60.4955C367.931 60.7562 366.737 61.0033 365.11 61.2277L364.649 61.2853C363.758 61.3965 363.09 62.1538 363.09 63.0516C363.09 64.0517 363.913 64.8555 364.913 64.8311L374.357 64.601L383.801 64.8311C384.8 64.8555 385.624 64.0517 385.624 63.0516C385.624 62.1538 384.955 61.3965 384.065 61.2853L383.604 61.2277C381.987 61.0048 380.763 60.7586 379.911 60.4957C379.326 60.2529 378.867 59.7519 378.579 58.8458C378.272 57.8185 378.1 56.0635 378.1 53.5138V40.4753C378.1 40.2137 378.123 39.9579 378.172 39.7112C378.438 38.3754 378.771 37.1357 379.169 35.991C379.618 34.7032 380.092 33.5331 380.592 32.4791C381.184 31.2422 381.865 30.3117 382.62 29.6556C383.455 28.9798 384.144 28.7203 384.703 28.7203C384.86 28.7203 384.974 28.7346 385.053 28.7533C385.102 28.7648 385.131 28.7767 385.148 28.7848C385.149 28.7942 385.15 28.8073 385.15 28.8246C385.15 28.9856 385.096 29.2914 384.932 29.7832L384.92 29.82L384.912 29.8578C384.785 30.4281 384.723 31.024 384.723 31.6438C384.723 32.627 385.15 33.4747 385.909 34.1638C386.722 34.9022 387.843 35.2129 389.149 35.2129C390.577 35.2129 391.786 34.7513 392.691 33.7775C393.581 32.8205 394.004 31.6032 394.004 30.1915C394.004 28.919 393.534 27.6632 392.676 26.4361C391.664 24.9276 389.74 24.3157 387.268 24.3157C384.959 24.3157 382.825 25.163 380.885 26.7988C379.62 27.8649 378.513 29.405 377.547 31.3856L377.591 30.9233C377.896 27.744 375.145 25.1728 372.02 25.4702C371.521 25.5177 371.026 25.5608 370.536 25.5994C368.693 25.7448 366.786 25.8279 364.814 25.8484C363.866 25.8582 363.09 26.627 363.09 27.5859C363.09 28.5511 363.868 29.2985 364.79 29.3381C365.884 29.3851 366.845 29.5154 367.677 29.7231L367.694 29.7274L367.711 29.7309C368.634 29.9152 369.304 30.4045 369.768 31.2394Z" fill="black" stroke="black" stroke-width="1.5"/>
<path d="M326.213 62.6168L326.22 62.6239L326.229 62.6307C328.567 64.5981 331.692 65.5406 335.519 65.5406C338.404 65.5406 340.971 65.0108 343.2 63.9274L343.207 63.9238L343.214 63.9201C345.398 62.8001 347.267 61.3799 348.813 59.6576C348.867 59.6001 348.988 59.5539 349.143 59.6045C349.214 59.6276 349.259 59.6626 349.281 59.6885C349.297 59.7082 349.305 59.7254 349.305 59.7553V62.6087C349.305 64.1315 350.677 65.251 352.148 65.034C353.838 64.7847 355.37 64.641 356.746 64.6005C358.402 64.5519 360.205 64.5241 362.157 64.5171C363.111 64.5138 363.887 63.7406 363.887 62.783C363.887 61.8159 363.108 61.0745 362.194 61.0268C361.121 60.9708 360.205 60.8167 359.435 60.5746C358.612 60.299 357.962 59.7565 357.477 58.8945C357.042 57.9627 356.79 56.4804 356.79 54.3682V29.7683C356.79 27.7132 355.099 26.0625 353.047 26.1095L343.603 25.8794C342.604 25.8551 341.78 26.6589 341.78 27.659C341.78 28.5568 342.449 29.314 343.339 29.4253L343.805 29.4834L343.813 29.4844L343.821 29.4853C345.451 29.6537 346.624 29.9014 347.382 30.2045L347.39 30.2076L347.397 30.2104C348.041 30.4516 348.532 30.975 348.823 31.945L348.823 31.945L348.826 31.9553C349.131 32.918 349.305 34.6388 349.305 37.1968V51.4268C349.305 52.0305 349.185 52.6044 348.928 53.1002C348.327 54.2591 347.569 55.4075 346.65 56.545L346.644 56.5519L346.639 56.5589C345.56 57.9602 344.238 59.1203 342.668 60.0407C341.201 60.8769 339.482 61.3068 337.485 61.3068C335.196 61.3068 333.468 60.6215 332.211 59.3156C330.963 58.0184 330.283 56.096 330.283 53.4284V29.7683C330.283 27.7132 328.592 26.0625 326.54 26.1095L317.097 25.8794C316.097 25.8551 315.273 26.6589 315.273 27.659C315.273 28.5568 315.942 29.314 316.833 29.4253L317.298 29.4834L317.306 29.4844L317.314 29.4853C318.944 29.6537 320.117 29.9014 320.875 30.2045L320.883 30.2076L320.89 30.2104C321.534 30.4516 322.025 30.975 322.316 31.945L322.316 31.945L322.32 31.9553C322.624 32.918 322.798 34.6388 322.798 37.1968V53.7701C322.798 57.5629 323.9 60.5563 326.213 62.6168Z" fill="black" stroke="black" stroke-width="1.5"/>
<path d="M283.845 62.7866L283.85 62.7897C286.991 64.6253 290.457 65.5405 294.233 65.5405C298.063 65.5405 301.532 64.6263 304.621 62.7865C307.693 60.9564 310.122 58.5012 311.897 55.4286C313.733 52.2906 314.649 48.8278 314.649 45.0562C314.649 41.1764 313.736 37.6567 311.898 34.5159C310.124 31.3868 307.696 28.9014 304.621 27.0696C301.532 25.2298 298.063 24.3157 294.233 24.3157C290.457 24.3157 286.991 25.2309 283.85 27.0665L283.85 27.0664L283.845 27.0696C280.77 28.9009 278.314 31.3849 276.484 34.5112L276.484 34.5111L276.479 34.5204C274.7 37.661 273.816 41.1789 273.816 45.0562C273.816 48.824 274.702 52.2842 276.479 55.4212L276.483 55.4286L276.487 55.4358C278.318 58.5044 280.773 60.9573 283.845 62.7866ZM301.187 30.1655L301.186 30.1656L301.197 30.1741C302.949 31.6064 304.243 33.5827 305.061 36.1435C305.888 38.7325 306.308 41.7004 306.308 45.0562C306.308 48.2944 305.889 51.2051 305.062 53.7959C304.246 56.2962 302.952 58.2781 301.192 59.7717C299.478 61.1706 297.182 61.9048 294.233 61.9048C291.283 61.9048 288.988 61.1707 287.273 59.7717C285.514 58.2781 284.219 56.2962 283.403 53.7959C282.576 51.2051 282.157 48.2944 282.157 45.0562C282.157 41.7004 282.577 38.7325 283.404 36.1435C284.222 33.5827 285.516 31.6064 287.268 30.1741L287.268 30.1742L287.279 30.1655C288.993 28.7121 291.286 27.9514 294.233 27.9514C297.179 27.9514 299.472 28.7121 301.187 30.1655Z" fill="black" stroke="black" stroke-width="1.5"/>
<path d="M228.655 80.985L228.654 80.9863C227.651 81.9212 227.133 83.0862 227.133 84.4394C227.133 85.817 227.727 87.0282 228.814 88.0536C229.973 89.2062 231.648 89.7172 233.697 89.7172C236.2 89.7172 238.37 89.1517 240.166 87.9797C241.963 86.9001 243.487 85.464 244.738 83.6805C246.019 81.9346 247.125 80.0726 248.056 78.0955L248.056 78.0955L248.06 78.0887L267.384 35.9718L267.384 35.9719L267.389 35.9599C268.169 34.1783 268.997 32.6936 269.867 31.4963C270.679 30.4515 272.007 29.7497 273.984 29.4826C273.984 29.4826 273.985 29.4825 273.985 29.4825L274.375 29.4305C275.258 29.3129 275.917 28.5599 275.917 27.6694C275.917 26.662 275.081 25.8562 274.074 25.8939L268.324 26.1093L261.2 25.8869C260.198 25.8556 259.368 26.6596 259.368 27.6623C259.368 28.5582 260.035 29.3139 260.924 29.4249L261.393 29.4835L261.395 29.4837C262.744 29.6486 263.655 29.9489 264.21 30.3226C264.724 30.6686 264.926 31.0658 264.926 31.5584C264.926 32.1926 264.668 33.1825 264.052 34.5809L257.943 47.7169C256.413 51.0065 251.73 50.9901 250.223 47.6898L244.041 34.1515L244.041 34.1503C243.417 32.7913 243.169 31.8951 243.169 31.3876C243.169 30.9261 243.345 30.5686 243.762 30.2612C244.216 29.9258 244.973 29.6448 246.116 29.4817L246.424 29.4378C247.303 29.3122 247.957 28.5588 247.957 27.6702C247.957 26.6633 247.125 25.8556 246.118 25.8855L238.571 26.1095L230.76 25.8843C229.757 25.8554 228.928 26.6605 228.928 27.6638C228.928 28.558 229.592 29.3134 230.478 29.429L231.548 29.5684L231.548 29.5684L231.556 29.5693C232.849 29.7243 233.697 30.1736 234.223 30.8312C234.855 31.6208 235.451 32.6415 236.002 33.908L236.002 33.908L236.007 33.9202L249.245 62.9205C249.761 64.0511 249.756 65.351 249.232 66.4779L244.564 76.5129C244.563 76.514 244.562 76.5152 244.562 76.5163C243.376 78.9983 242.277 80.4967 241.305 81.1765L241.297 81.1817L241.29 81.1871C240.296 81.919 239.394 82.2371 238.571 82.2371C238.018 82.2371 237.568 82.1012 237.191 81.8503L237.166 81.8335L237.139 81.8188C236.646 81.5452 236.215 81.2753 235.843 81.0098C235.43 80.7152 234.99 80.4219 234.522 80.1298L234.492 80.1109L234.46 80.095C233.857 79.794 233.099 79.6742 232.243 79.6742C230.831 79.6742 229.613 80.0964 228.655 80.985Z" fill="black" stroke="black" stroke-width="1.5"/>
<path d="M184.64 63.044L184.64 63.0441L184.649 63.0498C187.574 64.7194 190.984 65.5405 194.854 65.5405C198.653 65.5405 201.887 64.7033 204.512 62.9811C207.14 61.2567 209.098 58.6839 210.407 55.3163C210.785 54.3436 210.26 53.295 209.326 52.9449C208.354 52.581 207.315 53.0783 206.911 53.9755C205.85 56.3371 204.444 58.1332 202.709 59.399C200.792 60.7815 198.583 61.4776 196.052 61.4776C193.346 61.4776 191.092 60.7516 189.246 59.3302C187.427 57.8864 186.051 55.9545 185.125 53.5074C184.19 50.978 183.719 48.2485 183.719 45.3125C183.719 44.4125 184.478 43.6705 185.449 43.6705H207.921C208.816 43.6705 209.668 43.0675 209.793 42.0739C209.855 41.5764 209.884 40.9733 209.884 40.2722C209.884 35.5741 208.588 31.7097 205.932 28.7536C203.313 25.7731 199.671 24.3157 195.111 24.3157C191.496 24.3157 188.166 25.2652 185.138 27.1629C182.172 29.0007 179.805 31.5475 178.037 34.7845C176.258 37.985 175.379 41.6437 175.379 45.7397C175.379 49.5484 176.171 52.9749 177.775 56.0007L177.779 56.0085L177.783 56.0162C179.443 58.9785 181.732 61.3247 184.64 63.044ZM201.982 37.5122L201.978 37.5195L201.974 37.5269C201.628 38.1746 200.886 38.8235 199.594 39.4163C198.424 39.9225 196.611 40.2056 194.085 40.2056H188.804C187.534 40.2056 186.4 39.6437 185.693 38.8059C184.996 37.9787 184.717 36.8921 185.112 35.7613C185.694 34.0911 186.461 32.648 187.407 31.4233C189.244 29.1189 191.78 27.9514 195.111 27.9514C197.035 27.9514 198.777 28.5952 200.36 29.9135C201.876 31.1758 202.655 32.917 202.655 35.2318C202.655 35.9313 202.446 36.6883 201.982 37.5122Z" fill="black" stroke="black" stroke-width="1.5"/>
<path d="M139.059 33.4041L139.06 33.4057L152.334 62.6971C152.859 63.8563 154.014 64.6009 155.287 64.6009C156.584 64.6009 157.755 63.8284 158.267 62.6369L169.932 35.4421C170.774 33.4794 171.591 32.0821 172.37 31.2006L172.377 31.1926L172.384 31.1845C173.095 30.331 174.136 29.7756 175.586 29.5678C175.587 29.5676 175.589 29.5673 175.59 29.5671L176.654 29.4285C177.539 29.3132 178.201 28.5594 178.201 27.6671C178.201 26.6612 177.367 25.856 176.361 25.8919L170.268 26.1093L163.654 25.8891C162.653 25.8557 161.823 26.6582 161.823 27.6598C161.823 28.5582 162.496 29.3144 163.388 29.4193L163.934 29.4835C165.193 29.648 166.037 29.939 166.549 30.2948C167.021 30.6232 167.21 31 167.21 31.473C167.21 32.0582 167.002 32.8842 166.507 33.9842L166.504 33.9908L166.501 33.9974L160.958 46.9665C159.505 50.3652 154.706 50.418 153.179 47.052L147.1 33.6499C146.657 32.5985 146.478 31.8595 146.478 31.3876C146.478 30.842 146.655 30.5067 146.958 30.2712L146.978 30.2561L146.996 30.2397C147.338 29.9365 148.035 29.6484 149.246 29.4829L149.71 29.425C150.599 29.3139 151.267 28.5578 151.267 27.6614C151.267 26.6594 150.439 25.8555 149.437 25.8849L141.795 26.1095L134.061 25.8844C133.063 25.8553 132.238 26.6563 132.238 27.6545C132.238 28.557 132.917 29.3151 133.814 29.4146L133.896 28.6692L133.814 29.4146L134.443 29.4845C135.812 29.6426 136.732 30.0773 137.313 30.7021C137.991 31.4316 138.575 32.3287 139.059 33.4041Z" fill="black" stroke="black" stroke-width="1.5"/>
<path d="M119.969 30.4609L119.986 30.4726L120.003 30.4834C120.442 30.7628 120.827 31.2645 121.104 32.0954C121.383 32.9307 121.536 34.0529 121.536 35.4888V53.5145C121.536 56.0642 121.364 57.8192 121.056 58.8465C120.772 59.7408 120.293 60.248 119.641 60.4962C118.853 60.7569 117.659 61.004 116.032 61.2284L115.571 61.286C114.68 61.3972 114.012 62.1545 114.012 63.0523C114.012 64.0524 114.835 64.8562 115.835 64.8318L125.279 64.6017L134.723 64.8318C135.722 64.8562 136.546 64.0524 136.546 63.0523C136.546 62.1545 135.877 61.3972 134.986 61.286L134.526 61.2284C132.909 61.0055 131.685 60.7593 130.833 60.4964C130.248 60.2536 129.789 59.7526 129.501 58.8465C129.194 57.8192 129.021 56.0642 129.021 53.5145V31.5041C129.021 27.9256 125.814 25.2901 122.33 25.6109C122.041 25.6376 121.753 25.6622 121.467 25.6848C119.621 25.7817 117.712 25.8371 115.739 25.8507C114.788 25.8573 114.012 26.6283 114.012 27.5866V27.9705C114.012 28.7152 114.615 29.319 115.36 29.319C117.44 29.319 118.947 29.7311 119.969 30.4609ZM120.171 14.5263C121.185 15.7425 122.576 16.3337 124.253 16.3337C126.06 16.3337 127.52 15.7665 128.444 14.4963C129.349 13.3288 129.791 11.9416 129.791 10.3725C129.791 8.75914 129.355 7.36287 128.438 6.24013C127.513 4.97595 126.056 4.41125 124.253 4.41125C122.58 4.41125 121.192 4.99978 120.178 6.21046C119.189 7.33438 118.714 8.74119 118.714 10.3725C118.714 11.9592 119.196 13.357 120.171 14.5263Z" fill="black" stroke="black" stroke-width="1.5"/>
<path d="M66.7348 61.5898L66.7385 61.592C71.1914 64.2263 76.1125 65.5409 81.4854 65.5409C84.3755 65.5409 86.8427 65.2532 88.8694 64.659C90.8501 64.1344 92.5407 63.4573 93.9255 62.6161C95.3039 61.8125 96.4897 61.0616 97.4797 60.3634L97.4797 60.3635L97.4907 60.3555C98.3328 59.7385 99.1138 59.2093 99.8344 58.7662C100.451 58.3869 101.141 58.1939 101.921 58.1939C102.222 58.1939 102.672 58.3328 103.301 58.7516L103.33 58.7711L103.362 58.7878C103.749 58.9961 104.182 59.3741 104.652 59.9741C105.272 60.765 106.442 61.0875 107.377 60.4784C108.236 59.9184 108.514 58.788 108.013 57.8932L107.372 56.7509C106.989 55.9841 106.575 55.0463 106.129 53.9343C105.764 52.8857 105.578 51.7508 105.578 50.5241V48.9864C105.578 46.3558 106.063 44.7164 106.841 43.8483C107.672 42.9204 108.741 42.4025 110.1 42.3019L110.1 42.302L110.111 42.301L112.996 42.0448C113.928 41.962 114.642 41.1814 114.642 40.2458C114.642 39.23 113.805 38.414 112.789 38.4403L100.723 38.7534L87.6329 38.4383C86.617 38.4138 85.7802 39.2307 85.7802 40.2469C85.7802 41.1813 86.4916 41.9619 87.422 42.0484L90.1375 42.3008L90.1391 42.3009C93.248 42.5833 95.1596 43.2523 96.1035 44.1483L96.1102 44.1545L96.1169 44.1607C97.0874 45.0379 97.6655 46.5764 97.6655 48.9864V51.3784C97.6655 52.9873 97.0415 54.5867 95.706 56.1897C94.3719 57.7342 92.5387 59.0094 90.1741 59.9983C87.8311 60.9782 85.1108 61.478 81.9984 61.478C75.8244 61.478 71.0968 59.2343 67.7185 54.7701C64.3297 50.2922 62.5691 43.2561 62.5691 33.5236C62.5691 24.3128 64.212 17.333 67.4044 12.4937C70.5547 7.7183 75.2916 5.3129 81.7419 5.3129C84.6944 5.3129 87.5405 6.02183 90.2887 7.4496L90.2966 7.45371L90.3046 7.45762C93.0891 8.82135 95.3843 10.8388 97.195 13.5251L97.2 13.5324L97.2051 13.5396C98.8783 15.8997 99.8478 18.7206 100.093 22.0287C100.164 22.9785 100.944 23.7657 101.939 23.7657C102.959 23.7657 103.781 22.9294 103.764 21.9094L103.612 13.0206L103.764 4.28703C103.782 3.27549 102.966 2.44602 101.955 2.44602C100.928 2.44602 100.231 3.26609 100.037 4.0696C99.9643 4.37189 99.8535 4.68761 99.7013 5.01724L99.6953 5.03005L99.6899 5.04308C99.5972 5.2653 99.4825 5.39026 99.362 5.46635C99.2374 5.54497 99.0497 5.60692 98.7575 5.60692C98.0986 5.60692 97.5059 5.50651 96.9723 5.3142C96.4089 5.08879 95.3959 4.66712 93.9282 4.04675C92.6374 3.4612 90.9843 2.85416 88.978 2.22417C86.8974 1.57084 84.5681 1.25 81.9984 1.25C78.0198 1.25 74.2395 2.03985 70.6648 3.62068C67.0967 5.19862 63.9381 7.41996 61.1925 10.2799C58.4411 13.1458 56.2813 16.5616 54.7091 20.5176C53.1315 24.4875 52.3475 28.8257 52.3475 33.5236C52.3475 40.0011 53.6214 45.6524 56.199 50.4518L56.199 50.4518L56.2024 50.458C58.8269 55.2363 62.3376 58.9538 66.7348 61.5898Z" fill="black" stroke="black" stroke-width="1.5"/>
</svg>
